<?xml version="1.0" encoding="utf-8" standalone="no"?>
<!DOCTYPE svg PUBLIC "-//W3C//DTD SVG 1.1//EN"
  "http://www.w3.org/Graphics/SVG/1.1/DTD/svg11.dtd">
<svg xmlns:xlink="http://www.w3.org/1999/xlink" width="618.528125pt" height="321.95625pt" viewBox="0 0 618.528125 321.95625" xmlns="http://www.w3.org/2000/svg" version="1.1">
 <metadata>
  <rdf:RDF xmlns:dc="http://purl.org/dc/elements/1.1/" xmlns:cc="http://creativecommons.org/ns#" xmlns:rdf="http://www.w3.org/1999/02/22-rdf-syntax-ns#">
   <cc:Work>
    <dc:type rdf:resource="http://purl.org/dc/dcmitype/StillImage"/>
    <dc:date>2024-03-08T20:17:37.535370</dc:date>
    <dc:format>image/svg+xml</dc:format>
    <dc:creator>
     <cc:Agent>
      <dc:title>Matplotlib v3.8.2, https://matplotlib.org/</dc:title>
     </cc:Agent>
    </dc:creator>
   </cc:Work>
  </rdf:RDF>
 </metadata>
 <defs>
  <style type="text/css">*{stroke-linejoin: round; stroke-linecap: butt}</style>
 </defs>
 <g id="figure_1">
  <g id="patch_1">
   <path d="M 0 321.95625 
L 618.528125 321.95625 
L 618.528125 0 
L 0 0 
z
" style="fill: #ffffff"/>
  </g>
  <g id="axes_1">
   <g id="patch_2">
    <path d="M 53.328125 284.4 
L 306.964489 284.4 
L 306.964489 7.2 
L 53.328125 7.2 
z
" style="fill: #ffffff"/>
   </g>
   <g id="PathCollection_1">
    <defs>
     <path id="m0a5c918c1e" d="M 0 3 
C 0.795609 3 1.55874 2.683901 2.12132 2.12132 
C 2.683901 1.55874 3 0.795609 3 0 
C 3 -0.795609 2.683901 -1.55874 2.12132 -2.12132 
C 1.55874 -2.683901 0.795609 -3 0 -3 
C -0.795609 -3 -1.55874 -2.683901 -2.12132 -2.12132 
C -2.683901 -1.55874 -3 -0.795609 -3 0 
C -3 0.795609 -2.683901 1.55874 -2.12132 2.12132 
C -1.55874 2.683901 -0.795609 3 0 3 
z
" style="stroke: #1f77b4"/>
    </defs>
    <g clip-path="url(#pa962a3b8e0)">
     <use xlink:href="#m0a5c918c1e" x="64.857051" y="19.8" style="fill: #1f77b4; stroke: #1f77b4"/>
     <use xlink:href="#m0a5c918c1e" x="67.186127" y="231.334141" style="fill: #1f77b4; stroke: #1f77b4"/>
     <use xlink:href="#m0a5c918c1e" x="69.515202" y="265.278635" style="fill: #1f77b4; stroke: #1f77b4"/>
     <use xlink:href="#m0a5c918c1e" x="71.844278" y="268.415777" style="fill: #1f77b4; stroke: #1f77b4"/>
     <use xlink:href="#m0a5c918c1e" x="74.173354" y="268.943259" style="fill: #1f77b4; stroke: #1f77b4"/>
     <use xlink:href="#m0a5c918c1e" x="76.50243" y="268.972079" style="fill: #1f77b4; stroke: #1f77b4"/>
     <use xlink:href="#m0a5c918c1e" x="78.831506" y="270.250347" style="fill: #1f77b4; stroke: #1f77b4"/>
     <use xlink:href="#m0a5c918c1e" x="81.160582" y="270.279742" style="fill: #1f77b4; stroke: #1f77b4"/>
     <use xlink:href="#m0a5c918c1e" x="83.489658" y="270.878387" style="fill: #1f77b4; stroke: #1f77b4"/>
     <use xlink:href="#m0a5c918c1e" x="85.818734" y="271.389291" style="fill: #1f77b4; stroke: #1f77b4"/>
     <use xlink:href="#m0a5c918c1e" x="88.147809" y="271.082755" style="fill: #1f77b4; stroke: #1f77b4"/>
     <use xlink:href="#m0a5c918c1e" x="90.476885" y="271.393697" style="fill: #1f77b4; stroke: #1f77b4"/>
     <use xlink:href="#m0a5c918c1e" x="92.805961" y="271.357763" style="fill: #1f77b4; stroke: #1f77b4"/>
     <use xlink:href="#m0a5c918c1e" x="95.135037" y="271.529098" style="fill: #1f77b4; stroke: #1f77b4"/>
     <use xlink:href="#m0a5c918c1e" x="97.464113" y="271.718304" style="fill: #1f77b4; stroke: #1f77b4"/>
     <use xlink:href="#m0a5c918c1e" x="99.793189" y="271.696602" style="fill: #1f77b4; stroke: #1f77b4"/>
     <use xlink:href="#m0a5c918c1e" x="102.122265" y="271.674823" style="fill: #1f77b4; stroke: #1f77b4"/>
     <use xlink:href="#m0a5c918c1e" x="104.451341" y="271.644752" style="fill: #1f77b4; stroke: #1f77b4"/>
     <use xlink:href="#m0a5c918c1e" x="106.780417" y="271.644128" style="fill: #1f77b4; stroke: #1f77b4"/>
     <use xlink:href="#m0a5c918c1e" x="109.109492" y="271.66308" style="fill: #1f77b4; stroke: #1f77b4"/>
     <use xlink:href="#m0a5c918c1e" x="111.438568" y="271.659843" style="fill: #1f77b4; stroke: #1f77b4"/>
     <use xlink:href="#m0a5c918c1e" x="113.767644" y="271.706195" style="fill: #1f77b4; stroke: #1f77b4"/>
     <use xlink:href="#m0a5c918c1e" x="116.09672" y="271.732229" style="fill: #1f77b4; stroke: #1f77b4"/>
     <use xlink:href="#m0a5c918c1e" x="118.425796" y="271.7097" style="fill: #1f77b4; stroke: #1f77b4"/>
     <use xlink:href="#m0a5c918c1e" x="120.754872" y="271.769138" style="fill: #1f77b4; stroke: #1f77b4"/>
     <use xlink:href="#m0a5c918c1e" x="123.083948" y="271.702349" style="fill: #1f77b4; stroke: #1f77b4"/>
     <use xlink:href="#m0a5c918c1e" x="125.413024" y="271.697303" style="fill: #1f77b4; stroke: #1f77b4"/>
     <use xlink:href="#m0a5c918c1e" x="127.742099" y="271.771079" style="fill: #1f77b4; stroke: #1f77b4"/>
     <use xlink:href="#m0a5c918c1e" x="130.071175" y="271.752788" style="fill: #1f77b4; stroke: #1f77b4"/>
     <use xlink:href="#m0a5c918c1e" x="132.400251" y="271.744283" style="fill: #1f77b4; stroke: #1f77b4"/>
     <use xlink:href="#m0a5c918c1e" x="134.729327" y="271.748595" style="fill: #1f77b4; stroke: #1f77b4"/>
     <use xlink:href="#m0a5c918c1e" x="137.058403" y="271.748848" style="fill: #1f77b4; stroke: #1f77b4"/>
     <use xlink:href="#m0a5c918c1e" x="139.387479" y="271.748941" style="fill: #1f77b4; stroke: #1f77b4"/>
     <use xlink:href="#m0a5c918c1e" x="141.716555" y="271.76226" style="fill: #1f77b4; stroke: #1f77b4"/>
     <use xlink:href="#m0a5c918c1e" x="144.045631" y="271.751386" style="fill: #1f77b4; stroke: #1f77b4"/>
     <use xlink:href="#m0a5c918c1e" x="146.374707" y="271.764112" style="fill: #1f77b4; stroke: #1f77b4"/>
     <use xlink:href="#m0a5c918c1e" x="148.703782" y="271.774064" style="fill: #1f77b4; stroke: #1f77b4"/>
     <use xlink:href="#m0a5c918c1e" x="151.032858" y="271.757377" style="fill: #1f77b4; stroke: #1f77b4"/>
     <use xlink:href="#m0a5c918c1e" x="153.361934" y="271.769725" style="fill: #1f77b4; stroke: #1f77b4"/>
     <use xlink:href="#m0a5c918c1e" x="155.69101" y="271.754231" style="fill: #1f77b4; stroke: #1f77b4"/>
     <use xlink:href="#m0a5c918c1e" x="158.020086" y="271.772347" style="fill: #1f77b4; stroke: #1f77b4"/>
     <use xlink:href="#m0a5c918c1e" x="160.349162" y="271.783061" style="fill: #1f77b4; stroke: #1f77b4"/>
     <use xlink:href="#m0a5c918c1e" x="162.678238" y="271.780252" style="fill: #1f77b4; stroke: #1f77b4"/>
     <use xlink:href="#m0a5c918c1e" x="165.007314" y="271.782077" style="fill: #1f77b4; stroke: #1f77b4"/>
     <use xlink:href="#m0a5c918c1e" x="167.336389" y="271.792456" style="fill: #1f77b4; stroke: #1f77b4"/>
     <use xlink:href="#m0a5c918c1e" x="169.665465" y="271.784029" style="fill: #1f77b4; stroke: #1f77b4"/>
     <use xlink:href="#m0a5c918c1e" x="171.994541" y="271.775143" style="fill: #1f77b4; stroke: #1f77b4"/>
     <use xlink:href="#m0a5c918c1e" x="174.323617" y="271.768259" style="fill: #1f77b4; stroke: #1f77b4"/>
     <use xlink:href="#m0a5c918c1e" x="176.652693" y="271.7798" style="fill: #1f77b4; stroke: #1f77b4"/>
     <use xlink:href="#m0a5c918c1e" x="178.981769" y="271.792691" style="fill: #1f77b4; stroke: #1f77b4"/>
     <use xlink:href="#m0a5c918c1e" x="181.310845" y="271.792612" style="fill: #1f77b4; stroke: #1f77b4"/>
     <use xlink:href="#m0a5c918c1e" x="183.639921" y="271.777667" style="fill: #1f77b4; stroke: #1f77b4"/>
     <use xlink:href="#m0a5c918c1e" x="185.968997" y="271.787907" style="fill: #1f77b4; stroke: #1f77b4"/>
     <use xlink:href="#m0a5c918c1e" x="188.298072" y="271.788203" style="fill: #1f77b4; stroke: #1f77b4"/>
     <use xlink:href="#m0a5c918c1e" x="190.627148" y="271.793242" style="fill: #1f77b4; stroke: #1f77b4"/>
     <use xlink:href="#m0a5c918c1e" x="192.956224" y="271.791413" style="fill: #1f77b4; stroke: #1f77b4"/>
     <use xlink:href="#m0a5c918c1e" x="195.2853" y="271.792961" style="fill: #1f77b4; stroke: #1f77b4"/>
     <use xlink:href="#m0a5c918c1e" x="197.614376" y="271.796886" style="fill: #1f77b4; stroke: #1f77b4"/>
     <use xlink:href="#m0a5c918c1e" x="199.943452" y="271.79188" style="fill: #1f77b4; stroke: #1f77b4"/>
     <use xlink:href="#m0a5c918c1e" x="202.272528" y="271.794795" style="fill: #1f77b4; stroke: #1f77b4"/>
     <use xlink:href="#m0a5c918c1e" x="204.601604" y="271.794619" style="fill: #1f77b4; stroke: #1f77b4"/>
     <use xlink:href="#m0a5c918c1e" x="206.930679" y="271.796081" style="fill: #1f77b4; stroke: #1f77b4"/>
     <use xlink:href="#m0a5c918c1e" x="209.259755" y="271.791594" style="fill: #1f77b4; stroke: #1f77b4"/>
     <use xlink:href="#m0a5c918c1e" x="211.588831" y="271.794997" style="fill: #1f77b4; stroke: #1f77b4"/>
     <use xlink:href="#m0a5c918c1e" x="213.917907" y="271.790915" style="fill: #1f77b4; stroke: #1f77b4"/>
     <use xlink:href="#m0a5c918c1e" x="216.246983" y="271.797886" style="fill: #1f77b4; stroke: #1f77b4"/>
     <use xlink:href="#m0a5c918c1e" x="218.576059" y="271.796472" style="fill: #1f77b4; stroke: #1f77b4"/>
     <use xlink:href="#m0a5c918c1e" x="220.905135" y="271.792201" style="fill: #1f77b4; stroke: #1f77b4"/>
     <use xlink:href="#m0a5c918c1e" x="223.234211" y="271.796898" style="fill: #1f77b4; stroke: #1f77b4"/>
     <use xlink:href="#m0a5c918c1e" x="225.563287" y="271.798792" style="fill: #1f77b4; stroke: #1f77b4"/>
     <use xlink:href="#m0a5c918c1e" x="227.892362" y="271.793014" style="fill: #1f77b4; stroke: #1f77b4"/>
     <use xlink:href="#m0a5c918c1e" x="230.221438" y="271.794546" style="fill: #1f77b4; stroke: #1f77b4"/>
     <use xlink:href="#m0a5c918c1e" x="232.550514" y="271.794949" style="fill: #1f77b4; stroke: #1f77b4"/>
     <use xlink:href="#m0a5c918c1e" x="234.87959" y="271.793755" style="fill: #1f77b4; stroke: #1f77b4"/>
     <use xlink:href="#m0a5c918c1e" x="237.208666" y="271.797962" style="fill: #1f77b4; stroke: #1f77b4"/>
     <use xlink:href="#m0a5c918c1e" x="239.537742" y="271.798111" style="fill: #1f77b4; stroke: #1f77b4"/>
     <use xlink:href="#m0a5c918c1e" x="241.866818" y="271.793799" style="fill: #1f77b4; stroke: #1f77b4"/>
     <use xlink:href="#m0a5c918c1e" x="244.195894" y="271.797595" style="fill: #1f77b4; stroke: #1f77b4"/>
     <use xlink:href="#m0a5c918c1e" x="246.524969" y="271.795279" style="fill: #1f77b4; stroke: #1f77b4"/>
     <use xlink:href="#m0a5c918c1e" x="248.854045" y="271.798383" style="fill: #1f77b4; stroke: #1f77b4"/>
     <use xlink:href="#m0a5c918c1e" x="251.183121" y="271.791315" style="fill: #1f77b4; stroke: #1f77b4"/>
     <use xlink:href="#m0a5c918c1e" x="253.512197" y="271.797295" style="fill: #1f77b4; stroke: #1f77b4"/>
     <use xlink:href="#m0a5c918c1e" x="255.841273" y="271.798693" style="fill: #1f77b4; stroke: #1f77b4"/>
     <use xlink:href="#m0a5c918c1e" x="258.170349" y="271.797042" style="fill: #1f77b4; stroke: #1f77b4"/>
     <use xlink:href="#m0a5c918c1e" x="260.499425" y="271.798147" style="fill: #1f77b4; stroke: #1f77b4"/>
     <use xlink:href="#m0a5c918c1e" x="262.828501" y="271.8" style="fill: #1f77b4; stroke: #1f77b4"/>
     <use xlink:href="#m0a5c918c1e" x="265.157577" y="271.796749" style="fill: #1f77b4; stroke: #1f77b4"/>
     <use xlink:href="#m0a5c918c1e" x="267.486652" y="271.797082" style="fill: #1f77b4; stroke: #1f77b4"/>
     <use xlink:href="#m0a5c918c1e" x="269.815728" y="271.79811" style="fill: #1f77b4; stroke: #1f77b4"/>
     <use xlink:href="#m0a5c918c1e" x="272.144804" y="271.796356" style="fill: #1f77b4; stroke: #1f77b4"/>
     <use xlink:href="#m0a5c918c1e" x="274.47388" y="271.798367" style="fill: #1f77b4; stroke: #1f77b4"/>
     <use xlink:href="#m0a5c918c1e" x="276.802956" y="271.796418" style="fill: #1f77b4; stroke: #1f77b4"/>
     <use xlink:href="#m0a5c918c1e" x="279.132032" y="271.79794" style="fill: #1f77b4; stroke: #1f77b4"/>
     <use xlink:href="#m0a5c918c1e" x="281.461108" y="271.79898" style="fill: #1f77b4; stroke: #1f77b4"/>
     <use xlink:href="#m0a5c918c1e" x="283.790184" y="271.799449" style="fill: #1f77b4; stroke: #1f77b4"/>
     <use xlink:href="#m0a5c918c1e" x="286.119259" y="271.798632" style="fill: #1f77b4; stroke: #1f77b4"/>
     <use xlink:href="#m0a5c918c1e" x="288.448335" y="271.797969" style="fill: #1f77b4; stroke: #1f77b4"/>
     <use xlink:href="#m0a5c918c1e" x="290.777411" y="271.79852" style="fill: #1f77b4; stroke: #1f77b4"/>
     <use xlink:href="#m0a5c918c1e" x="293.106487" y="271.796268" style="fill: #1f77b4; stroke: #1f77b4"/>
     <use xlink:href="#m0a5c918c1e" x="295.435563" y="271.7972" style="fill: #1f77b4; stroke: #1f77b4"/>
    </g>
   </g>
   <g id="matplotlib.axis_1">
    <g id="xtick_1">
     <g id="line2d_1">
      <defs>
       <path id="m0238ac7592" d="M 0 0 
L 0 3.5 
" style="stroke: #000000; stroke-width: 0.8"/>
      </defs>
      <g>
       <use xlink:href="#m0238ac7592" x="62.527975" y="284.4" style="stroke: #000000; stroke-width: 0.8"/>
      </g>
     </g>
     <g id="text_1">
      <!-- 0 -->
      <g transform="translate(59.346725 298.998438) scale(0.1 -0.1)">
       <defs>
        <path id="DejaVuSans-30" d="M 2034 4250 
Q 1547 4250 1301 3770 
Q 1056 3291 1056 2328 
Q 1056 1369 1301 889 
Q 1547 409 2034 409 
Q 2525 409 2770 889 
Q 3016 1369 3016 2328 
Q 3016 3291 2770 3770 
Q 2525 4250 2034 4250 
z
M 2034 4750 
Q 2819 4750 3233 4129 
Q 3647 3509 3647 2328 
Q 3647 1150 3233 529 
Q 2819 -91 2034 -91 
Q 1250 -91 836 529 
Q 422 1150 422 2328 
Q 422 3509 836 4129 
Q 1250 4750 2034 4750 
z
" transform="scale(0.015625)"/>
       </defs>
       <use xlink:href="#DejaVuSans-30"/>
      </g>
     </g>
    </g>
    <g id="xtick_2">
     <g id="line2d_2">
      <g>
       <use xlink:href="#m0238ac7592" x="120.754872" y="284.4" style="stroke: #000000; stroke-width: 0.8"/>
      </g>
     </g>
     <g id="text_2">
      <!-- 5 -->
      <g transform="translate(117.573622 298.998438) scale(0.1 -0.1)">
       <defs>
        <path id="DejaVuSans-35" d="M 691 4666 
L 3169 4666 
L 3169 4134 
L 1269 4134 
L 1269 2991 
Q 1406 3038 1543 3061 
Q 1681 3084 1819 3084 
Q 2600 3084 3056 2656 
Q 3513 2228 3513 1497 
Q 3513 744 3044 326 
Q 2575 -91 1722 -91 
Q 1428 -91 1123 -41 
Q 819 9 494 109 
L 494 744 
Q 775 591 1075 516 
Q 1375 441 1709 441 
Q 2250 441 2565 725 
Q 2881 1009 2881 1497 
Q 2881 1984 2565 2268 
Q 2250 2553 1709 2553 
Q 1456 2553 1204 2497 
Q 953 2441 691 2322 
L 691 4666 
z
" transform="scale(0.015625)"/>
       </defs>
       <use xlink:href="#DejaVuSans-35"/>
      </g>
     </g>
    </g>
    <g id="xtick_3">
     <g id="line2d_3">
      <g>
       <use xlink:href="#m0238ac7592" x="178.981769" y="284.4" style="stroke: #000000; stroke-width: 0.8"/>
      </g>
     </g>
     <g id="text_3">
      <!-- 10 -->
      <g transform="translate(172.619269 298.998438) scale(0.1 -0.1)">
       <defs>
        <path id="DejaVuSans-31" d="M 794 531 
L 1825 531 
L 1825 4091 
L 703 3866 
L 703 4441 
L 1819 4666 
L 2450 4666 
L 2450 531 
L 3481 531 
L 3481 0 
L 794 0 
L 794 531 
z
" transform="scale(0.015625)"/>
       </defs>
       <use xlink:href="#DejaVuSans-31"/>
       <use xlink:href="#DejaVuSans-30" x="63.623047"/>
      </g>
     </g>
    </g>
    <g id="xtick_4">
     <g id="line2d_4">
      <g>
       <use xlink:href="#m0238ac7592" x="237.208666" y="284.4" style="stroke: #000000; stroke-width: 0.8"/>
      </g>
     </g>
     <g id="text_4">
      <!-- 15 -->
      <g transform="translate(230.846166 298.998438) scale(0.1 -0.1)">
       <use xlink:href="#DejaVuSans-31"/>
       <use xlink:href="#DejaVuSans-35" x="63.623047"/>
      </g>
     </g>
    </g>
    <g id="xtick_5">
     <g id="line2d_5">
      <g>
       <use xlink:href="#m0238ac7592" x="295.435563" y="284.4" style="stroke: #000000; stroke-width: 0.8"/>
      </g>
     </g>
     <g id="text_5">
      <!-- 20 -->
      <g transform="translate(289.073063 298.998438) scale(0.1 -0.1)">
       <defs>
        <path id="DejaVuSans-32" d="M 1228 531 
L 3431 531 
L 3431 0 
L 469 0 
L 469 531 
Q 828 903 1448 1529 
Q 2069 2156 2228 2338 
Q 2531 2678 2651 2914 
Q 2772 3150 2772 3378 
Q 2772 3750 2511 3984 
Q 2250 4219 1831 4219 
Q 1534 4219 1204 4116 
Q 875 4013 500 3803 
L 500 4441 
Q 881 4594 1212 4672 
Q 1544 4750 1819 4750 
Q 2544 4750 2975 4387 
Q 3406 4025 3406 3419 
Q 3406 3131 3298 2873 
Q 3191 2616 2906 2266 
Q 2828 2175 2409 1742 
Q 1991 1309 1228 531 
z
" transform="scale(0.015625)"/>
       </defs>
       <use xlink:href="#DejaVuSans-32"/>
       <use xlink:href="#DejaVuSans-30" x="63.623047"/>
      </g>
     </g>
    </g>
    <g id="text_6">
     <!-- Distance -->
     <g transform="translate(158.283807 312.676562) scale(0.1 -0.1)">
      <defs>
       <path id="DejaVuSans-44" d="M 1259 4147 
L 1259 519 
L 2022 519 
Q 2988 519 3436 956 
Q 3884 1394 3884 2338 
Q 3884 3275 3436 3711 
Q 2988 4147 2022 4147 
L 1259 4147 
z
M 628 4666 
L 1925 4666 
Q 3281 4666 3915 4102 
Q 4550 3538 4550 2338 
Q 4550 1131 3912 565 
Q 3275 0 1925 0 
L 628 0 
L 628 4666 
z
" transform="scale(0.015625)"/>
       <path id="DejaVuSans-69" d="M 603 3500 
L 1178 3500 
L 1178 0 
L 603 0 
L 603 3500 
z
M 603 4863 
L 1178 4863 
L 1178 4134 
L 603 4134 
L 603 4863 
z
" transform="scale(0.015625)"/>
       <path id="DejaVuSans-73" d="M 2834 3397 
L 2834 2853 
Q 2591 2978 2328 3040 
Q 2066 3103 1784 3103 
Q 1356 3103 1142 2972 
Q 928 2841 928 2578 
Q 928 2378 1081 2264 
Q 1234 2150 1697 2047 
L 1894 2003 
Q 2506 1872 2764 1633 
Q 3022 1394 3022 966 
Q 3022 478 2636 193 
Q 2250 -91 1575 -91 
Q 1294 -91 989 -36 
Q 684 19 347 128 
L 347 722 
Q 666 556 975 473 
Q 1284 391 1588 391 
Q 1994 391 2212 530 
Q 2431 669 2431 922 
Q 2431 1156 2273 1281 
Q 2116 1406 1581 1522 
L 1381 1569 
Q 847 1681 609 1914 
Q 372 2147 372 2553 
Q 372 3047 722 3315 
Q 1072 3584 1716 3584 
Q 2034 3584 2315 3537 
Q 2597 3491 2834 3397 
z
" transform="scale(0.015625)"/>
       <path id="DejaVuSans-74" d="M 1172 4494 
L 1172 3500 
L 2356 3500 
L 2356 3053 
L 1172 3053 
L 1172 1153 
Q 1172 725 1289 603 
Q 1406 481 1766 481 
L 2356 481 
L 2356 0 
L 1766 0 
Q 1100 0 847 248 
Q 594 497 594 1153 
L 594 3053 
L 172 3053 
L 172 3500 
L 594 3500 
L 594 4494 
L 1172 4494 
z
" transform="scale(0.015625)"/>
       <path id="DejaVuSans-61" d="M 2194 1759 
Q 1497 1759 1228 1600 
Q 959 1441 959 1056 
Q 959 750 1161 570 
Q 1363 391 1709 391 
Q 2188 391 2477 730 
Q 2766 1069 2766 1631 
L 2766 1759 
L 2194 1759 
z
M 3341 1997 
L 3341 0 
L 2766 0 
L 2766 531 
Q 2569 213 2275 61 
Q 1981 -91 1556 -91 
Q 1019 -91 701 211 
Q 384 513 384 1019 
Q 384 1609 779 1909 
Q 1175 2209 1959 2209 
L 2766 2209 
L 2766 2266 
Q 2766 2663 2505 2880 
Q 2244 3097 1772 3097 
Q 1472 3097 1187 3025 
Q 903 2953 641 2809 
L 641 3341 
Q 956 3463 1253 3523 
Q 1550 3584 1831 3584 
Q 2591 3584 2966 3190 
Q 3341 2797 3341 1997 
z
" transform="scale(0.015625)"/>
       <path id="DejaVuSans-6e" d="M 3513 2113 
L 3513 0 
L 2938 0 
L 2938 2094 
Q 2938 2591 2744 2837 
Q 2550 3084 2163 3084 
Q 1697 3084 1428 2787 
Q 1159 2491 1159 1978 
L 1159 0 
L 581 0 
L 581 3500 
L 1159 3500 
L 1159 2956 
Q 1366 3272 1645 3428 
Q 1925 3584 2291 3584 
Q 2894 3584 3203 3211 
Q 3513 2838 3513 2113 
z
" transform="scale(0.015625)"/>
       <path id="DejaVuSans-63" d="M 3122 3366 
L 3122 2828 
Q 2878 2963 2633 3030 
Q 2388 3097 2138 3097 
Q 1578 3097 1268 2742 
Q 959 2388 959 1747 
Q 959 1106 1268 751 
Q 1578 397 2138 397 
Q 2388 397 2633 464 
Q 2878 531 3122 666 
L 3122 134 
Q 2881 22 2623 -34 
Q 2366 -91 2075 -91 
Q 1284 -91 818 406 
Q 353 903 353 1747 
Q 353 2603 823 3093 
Q 1294 3584 2113 3584 
Q 2378 3584 2631 3529 
Q 2884 3475 3122 3366 
z
" transform="scale(0.015625)"/>
       <path id="DejaVuSans-65" d="M 3597 1894 
L 3597 1613 
L 953 1613 
Q 991 1019 1311 708 
Q 1631 397 2203 397 
Q 2534 397 2845 478 
Q 3156 559 3463 722 
L 3463 178 
Q 3153 47 2828 -22 
Q 2503 -91 2169 -91 
Q 1331 -91 842 396 
Q 353 884 353 1716 
Q 353 2575 817 3079 
Q 1281 3584 2069 3584 
Q 2775 3584 3186 3129 
Q 3597 2675 3597 1894 
z
M 3022 2063 
Q 3016 2534 2758 2815 
Q 2500 3097 2075 3097 
Q 1594 3097 1305 2825 
Q 1016 2553 972 2059 
L 3022 2063 
z
" transform="scale(0.015625)"/>
      </defs>
      <use xlink:href="#DejaVuSans-44"/>
      <use xlink:href="#DejaVuSans-69" x="77.001953"/>
      <use xlink:href="#DejaVuSans-73" x="104.785156"/>
      <use xlink:href="#DejaVuSans-74" x="156.884766"/>
      <use xlink:href="#DejaVuSans-61" x="196.09375"/>
      <use xlink:href="#DejaVuSans-6e" x="257.373047"/>
      <use xlink:href="#DejaVuSans-63" x="320.751953"/>
      <use xlink:href="#DejaVuSans-65" x="375.732422"/>
     </g>
    </g>
   </g>
   <g id="matplotlib.axis_2">
    <g id="ytick_1">
     <g id="line2d_6">
      <defs>
       <path id="m553cb7280a" d="M 0 0 
L -3.5 0 
" style="stroke: #000000; stroke-width: 0.8"/>
      </defs>
      <g>
       <use xlink:href="#m553cb7280a" x="53.328125" y="271.800513" style="stroke: #000000; stroke-width: 0.8"/>
      </g>
     </g>
     <g id="text_7">
      <!-- 0 -->
      <g transform="translate(39.965625 275.599732) scale(0.1 -0.1)">
       <use xlink:href="#DejaVuSans-30"/>
      </g>
     </g>
    </g>
    <g id="ytick_2">
     <g id="line2d_7">
      <g>
       <use xlink:href="#m553cb7280a" x="53.328125" y="210.506853" style="stroke: #000000; stroke-width: 0.8"/>
      </g>
     </g>
     <g id="text_8">
      <!-- 500 -->
      <g transform="translate(27.240625 214.306072) scale(0.1 -0.1)">
       <use xlink:href="#DejaVuSans-35"/>
       <use xlink:href="#DejaVuSans-30" x="63.623047"/>
       <use xlink:href="#DejaVuSans-30" x="127.246094"/>
      </g>
     </g>
    </g>
    <g id="ytick_3">
     <g id="line2d_8">
      <g>
       <use xlink:href="#m553cb7280a" x="53.328125" y="149.213194" style="stroke: #000000; stroke-width: 0.8"/>
      </g>
     </g>
     <g id="text_9">
      <!-- 1000 -->
      <g transform="translate(20.878125 153.012412) scale(0.1 -0.1)">
       <use xlink:href="#DejaVuSans-31"/>
       <use xlink:href="#DejaVuSans-30" x="63.623047"/>
       <use xlink:href="#DejaVuSans-30" x="127.246094"/>
       <use xlink:href="#DejaVuSans-30" x="190.869141"/>
      </g>
     </g>
    </g>
    <g id="ytick_4">
     <g id="line2d_9">
      <g>
       <use xlink:href="#m553cb7280a" x="53.328125" y="87.919534" style="stroke: #000000; stroke-width: 0.8"/>
      </g>
     </g>
     <g id="text_10">
      <!-- 1500 -->
      <g transform="translate(20.878125 91.718753) scale(0.1 -0.1)">
       <use xlink:href="#DejaVuSans-31"/>
       <use xlink:href="#DejaVuSans-35" x="63.623047"/>
       <use xlink:href="#DejaVuSans-30" x="127.246094"/>
       <use xlink:href="#DejaVuSans-30" x="190.869141"/>
      </g>
     </g>
    </g>
    <g id="ytick_5">
     <g id="line2d_10">
      <g>
       <use xlink:href="#m553cb7280a" x="53.328125" y="26.625874" style="stroke: #000000; stroke-width: 0.8"/>
      </g>
     </g>
     <g id="text_11">
      <!-- 2000 -->
      <g transform="translate(20.878125 30.425093) scale(0.1 -0.1)">
       <use xlink:href="#DejaVuSans-32"/>
       <use xlink:href="#DejaVuSans-30" x="63.623047"/>
       <use xlink:href="#DejaVuSans-30" x="127.246094"/>
       <use xlink:href="#DejaVuSans-30" x="190.869141"/>
      </g>
     </g>
    </g>
    <g id="text_12">
     <!-- Density -->
     <g transform="translate(14.798438 164.808594) rotate(-90) scale(0.1 -0.1)">
      <defs>
       <path id="DejaVuSans-79" d="M 2059 -325 
Q 1816 -950 1584 -1140 
Q 1353 -1331 966 -1331 
L 506 -1331 
L 506 -850 
L 844 -850 
Q 1081 -850 1212 -737 
Q 1344 -625 1503 -206 
L 1606 56 
L 191 3500 
L 800 3500 
L 1894 763 
L 2988 3500 
L 3597 3500 
L 2059 -325 
z
" transform="scale(0.015625)"/>
      </defs>
      <use xlink:href="#DejaVuSans-44"/>
      <use xlink:href="#DejaVuSans-65" x="77.001953"/>
      <use xlink:href="#DejaVuSans-6e" x="138.525391"/>
      <use xlink:href="#DejaVuSans-73" x="201.904297"/>
      <use xlink:href="#DejaVuSans-69" x="254.003906"/>
      <use xlink:href="#DejaVuSans-74" x="281.787109"/>
      <use xlink:href="#DejaVuSans-79" x="320.996094"/>
     </g>
    </g>
   </g>
   <g id="patch_3">
    <path d="M 53.328125 284.4 
L 53.328125 7.2 
" style="fill: none; stroke: #000000; stroke-width: 0.8; stroke-linejoin: miter; stroke-linecap: square"/>
   </g>
   <g id="patch_4">
    <path d="M 306.964489 284.4 
L 306.964489 7.2 
" style="fill: none; stroke: #000000; stroke-width: 0.8; stroke-linejoin: miter; stroke-linecap: square"/>
   </g>
   <g id="patch_5">
    <path d="M 53.328125 284.4 
L 306.964489 284.4 
" style="fill: none; stroke: #000000; stroke-width: 0.8; stroke-linejoin: miter; stroke-linecap: square"/>
   </g>
   <g id="patch_6">
    <path d="M 53.328125 7.2 
L 306.964489 7.2 
" style="fill: none; stroke: #000000; stroke-width: 0.8; stroke-linejoin: miter; stroke-linecap: square"/>
   </g>
  </g>
  <g id="axes_2">
   <g id="patch_7">
    <path d="M 357.691761 284.4 
L 611.328125 284.4 
L 611.328125 7.2 
L 357.691761 7.2 
z
" style="fill: #ffffff"/>
   </g>
   <g id="PathCollection_2">
    <g clip-path="url(#pefdf9054cf)">
     <use xlink:href="#m0a5c918c1e" x="369.220687" y="271.8" style="fill: #1f77b4; stroke: #1f77b4"/>
     <use xlink:href="#m0a5c918c1e" x="371.549763" y="265.320838" style="fill: #1f77b4; stroke: #1f77b4"/>
     <use xlink:href="#m0a5c918c1e" x="373.878839" y="262.486493" style="fill: #1f77b4; stroke: #1f77b4"/>
     <use xlink:href="#m0a5c918c1e" x="376.207915" y="259.621966" style="fill: #1f77b4; stroke: #1f77b4"/>
     <use xlink:href="#m0a5c918c1e" x="378.536991" y="255.635342" style="fill: #1f77b4; stroke: #1f77b4"/>
     <use xlink:href="#m0a5c918c1e" x="380.866066" y="249.748072" style="fill: #1f77b4; stroke: #1f77b4"/>
     <use xlink:href="#m0a5c918c1e" x="383.195142" y="245.245003" style="fill: #1f77b4; stroke: #1f77b4"/>
     <use xlink:href="#m0a5c918c1e" x="385.524218" y="239.366362" style="fill: #1f77b4; stroke: #1f77b4"/>
     <use xlink:href="#m0a5c918c1e" x="387.853294" y="234.789409" style="fill: #1f77b4; stroke: #1f77b4"/>
     <use xlink:href="#m0a5c918c1e" x="390.18237" y="232.240398" style="fill: #1f77b4; stroke: #1f77b4"/>
     <use xlink:href="#m0a5c918c1e" x="392.511446" y="226.806236" style="fill: #1f77b4; stroke: #1f77b4"/>
     <use xlink:href="#m0a5c918c1e" x="394.840522" y="223.112083" style="fill: #1f77b4; stroke: #1f77b4"/>
     <use xlink:href="#m0a5c918c1e" x="397.169598" y="218.362476" style="fill: #1f77b4; stroke: #1f77b4"/>
     <use xlink:href="#m0a5c918c1e" x="399.498673" y="214.966628" style="fill: #1f77b4; stroke: #1f77b4"/>
     <use xlink:href="#m0a5c918c1e" x="401.827749" y="213.780107" style="fill: #1f77b4; stroke: #1f77b4"/>
     <use xlink:href="#m0a5c918c1e" x="404.156825" y="212.066454" style="fill: #1f77b4; stroke: #1f77b4"/>
     <use xlink:href="#m0a5c918c1e" x="406.485901" y="209.717643" style="fill: #1f77b4; stroke: #1f77b4"/>
     <use xlink:href="#m0a5c918c1e" x="408.814977" y="206.443486" style="fill: #1f77b4; stroke: #1f77b4"/>
     <use xlink:href="#m0a5c918c1e" x="411.144053" y="202.769882" style="fill: #1f77b4; stroke: #1f77b4"/>
     <use xlink:href="#m0a5c918c1e" x="413.473129" y="199.183102" style="fill: #1f77b4; stroke: #1f77b4"/>
     <use xlink:href="#m0a5c918c1e" x="415.802205" y="195.125734" style="fill: #1f77b4; stroke: #1f77b4"/>
     <use xlink:href="#m0a5c918c1e" x="418.131281" y="192.133494" style="fill: #1f77b4; stroke: #1f77b4"/>
     <use xlink:href="#m0a5c918c1e" x="420.460356" y="189.761012" style="fill: #1f77b4; stroke: #1f77b4"/>
     <use xlink:href="#m0a5c918c1e" x="422.789432" y="186.319119" style="fill: #1f77b4; stroke: #1f77b4"/>
     <use xlink:href="#m0a5c918c1e" x="425.118508" y="185.026652" style="fill: #1f77b4; stroke: #1f77b4"/>
     <use xlink:href="#m0a5c918c1e" x="427.447584" y="180.646036" style="fill: #1f77b4; stroke: #1f77b4"/>
     <use xlink:href="#m0a5c918c1e" x="429.77666" y="175.671945" style="fill: #1f77b4; stroke: #1f77b4"/>
     <use xlink:href="#m0a5c918c1e" x="432.105736" y="174.144323" style="fill: #1f77b4; stroke: #1f77b4"/>
     <use xlink:href="#m0a5c918c1e" x="434.434812" y="171.484032" style="fill: #1f77b4; stroke: #1f77b4"/>
     <use xlink:href="#m0a5c918c1e" x="436.763888" y="168.125896" style="fill: #1f77b4; stroke: #1f77b4"/>
     <use xlink:href="#m0a5c918c1e" x="439.092963" y="164.811493" style="fill: #1f77b4; stroke: #1f77b4"/>
     <use xlink:href="#m0a5c918c1e" x="441.422039" y="161.293421" style="fill: #1f77b4; stroke: #1f77b4"/>
     <use xlink:href="#m0a5c918c1e" x="443.751115" y="157.555219" style="fill: #1f77b4; stroke: #1f77b4"/>
     <use xlink:href="#m0a5c918c1e" x="446.080191" y="154.609232" style="fill: #1f77b4; stroke: #1f77b4"/>
     <use xlink:href="#m0a5c918c1e" x="448.409267" y="150.596507" style="fill: #1f77b4; stroke: #1f77b4"/>
     <use xlink:href="#m0a5c918c1e" x="450.738343" y="147.448385" style="fill: #1f77b4; stroke: #1f77b4"/>
     <use xlink:href="#m0a5c918c1e" x="453.067419" y="145.03028" style="fill: #1f77b4; stroke: #1f77b4"/>
     <use xlink:href="#m0a5c918c1e" x="455.396495" y="140.867534" style="fill: #1f77b4; stroke: #1f77b4"/>
     <use xlink:href="#m0a5c918c1e" x="457.725571" y="137.735856" style="fill: #1f77b4; stroke: #1f77b4"/>
     <use xlink:href="#m0a5c918c1e" x="460.054646" y="132.780453" style="fill: #1f77b4; stroke: #1f77b4"/>
     <use xlink:href="#m0a5c918c1e" x="462.383722" y="129.610139" style="fill: #1f77b4; stroke: #1f77b4"/>
     <use xlink:href="#m0a5c918c1e" x="464.712798" y="127.547514" style="fill: #1f77b4; stroke: #1f77b4"/>
     <use xlink:href="#m0a5c918c1e" x="467.041874" y="125.036174" style="fill: #1f77b4; stroke: #1f77b4"/>
     <use xlink:href="#m0a5c918c1e" x="469.37095" y="122.642212" style="fill: #1f77b4; stroke: #1f77b4"/>
     <use xlink:href="#m0a5c918c1e" x="471.700026" y="121.547384" style="fill: #1f77b4; stroke: #1f77b4"/>
     <use xlink:href="#m0a5c918c1e" x="474.029102" y="119.205604" style="fill: #1f77b4; stroke: #1f77b4"/>
     <use xlink:href="#m0a5c918c1e" x="476.358178" y="115.441219" style="fill: #1f77b4; stroke: #1f77b4"/>
     <use xlink:href="#m0a5c918c1e" x="478.687253" y="110.447388" style="fill: #1f77b4; stroke: #1f77b4"/>
     <use xlink:href="#m0a5c918c1e" x="481.016329" y="107.103948" style="fill: #1f77b4; stroke: #1f77b4"/>
     <use xlink:href="#m0a5c918c1e" x="483.345405" y="105.788765" style="fill: #1f77b4; stroke: #1f77b4"/>
     <use xlink:href="#m0a5c918c1e" x="485.674481" y="104.405992" style="fill: #1f77b4; stroke: #1f77b4"/>
     <use xlink:href="#m0a5c918c1e" x="488.003557" y="100.24799" style="fill: #1f77b4; stroke: #1f77b4"/>
     <use xlink:href="#m0a5c918c1e" x="490.332633" y="97.863769" style="fill: #1f77b4; stroke: #1f77b4"/>
     <use xlink:href="#m0a5c918c1e" x="492.661709" y="95.445879" style="fill: #1f77b4; stroke: #1f77b4"/>
     <use xlink:href="#m0a5c918c1e" x="494.990785" y="93.963803" style="fill: #1f77b4; stroke: #1f77b4"/>
     <use xlink:href="#m0a5c918c1e" x="497.319861" y="92.0404" style="fill: #1f77b4; stroke: #1f77b4"/>
     <use xlink:href="#m0a5c918c1e" x="499.648936" y="90.386163" style="fill: #1f77b4; stroke: #1f77b4"/>
     <use xlink:href="#m0a5c918c1e" x="501.978012" y="89.563233" style="fill: #1f77b4; stroke: #1f77b4"/>
     <use xlink:href="#m0a5c918c1e" x="504.307088" y="87.535894" style="fill: #1f77b4; stroke: #1f77b4"/>
     <use xlink:href="#m0a5c918c1e" x="506.636164" y="86.146911" style="fill: #1f77b4; stroke: #1f77b4"/>
     <use xlink:href="#m0a5c918c1e" x="508.96524" y="84.666557" style="fill: #1f77b4; stroke: #1f77b4"/>
     <use xlink:href="#m0a5c918c1e" x="511.294316" y="83.51621" style="fill: #1f77b4; stroke: #1f77b4"/>
     <use xlink:href="#m0a5c918c1e" x="513.623392" y="81.125528" style="fill: #1f77b4; stroke: #1f77b4"/>
     <use xlink:href="#m0a5c918c1e" x="515.952468" y="79.599303" style="fill: #1f77b4; stroke: #1f77b4"/>
     <use xlink:href="#m0a5c918c1e" x="518.281543" y="76.859128" style="fill: #1f77b4; stroke: #1f77b4"/>
     <use xlink:href="#m0a5c918c1e" x="520.610619" y="76.085742" style="fill: #1f77b4; stroke: #1f77b4"/>
     <use xlink:href="#m0a5c918c1e" x="522.939695" y="74.859528" style="fill: #1f77b4; stroke: #1f77b4"/>
     <use xlink:href="#m0a5c918c1e" x="525.268771" y="72.260832" style="fill: #1f77b4; stroke: #1f77b4"/>
     <use xlink:href="#m0a5c918c1e" x="527.597847" y="71.096773" style="fill: #1f77b4; stroke: #1f77b4"/>
     <use xlink:href="#m0a5c918c1e" x="529.926923" y="70.526363" style="fill: #1f77b4; stroke: #1f77b4"/>
     <use xlink:href="#m0a5c918c1e" x="532.255999" y="67.96877" style="fill: #1f77b4; stroke: #1f77b4"/>
     <use xlink:href="#m0a5c918c1e" x="534.585075" y="65.875605" style="fill: #1f77b4; stroke: #1f77b4"/>
     <use xlink:href="#m0a5c918c1e" x="536.914151" y="63.868835" style="fill: #1f77b4; stroke: #1f77b4"/>
     <use xlink:href="#m0a5c918c1e" x="539.243226" y="61.363463" style="fill: #1f77b4; stroke: #1f77b4"/>
     <use xlink:href="#m0a5c918c1e" x="541.572302" y="60.39176" style="fill: #1f77b4; stroke: #1f77b4"/>
     <use xlink:href="#m0a5c918c1e" x="543.901378" y="59.452124" style="fill: #1f77b4; stroke: #1f77b4"/>
     <use xlink:href="#m0a5c918c1e" x="546.230454" y="56.755764" style="fill: #1f77b4; stroke: #1f77b4"/>
     <use xlink:href="#m0a5c918c1e" x="548.55953" y="55.553216" style="fill: #1f77b4; stroke: #1f77b4"/>
     <use xlink:href="#m0a5c918c1e" x="550.888606" y="53.339989" style="fill: #1f77b4; stroke: #1f77b4"/>
     <use xlink:href="#m0a5c918c1e" x="553.217682" y="52.416286" style="fill: #1f77b4; stroke: #1f77b4"/>
     <use xlink:href="#m0a5c918c1e" x="555.546758" y="48.326135" style="fill: #1f77b4; stroke: #1f77b4"/>
     <use xlink:href="#m0a5c918c1e" x="557.875833" y="46.859615" style="fill: #1f77b4; stroke: #1f77b4"/>
     <use xlink:href="#m0a5c918c1e" x="560.204909" y="46.009682" style="fill: #1f77b4; stroke: #1f77b4"/>
     <use xlink:href="#m0a5c918c1e" x="562.533985" y="44.349024" style="fill: #1f77b4; stroke: #1f77b4"/>
     <use xlink:href="#m0a5c918c1e" x="564.863061" y="43.189625" style="fill: #1f77b4; stroke: #1f77b4"/>
     <use xlink:href="#m0a5c918c1e" x="567.192137" y="42.932297" style="fill: #1f77b4; stroke: #1f77b4"/>
     <use xlink:href="#m0a5c918c1e" x="569.521213" y="40.999693" style="fill: #1f77b4; stroke: #1f77b4"/>
     <use xlink:href="#m0a5c918c1e" x="571.850289" y="39.196944" style="fill: #1f77b4; stroke: #1f77b4"/>
     <use xlink:href="#m0a5c918c1e" x="574.179365" y="37.905232" style="fill: #1f77b4; stroke: #1f77b4"/>
     <use xlink:href="#m0a5c918c1e" x="576.508441" y="35.620057" style="fill: #1f77b4; stroke: #1f77b4"/>
     <use xlink:href="#m0a5c918c1e" x="578.837516" y="34.414098" style="fill: #1f77b4; stroke: #1f77b4"/>
     <use xlink:href="#m0a5c918c1e" x="581.166592" y="32.061737" style="fill: #1f77b4; stroke: #1f77b4"/>
     <use xlink:href="#m0a5c918c1e" x="583.495668" y="30.551155" style="fill: #1f77b4; stroke: #1f77b4"/>
     <use xlink:href="#m0a5c918c1e" x="585.824744" y="29.631768" style="fill: #1f77b4; stroke: #1f77b4"/>
     <use xlink:href="#m0a5c918c1e" x="588.15382" y="28.979894" style="fill: #1f77b4; stroke: #1f77b4"/>
     <use xlink:href="#m0a5c918c1e" x="590.482896" y="27.802579" style="fill: #1f77b4; stroke: #1f77b4"/>
     <use xlink:href="#m0a5c918c1e" x="592.811972" y="26.176911" style="fill: #1f77b4; stroke: #1f77b4"/>
     <use xlink:href="#m0a5c918c1e" x="595.141048" y="24.876916" style="fill: #1f77b4; stroke: #1f77b4"/>
     <use xlink:href="#m0a5c918c1e" x="597.470123" y="22.050647" style="fill: #1f77b4; stroke: #1f77b4"/>
     <use xlink:href="#m0a5c918c1e" x="599.799199" y="19.8" style="fill: #1f77b4; stroke: #1f77b4"/>
    </g>
   </g>
   <g id="matplotlib.axis_3">
    <g id="xtick_6">
     <g id="line2d_11">
      <g>
       <use xlink:href="#m0238ac7592" x="366.891611" y="284.4" style="stroke: #000000; stroke-width: 0.8"/>
      </g>
     </g>
     <g id="text_13">
      <!-- 0 -->
      <g transform="translate(363.710361 298.998438) scale(0.1 -0.1)">
       <use xlink:href="#DejaVuSans-30"/>
      </g>
     </g>
    </g>
    <g id="xtick_7">
     <g id="line2d_12">
      <g>
       <use xlink:href="#m0238ac7592" x="425.118508" y="284.4" style="stroke: #000000; stroke-width: 0.8"/>
      </g>
     </g>
     <g id="text_14">
      <!-- 5 -->
      <g transform="translate(421.937258 298.998438) scale(0.1 -0.1)">
       <use xlink:href="#DejaVuSans-35"/>
      </g>
     </g>
    </g>
    <g id="xtick_8">
     <g id="line2d_13">
      <g>
       <use xlink:href="#m0238ac7592" x="483.345405" y="284.4" style="stroke: #000000; stroke-width: 0.8"/>
      </g>
     </g>
     <g id="text_15">
      <!-- 10 -->
      <g transform="translate(476.982905 298.998438) scale(0.1 -0.1)">
       <use xlink:href="#DejaVuSans-31"/>
       <use xlink:href="#DejaVuSans-30" x="63.623047"/>
      </g>
     </g>
    </g>
    <g id="xtick_9">
     <g id="line2d_14">
      <g>
       <use xlink:href="#m0238ac7592" x="541.572302" y="284.4" style="stroke: #000000; stroke-width: 0.8"/>
      </g>
     </g>
     <g id="text_16">
      <!-- 15 -->
      <g transform="translate(535.209802 298.998438) scale(0.1 -0.1)">
       <use xlink:href="#DejaVuSans-31"/>
       <use xlink:href="#DejaVuSans-35" x="63.623047"/>
      </g>
     </g>
    </g>
    <g id="xtick_10">
     <g id="line2d_15">
      <g>
       <use xlink:href="#m0238ac7592" x="599.799199" y="284.4" style="stroke: #000000; stroke-width: 0.8"/>
      </g>
     </g>
     <g id="text_17">
      <!-- 20 -->
      <g transform="translate(593.436699 298.998438) scale(0.1 -0.1)">
       <use xlink:href="#DejaVuSans-32"/>
       <use xlink:href="#DejaVuSans-30" x="63.623047"/>
      </g>
     </g>
    </g>
    <g id="text_18">
     <!-- Distance -->
     <g transform="translate(462.647443 312.676562) scale(0.1 -0.1)">
      <use xlink:href="#DejaVuSans-44"/>
      <use xlink:href="#DejaVuSans-69" x="77.001953"/>
      <use xlink:href="#DejaVuSans-73" x="104.785156"/>
      <use xlink:href="#DejaVuSans-74" x="156.884766"/>
      <use xlink:href="#DejaVuSans-61" x="196.09375"/>
      <use xlink:href="#DejaVuSans-6e" x="257.373047"/>
      <use xlink:href="#DejaVuSans-63" x="320.751953"/>
      <use xlink:href="#DejaVuSans-65" x="375.732422"/>
     </g>
    </g>
   </g>
   <g id="matplotlib.axis_4">
    <g id="ytick_6">
     <g id="line2d_16">
      <g>
       <use xlink:href="#m553cb7280a" x="357.691761" y="277.564052" style="stroke: #000000; stroke-width: 0.8"/>
      </g>
     </g>
     <g id="text_19">
      <!-- 0 -->
      <g transform="translate(344.329261 281.363271) scale(0.1 -0.1)">
       <use xlink:href="#DejaVuSans-30"/>
      </g>
     </g>
    </g>
    <g id="ytick_7">
     <g id="line2d_17">
      <g>
       <use xlink:href="#m553cb7280a" x="357.691761" y="235.726771" style="stroke: #000000; stroke-width: 0.8"/>
      </g>
     </g>
     <g id="text_20">
      <!-- 500 -->
      <g transform="translate(331.604261 239.52599) scale(0.1 -0.1)">
       <use xlink:href="#DejaVuSans-35"/>
       <use xlink:href="#DejaVuSans-30" x="63.623047"/>
       <use xlink:href="#DejaVuSans-30" x="127.246094"/>
      </g>
     </g>
    </g>
    <g id="ytick_8">
     <g id="line2d_18">
      <g>
       <use xlink:href="#m553cb7280a" x="357.691761" y="193.88949" style="stroke: #000000; stroke-width: 0.8"/>
      </g>
     </g>
     <g id="text_21">
      <!-- 1000 -->
      <g transform="translate(325.241761 197.688708) scale(0.1 -0.1)">
       <use xlink:href="#DejaVuSans-31"/>
       <use xlink:href="#DejaVuSans-30" x="63.623047"/>
       <use xlink:href="#DejaVuSans-30" x="127.246094"/>
       <use xlink:href="#DejaVuSans-30" x="190.869141"/>
      </g>
     </g>
    </g>
    <g id="ytick_9">
     <g id="line2d_19">
      <g>
       <use xlink:href="#m553cb7280a" x="357.691761" y="152.052208" style="stroke: #000000; stroke-width: 0.8"/>
      </g>
     </g>
     <g id="text_22">
      <!-- 1500 -->
      <g transform="translate(325.241761 155.851427) scale(0.1 -0.1)">
       <use xlink:href="#DejaVuSans-31"/>
       <use xlink:href="#DejaVuSans-35" x="63.623047"/>
       <use xlink:href="#DejaVuSans-30" x="127.246094"/>
       <use xlink:href="#DejaVuSans-30" x="190.869141"/>
      </g>
     </g>
    </g>
    <g id="ytick_10">
     <g id="line2d_20">
      <g>
       <use xlink:href="#m553cb7280a" x="357.691761" y="110.214927" style="stroke: #000000; stroke-width: 0.8"/>
      </g>
     </g>
     <g id="text_23">
      <!-- 2000 -->
      <g transform="translate(325.241761 114.014145) scale(0.1 -0.1)">
       <use xlink:href="#DejaVuSans-32"/>
       <use xlink:href="#DejaVuSans-30" x="63.623047"/>
       <use xlink:href="#DejaVuSans-30" x="127.246094"/>
       <use xlink:href="#DejaVuSans-30" x="190.869141"/>
      </g>
     </g>
    </g>
    <g id="ytick_11">
     <g id="line2d_21">
      <g>
       <use xlink:href="#m553cb7280a" x="357.691761" y="68.377645" style="stroke: #000000; stroke-width: 0.8"/>
      </g>
     </g>
     <g id="text_24">
      <!-- 2500 -->
      <g transform="translate(325.241761 72.176864) scale(0.1 -0.1)">
       <use xlink:href="#DejaVuSans-32"/>
       <use xlink:href="#DejaVuSans-35" x="63.623047"/>
       <use xlink:href="#DejaVuSans-30" x="127.246094"/>
       <use xlink:href="#DejaVuSans-30" x="190.869141"/>
      </g>
     </g>
    </g>
    <g id="ytick_12">
     <g id="line2d_22">
      <g>
       <use xlink:href="#m553cb7280a" x="357.691761" y="26.540364" style="stroke: #000000; stroke-width: 0.8"/>
      </g>
     </g>
     <g id="text_25">
      <!-- 3000 -->
      <g transform="translate(325.241761 30.339583) scale(0.1 -0.1)">
       <defs>
        <path id="DejaVuSans-33" d="M 2597 2516 
Q 3050 2419 3304 2112 
Q 3559 1806 3559 1356 
Q 3559 666 3084 287 
Q 2609 -91 1734 -91 
Q 1441 -91 1130 -33 
Q 819 25 488 141 
L 488 750 
Q 750 597 1062 519 
Q 1375 441 1716 441 
Q 2309 441 2620 675 
Q 2931 909 2931 1356 
Q 2931 1769 2642 2001 
Q 2353 2234 1838 2234 
L 1294 2234 
L 1294 2753 
L 1863 2753 
Q 2328 2753 2575 2939 
Q 2822 3125 2822 3475 
Q 2822 3834 2567 4026 
Q 2313 4219 1838 4219 
Q 1578 4219 1281 4162 
Q 984 4106 628 3988 
L 628 4550 
Q 988 4650 1302 4700 
Q 1616 4750 1894 4750 
Q 2613 4750 3031 4423 
Q 3450 4097 3450 3541 
Q 3450 3153 3228 2886 
Q 3006 2619 2597 2516 
z
" transform="scale(0.015625)"/>
       </defs>
       <use xlink:href="#DejaVuSans-33"/>
       <use xlink:href="#DejaVuSans-30" x="63.623047"/>
       <use xlink:href="#DejaVuSans-30" x="127.246094"/>
       <use xlink:href="#DejaVuSans-30" x="190.869141"/>
      </g>
     </g>
    </g>
    <g id="text_26">
     <!-- Mass -->
     <g transform="translate(319.162074 158.3875) rotate(-90) scale(0.1 -0.1)">
      <defs>
       <path id="DejaVuSans-4d" d="M 628 4666 
L 1569 4666 
L 2759 1491 
L 3956 4666 
L 4897 4666 
L 4897 0 
L 4281 0 
L 4281 4097 
L 3078 897 
L 2444 897 
L 1241 4097 
L 1241 0 
L 628 0 
L 628 4666 
z
" transform="scale(0.015625)"/>
      </defs>
      <use xlink:href="#DejaVuSans-4d"/>
      <use xlink:href="#DejaVuSans-61" x="86.279297"/>
      <use xlink:href="#DejaVuSans-73" x="147.558594"/>
      <use xlink:href="#DejaVuSans-73" x="199.658203"/>
     </g>
    </g>
   </g>
   <g id="patch_8">
    <path d="M 357.691761 284.4 
L 357.691761 7.2 
" style="fill: none; stroke: #000000; stroke-width: 0.8; stroke-linejoin: miter; stroke-linecap: square"/>
   </g>
   <g id="patch_9">
    <path d="M 611.328125 284.4 
L 611.328125 7.2 
" style="fill: none; stroke: #000000; stroke-width: 0.8; stroke-linejoin: miter; stroke-linecap: square"/>
   </g>
   <g id="patch_10">
    <path d="M 357.691761 284.4 
L 611.328125 284.4 
" style="fill: none; stroke: #000000; stroke-width: 0.8; stroke-linejoin: miter; stroke-linecap: square"/>
   </g>
   <g id="patch_11">
    <path d="M 357.691761 7.2 
L 611.328125 7.2 
" style="fill: none; stroke: #000000; stroke-width: 0.8; stroke-linejoin: miter; stroke-linecap: square"/>
   </g>
  </g>
 </g>
 <defs>
  <clipPath id="pa962a3b8e0">
   <rect x="53.328125" y="7.2" width="253.636364" height="277.2"/>
  </clipPath>
  <clipPath id="pefdf9054cf">
   <rect x="357.691761" y="7.2" width="253.636364" height="277.2"/>
  </clipPath>
 </defs>
</svg>
