<?xml version="1.0" encoding="utf-8" standalone="no"?>
<!DOCTYPE svg PUBLIC "-//W3C//DTD SVG 1.1//EN"
  "http://www.w3.org/Graphics/SVG/1.1/DTD/svg11.dtd">
<svg xmlns:xlink="http://www.w3.org/1999/xlink" width="432.82pt" height="335.6645pt" viewBox="0 0 432.82 335.6645" xmlns="http://www.w3.org/2000/svg" version="1.1">
 <metadata>
  <rdf:RDF xmlns:dc="http://purl.org/dc/elements/1.1/" xmlns:cc="http://creativecommons.org/ns#" xmlns:rdf="http://www.w3.org/1999/02/22-rdf-syntax-ns#">
   <cc:Work>
    <dc:type rdf:resource="http://purl.org/dc/dcmitype/StillImage"/>
    <dc:date>2024-02-09T17:10:47.440054</dc:date>
    <dc:format>image/svg+xml</dc:format>
    <dc:creator>
     <cc:Agent>
      <dc:title>Matplotlib v3.8.2, https://matplotlib.org/</dc:title>
     </cc:Agent>
    </dc:creator>
   </cc:Work>
  </rdf:RDF>
 </metadata>
 <defs>
  <style type="text/css">*{stroke-linejoin: round; stroke-linecap: butt}</style>
 </defs>
 <g id="figure_1">
  <g id="patch_1">
   <path d="M 0 335.6645 
L 432.82 335.6645 
L 432.82 0 
L 0 0 
z
" style="fill: #ffffff"/>
  </g>
  <g id="axes_1">
   <g id="patch_2">
    <path d="M 68.5 288.430125 
L 425.62 288.430125 
L 425.62 22.318125 
L 68.5 22.318125 
z
" style="fill: #ffffff"/>
   </g>
   <g id="matplotlib.axis_1">
    <g id="xtick_1">
     <g id="line2d_1">
      <defs>
       <path id="m773b3665e4" d="M 0 0 
L 0 3.5 
" style="stroke: #000000; stroke-width: 0.8"/>
      </defs>
      <g>
       <use xlink:href="#m773b3665e4" x="78.107124" y="288.430125" style="stroke: #000000; stroke-width: 0.8"/>
      </g>
     </g>
     <g id="text_1">
      <!-- 0 -->
      <g transform="translate(74.925874 303.028562) scale(0.1 -0.1)">
       <defs>
        <path id="DejaVuSans-30" d="M 2034 4250 
Q 1547 4250 1301 3770 
Q 1056 3291 1056 2328 
Q 1056 1369 1301 889 
Q 1547 409 2034 409 
Q 2525 409 2770 889 
Q 3016 1369 3016 2328 
Q 3016 3291 2770 3770 
Q 2525 4250 2034 4250 
z
M 2034 4750 
Q 2819 4750 3233 4129 
Q 3647 3509 3647 2328 
Q 3647 1150 3233 529 
Q 2819 -91 2034 -91 
Q 1250 -91 836 529 
Q 422 1150 422 2328 
Q 422 3509 836 4129 
Q 1250 4750 2034 4750 
z
" transform="scale(0.015625)"/>
       </defs>
       <use xlink:href="#DejaVuSans-30"/>
      </g>
     </g>
    </g>
    <g id="xtick_2">
     <g id="line2d_2">
      <g>
       <use xlink:href="#m773b3665e4" x="144.363154" y="288.430125" style="stroke: #000000; stroke-width: 0.8"/>
      </g>
     </g>
     <g id="text_2">
      <!-- 2 -->
      <g transform="translate(141.181904 303.028562) scale(0.1 -0.1)">
       <defs>
        <path id="DejaVuSans-32" d="M 1228 531 
L 3431 531 
L 3431 0 
L 469 0 
L 469 531 
Q 828 903 1448 1529 
Q 2069 2156 2228 2338 
Q 2531 2678 2651 2914 
Q 2772 3150 2772 3378 
Q 2772 3750 2511 3984 
Q 2250 4219 1831 4219 
Q 1534 4219 1204 4116 
Q 875 4013 500 3803 
L 500 4441 
Q 881 4594 1212 4672 
Q 1544 4750 1819 4750 
Q 2544 4750 2975 4387 
Q 3406 4025 3406 3419 
Q 3406 3131 3298 2873 
Q 3191 2616 2906 2266 
Q 2828 2175 2409 1742 
Q 1991 1309 1228 531 
z
" transform="scale(0.015625)"/>
       </defs>
       <use xlink:href="#DejaVuSans-32"/>
      </g>
     </g>
    </g>
    <g id="xtick_3">
     <g id="line2d_3">
      <g>
       <use xlink:href="#m773b3665e4" x="210.619184" y="288.430125" style="stroke: #000000; stroke-width: 0.8"/>
      </g>
     </g>
     <g id="text_3">
      <!-- 4 -->
      <g transform="translate(207.437934 303.028562) scale(0.1 -0.1)">
       <defs>
        <path id="DejaVuSans-34" d="M 2419 4116 
L 825 1625 
L 2419 1625 
L 2419 4116 
z
M 2253 4666 
L 3047 4666 
L 3047 1625 
L 3713 1625 
L 3713 1100 
L 3047 1100 
L 3047 0 
L 2419 0 
L 2419 1100 
L 313 1100 
L 313 1709 
L 2253 4666 
z
" transform="scale(0.015625)"/>
       </defs>
       <use xlink:href="#DejaVuSans-34"/>
      </g>
     </g>
    </g>
    <g id="xtick_4">
     <g id="line2d_4">
      <g>
       <use xlink:href="#m773b3665e4" x="276.875213" y="288.430125" style="stroke: #000000; stroke-width: 0.8"/>
      </g>
     </g>
     <g id="text_4">
      <!-- 6 -->
      <g transform="translate(273.693963 303.028562) scale(0.1 -0.1)">
       <defs>
        <path id="DejaVuSans-36" d="M 2113 2584 
Q 1688 2584 1439 2293 
Q 1191 2003 1191 1497 
Q 1191 994 1439 701 
Q 1688 409 2113 409 
Q 2538 409 2786 701 
Q 3034 994 3034 1497 
Q 3034 2003 2786 2293 
Q 2538 2584 2113 2584 
z
M 3366 4563 
L 3366 3988 
Q 3128 4100 2886 4159 
Q 2644 4219 2406 4219 
Q 1781 4219 1451 3797 
Q 1122 3375 1075 2522 
Q 1259 2794 1537 2939 
Q 1816 3084 2150 3084 
Q 2853 3084 3261 2657 
Q 3669 2231 3669 1497 
Q 3669 778 3244 343 
Q 2819 -91 2113 -91 
Q 1303 -91 875 529 
Q 447 1150 447 2328 
Q 447 3434 972 4092 
Q 1497 4750 2381 4750 
Q 2619 4750 2861 4703 
Q 3103 4656 3366 4563 
z
" transform="scale(0.015625)"/>
       </defs>
       <use xlink:href="#DejaVuSans-36"/>
      </g>
     </g>
    </g>
    <g id="xtick_5">
     <g id="line2d_5">
      <g>
       <use xlink:href="#m773b3665e4" x="343.131243" y="288.430125" style="stroke: #000000; stroke-width: 0.8"/>
      </g>
     </g>
     <g id="text_5">
      <!-- 8 -->
      <g transform="translate(339.949993 303.028562) scale(0.1 -0.1)">
       <defs>
        <path id="DejaVuSans-38" d="M 2034 2216 
Q 1584 2216 1326 1975 
Q 1069 1734 1069 1313 
Q 1069 891 1326 650 
Q 1584 409 2034 409 
Q 2484 409 2743 651 
Q 3003 894 3003 1313 
Q 3003 1734 2745 1975 
Q 2488 2216 2034 2216 
z
M 1403 2484 
Q 997 2584 770 2862 
Q 544 3141 544 3541 
Q 544 4100 942 4425 
Q 1341 4750 2034 4750 
Q 2731 4750 3128 4425 
Q 3525 4100 3525 3541 
Q 3525 3141 3298 2862 
Q 3072 2584 2669 2484 
Q 3125 2378 3379 2068 
Q 3634 1759 3634 1313 
Q 3634 634 3220 271 
Q 2806 -91 2034 -91 
Q 1263 -91 848 271 
Q 434 634 434 1313 
Q 434 1759 690 2068 
Q 947 2378 1403 2484 
z
M 1172 3481 
Q 1172 3119 1398 2916 
Q 1625 2713 2034 2713 
Q 2441 2713 2670 2916 
Q 2900 3119 2900 3481 
Q 2900 3844 2670 4047 
Q 2441 4250 2034 4250 
Q 1625 4250 1398 4047 
Q 1172 3844 1172 3481 
z
" transform="scale(0.015625)"/>
       </defs>
       <use xlink:href="#DejaVuSans-38"/>
      </g>
     </g>
    </g>
    <g id="xtick_6">
     <g id="line2d_6">
      <g>
       <use xlink:href="#m773b3665e4" x="409.387273" y="288.430125" style="stroke: #000000; stroke-width: 0.8"/>
      </g>
     </g>
     <g id="text_6">
      <!-- 10 -->
      <g transform="translate(403.024773 303.028562) scale(0.1 -0.1)">
       <defs>
        <path id="DejaVuSans-31" d="M 794 531 
L 1825 531 
L 1825 4091 
L 703 3866 
L 703 4441 
L 1819 4666 
L 2450 4666 
L 2450 531 
L 3481 531 
L 3481 0 
L 794 0 
L 794 531 
z
" transform="scale(0.015625)"/>
       </defs>
       <use xlink:href="#DejaVuSans-31"/>
       <use xlink:href="#DejaVuSans-30" x="63.623047"/>
      </g>
     </g>
    </g>
    <g id="text_7">
     <!-- R [kpc] -->
     <g transform="translate(211.492813 324.305125) scale(0.2 -0.2)">
      <defs>
       <path id="DejaVuSans-52" d="M 2841 2188 
Q 3044 2119 3236 1894 
Q 3428 1669 3622 1275 
L 4263 0 
L 3584 0 
L 2988 1197 
Q 2756 1666 2539 1819 
Q 2322 1972 1947 1972 
L 1259 1972 
L 1259 0 
L 628 0 
L 628 4666 
L 2053 4666 
Q 2853 4666 3247 4331 
Q 3641 3997 3641 3322 
Q 3641 2881 3436 2590 
Q 3231 2300 2841 2188 
z
M 1259 4147 
L 1259 2491 
L 2053 2491 
Q 2509 2491 2742 2702 
Q 2975 2913 2975 3322 
Q 2975 3731 2742 3939 
Q 2509 4147 2053 4147 
L 1259 4147 
z
" transform="scale(0.015625)"/>
       <path id="DejaVuSans-20" transform="scale(0.015625)"/>
       <path id="DejaVuSans-5b" d="M 550 4863 
L 1875 4863 
L 1875 4416 
L 1125 4416 
L 1125 -397 
L 1875 -397 
L 1875 -844 
L 550 -844 
L 550 4863 
z
" transform="scale(0.015625)"/>
       <path id="DejaVuSans-6b" d="M 581 4863 
L 1159 4863 
L 1159 1991 
L 2875 3500 
L 3609 3500 
L 1753 1863 
L 3688 0 
L 2938 0 
L 1159 1709 
L 1159 0 
L 581 0 
L 581 4863 
z
" transform="scale(0.015625)"/>
       <path id="DejaVuSans-70" d="M 1159 525 
L 1159 -1331 
L 581 -1331 
L 581 3500 
L 1159 3500 
L 1159 2969 
Q 1341 3281 1617 3432 
Q 1894 3584 2278 3584 
Q 2916 3584 3314 3078 
Q 3713 2572 3713 1747 
Q 3713 922 3314 415 
Q 2916 -91 2278 -91 
Q 1894 -91 1617 61 
Q 1341 213 1159 525 
z
M 3116 1747 
Q 3116 2381 2855 2742 
Q 2594 3103 2138 3103 
Q 1681 3103 1420 2742 
Q 1159 2381 1159 1747 
Q 1159 1113 1420 752 
Q 1681 391 2138 391 
Q 2594 391 2855 752 
Q 3116 1113 3116 1747 
z
" transform="scale(0.015625)"/>
       <path id="DejaVuSans-63" d="M 3122 3366 
L 3122 2828 
Q 2878 2963 2633 3030 
Q 2388 3097 2138 3097 
Q 1578 3097 1268 2742 
Q 959 2388 959 1747 
Q 959 1106 1268 751 
Q 1578 397 2138 397 
Q 2388 397 2633 464 
Q 2878 531 3122 666 
L 3122 134 
Q 2881 22 2623 -34 
Q 2366 -91 2075 -91 
Q 1284 -91 818 406 
Q 353 903 353 1747 
Q 353 2603 823 3093 
Q 1294 3584 2113 3584 
Q 2378 3584 2631 3529 
Q 2884 3475 3122 3366 
z
" transform="scale(0.015625)"/>
       <path id="DejaVuSans-5d" d="M 1947 4863 
L 1947 -844 
L 622 -844 
L 622 -397 
L 1369 -397 
L 1369 4416 
L 622 4416 
L 622 4863 
L 1947 4863 
z
" transform="scale(0.015625)"/>
      </defs>
      <use xlink:href="#DejaVuSans-52"/>
      <use xlink:href="#DejaVuSans-20" x="69.482422"/>
      <use xlink:href="#DejaVuSans-5b" x="101.269531"/>
      <use xlink:href="#DejaVuSans-6b" x="140.283203"/>
      <use xlink:href="#DejaVuSans-70" x="198.193359"/>
      <use xlink:href="#DejaVuSans-63" x="261.669922"/>
      <use xlink:href="#DejaVuSans-5d" x="316.650391"/>
     </g>
    </g>
   </g>
   <g id="matplotlib.axis_2">
    <g id="ytick_1">
     <g id="line2d_7">
      <defs>
       <path id="m0701a5597e" d="M 0 0 
L -3.5 0 
" style="stroke: #000000; stroke-width: 0.8"/>
      </defs>
      <g>
       <use xlink:href="#m0701a5597e" x="68.5" y="220.705705" style="stroke: #000000; stroke-width: 0.8"/>
      </g>
     </g>
     <g id="text_8">
      <!-- $\mathdefault{10^{-21}}$ -->
      <g transform="translate(33.6 224.504924) scale(0.1 -0.1)">
       <defs>
        <path id="DejaVuSans-2212" d="M 678 2272 
L 4684 2272 
L 4684 1741 
L 678 1741 
L 678 2272 
z
" transform="scale(0.015625)"/>
       </defs>
       <use xlink:href="#DejaVuSans-31" transform="translate(0 0.765625)"/>
       <use xlink:href="#DejaVuSans-30" transform="translate(63.623047 0.765625)"/>
       <use xlink:href="#DejaVuSans-2212" transform="translate(128.203125 39.046875) scale(0.7)"/>
       <use xlink:href="#DejaVuSans-32" transform="translate(186.855469 39.046875) scale(0.7)"/>
       <use xlink:href="#DejaVuSans-31" transform="translate(231.391602 39.046875) scale(0.7)"/>
      </g>
     </g>
    </g>
    <g id="ytick_2">
     <g id="line2d_8">
      <g>
       <use xlink:href="#m0701a5597e" x="68.5" y="88.310647" style="stroke: #000000; stroke-width: 0.8"/>
      </g>
     </g>
     <g id="text_9">
      <!-- $\mathdefault{10^{-20}}$ -->
      <g transform="translate(33.6 92.109866) scale(0.1 -0.1)">
       <use xlink:href="#DejaVuSans-31" transform="translate(0 0.765625)"/>
       <use xlink:href="#DejaVuSans-30" transform="translate(63.623047 0.765625)"/>
       <use xlink:href="#DejaVuSans-2212" transform="translate(128.203125 39.046875) scale(0.7)"/>
       <use xlink:href="#DejaVuSans-32" transform="translate(186.855469 39.046875) scale(0.7)"/>
       <use xlink:href="#DejaVuSans-30" transform="translate(231.391602 39.046875) scale(0.7)"/>
      </g>
     </g>
    </g>
    <g id="ytick_3">
     <g id="line2d_9">
      <defs>
       <path id="m565ab0f488" d="M 0 0 
L -2 0 
" style="stroke: #000000; stroke-width: 0.6"/>
      </defs>
      <g>
       <use xlink:href="#m565ab0f488" x="68.5" y="273.390996" style="stroke: #000000; stroke-width: 0.6"/>
      </g>
     </g>
    </g>
    <g id="ytick_4">
     <g id="line2d_10">
      <g>
       <use xlink:href="#m565ab0f488" x="68.5" y="260.560589" style="stroke: #000000; stroke-width: 0.6"/>
      </g>
     </g>
    </g>
    <g id="ytick_5">
     <g id="line2d_11">
      <g>
       <use xlink:href="#m565ab0f488" x="68.5" y="250.077384" style="stroke: #000000; stroke-width: 0.6"/>
      </g>
     </g>
    </g>
    <g id="ytick_6">
     <g id="line2d_12">
      <g>
       <use xlink:href="#m565ab0f488" x="68.5" y="241.213959" style="stroke: #000000; stroke-width: 0.6"/>
      </g>
     </g>
    </g>
    <g id="ytick_7">
     <g id="line2d_13">
      <g>
       <use xlink:href="#m565ab0f488" x="68.5" y="233.536112" style="stroke: #000000; stroke-width: 0.6"/>
      </g>
     </g>
    </g>
    <g id="ytick_8">
     <g id="line2d_14">
      <g>
       <use xlink:href="#m565ab0f488" x="68.5" y="226.763771" style="stroke: #000000; stroke-width: 0.6"/>
      </g>
     </g>
    </g>
    <g id="ytick_9">
     <g id="line2d_15">
      <g>
       <use xlink:href="#m565ab0f488" x="68.5" y="180.850822" style="stroke: #000000; stroke-width: 0.6"/>
      </g>
     </g>
    </g>
    <g id="ytick_10">
     <g id="line2d_16">
      <g>
       <use xlink:href="#m565ab0f488" x="68.5" y="157.537209" style="stroke: #000000; stroke-width: 0.6"/>
      </g>
     </g>
    </g>
    <g id="ytick_11">
     <g id="line2d_17">
      <g>
       <use xlink:href="#m565ab0f488" x="68.5" y="140.995938" style="stroke: #000000; stroke-width: 0.6"/>
      </g>
     </g>
    </g>
    <g id="ytick_12">
     <g id="line2d_18">
      <g>
       <use xlink:href="#m565ab0f488" x="68.5" y="128.165531" style="stroke: #000000; stroke-width: 0.6"/>
      </g>
     </g>
    </g>
    <g id="ytick_13">
     <g id="line2d_19">
      <g>
       <use xlink:href="#m565ab0f488" x="68.5" y="117.682325" style="stroke: #000000; stroke-width: 0.6"/>
      </g>
     </g>
    </g>
    <g id="ytick_14">
     <g id="line2d_20">
      <g>
       <use xlink:href="#m565ab0f488" x="68.5" y="108.818901" style="stroke: #000000; stroke-width: 0.6"/>
      </g>
     </g>
    </g>
    <g id="ytick_15">
     <g id="line2d_21">
      <g>
       <use xlink:href="#m565ab0f488" x="68.5" y="101.141054" style="stroke: #000000; stroke-width: 0.6"/>
      </g>
     </g>
    </g>
    <g id="ytick_16">
     <g id="line2d_22">
      <g>
       <use xlink:href="#m565ab0f488" x="68.5" y="94.368713" style="stroke: #000000; stroke-width: 0.6"/>
      </g>
     </g>
    </g>
    <g id="ytick_17">
     <g id="line2d_23">
      <g>
       <use xlink:href="#m565ab0f488" x="68.5" y="48.455763" style="stroke: #000000; stroke-width: 0.6"/>
      </g>
     </g>
    </g>
    <g id="ytick_18">
     <g id="line2d_24">
      <g>
       <use xlink:href="#m565ab0f488" x="68.5" y="25.142151" style="stroke: #000000; stroke-width: 0.6"/>
      </g>
     </g>
    </g>
    <g id="text_10">
     <!-- $\rho_{DM}$  [kg$\cdot$m$^{-3}$] -->
     <g transform="translate(25.4 223.374125) rotate(-90) scale(0.2 -0.2)">
      <defs>
       <path id="DejaVuSans-Oblique-3c1" d="M 1203 2875 
Q 1453 3194 1981 3475 
Q 2188 3584 2756 3584 
Q 3394 3584 3694 3078 
Q 3994 2572 3834 1747 
Q 3672 922 3175 415 
Q 2678 -91 2041 -91 
Q 1656 -91 1409 63 
Q 1163 213 1044 525 
L 681 -1331 
L 103 -1331 
L 697 1716 
Q 838 2438 1203 2875 
z
M 3238 1747 
Q 3359 2381 3169 2744 
Q 2978 3103 2522 3103 
Q 2066 3103 1734 2744 
Q 1403 2381 1281 1747 
Q 1156 1113 1347 750 
Q 1538 391 1994 391 
Q 2450 391 2781 750 
Q 3113 1113 3238 1747 
z
" transform="scale(0.015625)"/>
       <path id="DejaVuSans-Oblique-44" d="M 1081 4666 
L 2438 4666 
Q 3519 4666 4070 4208 
Q 4622 3750 4622 2847 
Q 4622 2250 4412 1698 
Q 4203 1147 3834 769 
Q 3463 381 2891 190 
Q 2319 0 1538 0 
L 172 0 
L 1081 4666 
z
M 1613 4147 
L 909 519 
L 1734 519 
Q 2794 519 3375 1128 
Q 3956 1738 3956 2847 
Q 3956 3519 3581 3833 
Q 3206 4147 2406 4147 
L 1613 4147 
z
" transform="scale(0.015625)"/>
       <path id="DejaVuSans-Oblique-4d" d="M 1081 4666 
L 2028 4666 
L 2572 1522 
L 4378 4666 
L 5350 4666 
L 4441 0 
L 3828 0 
L 4622 4091 
L 2791 897 
L 2175 897 
L 1581 4103 
L 788 0 
L 172 0 
L 1081 4666 
z
" transform="scale(0.015625)"/>
       <path id="DejaVuSans-67" d="M 2906 1791 
Q 2906 2416 2648 2759 
Q 2391 3103 1925 3103 
Q 1463 3103 1205 2759 
Q 947 2416 947 1791 
Q 947 1169 1205 825 
Q 1463 481 1925 481 
Q 2391 481 2648 825 
Q 2906 1169 2906 1791 
z
M 3481 434 
Q 3481 -459 3084 -895 
Q 2688 -1331 1869 -1331 
Q 1566 -1331 1297 -1286 
Q 1028 -1241 775 -1147 
L 775 -588 
Q 1028 -725 1275 -790 
Q 1522 -856 1778 -856 
Q 2344 -856 2625 -561 
Q 2906 -266 2906 331 
L 2906 616 
Q 2728 306 2450 153 
Q 2172 0 1784 0 
Q 1141 0 747 490 
Q 353 981 353 1791 
Q 353 2603 747 3093 
Q 1141 3584 1784 3584 
Q 2172 3584 2450 3431 
Q 2728 3278 2906 2969 
L 2906 3500 
L 3481 3500 
L 3481 434 
z
" transform="scale(0.015625)"/>
       <path id="DejaVuSans-22c5" d="M 684 2619 
L 1344 2619 
L 1344 1825 
L 684 1825 
L 684 2619 
z
" transform="scale(0.015625)"/>
       <path id="DejaVuSans-6d" d="M 3328 2828 
Q 3544 3216 3844 3400 
Q 4144 3584 4550 3584 
Q 5097 3584 5394 3201 
Q 5691 2819 5691 2113 
L 5691 0 
L 5113 0 
L 5113 2094 
Q 5113 2597 4934 2840 
Q 4756 3084 4391 3084 
Q 3944 3084 3684 2787 
Q 3425 2491 3425 1978 
L 3425 0 
L 2847 0 
L 2847 2094 
Q 2847 2600 2669 2842 
Q 2491 3084 2119 3084 
Q 1678 3084 1418 2786 
Q 1159 2488 1159 1978 
L 1159 0 
L 581 0 
L 581 3500 
L 1159 3500 
L 1159 2956 
Q 1356 3278 1631 3431 
Q 1906 3584 2284 3584 
Q 2666 3584 2933 3390 
Q 3200 3197 3328 2828 
z
" transform="scale(0.015625)"/>
       <path id="DejaVuSans-33" d="M 2597 2516 
Q 3050 2419 3304 2112 
Q 3559 1806 3559 1356 
Q 3559 666 3084 287 
Q 2609 -91 1734 -91 
Q 1441 -91 1130 -33 
Q 819 25 488 141 
L 488 750 
Q 750 597 1062 519 
Q 1375 441 1716 441 
Q 2309 441 2620 675 
Q 2931 909 2931 1356 
Q 2931 1769 2642 2001 
Q 2353 2234 1838 2234 
L 1294 2234 
L 1294 2753 
L 1863 2753 
Q 2328 2753 2575 2939 
Q 2822 3125 2822 3475 
Q 2822 3834 2567 4026 
Q 2313 4219 1838 4219 
Q 1578 4219 1281 4162 
Q 984 4106 628 3988 
L 628 4550 
Q 988 4650 1302 4700 
Q 1616 4750 1894 4750 
Q 2613 4750 3031 4423 
Q 3450 4097 3450 3541 
Q 3450 3153 3228 2886 
Q 3006 2619 2597 2516 
z
" transform="scale(0.015625)"/>
      </defs>
      <use xlink:href="#DejaVuSans-Oblique-3c1" transform="translate(0 0.765625)"/>
      <use xlink:href="#DejaVuSans-Oblique-44" transform="translate(63.476562 -15.640625) scale(0.7)"/>
      <use xlink:href="#DejaVuSans-Oblique-4d" transform="translate(117.37793 -15.640625) scale(0.7)"/>
      <use xlink:href="#DejaVuSans-20" transform="translate(180.507812 0.765625)"/>
      <use xlink:href="#DejaVuSans-20" transform="translate(212.294922 0.765625)"/>
      <use xlink:href="#DejaVuSans-5b" transform="translate(244.082031 0.765625)"/>
      <use xlink:href="#DejaVuSans-6b" transform="translate(283.095703 0.765625)"/>
      <use xlink:href="#DejaVuSans-67" transform="translate(341.005859 0.765625)"/>
      <use xlink:href="#DejaVuSans-22c5" transform="translate(404.482422 0.765625)"/>
      <use xlink:href="#DejaVuSans-6d" transform="translate(436.269531 0.765625)"/>
      <use xlink:href="#DejaVuSans-2212" transform="translate(534.638672 39.046875) scale(0.7)"/>
      <use xlink:href="#DejaVuSans-33" transform="translate(593.291016 39.046875) scale(0.7)"/>
      <use xlink:href="#DejaVuSans-5d" transform="translate(640.561523 0.765625)"/>
     </g>
    </g>
   </g>
   <g id="LineCollection_1">
    <path d="M 84.732727 41.443415 
L 84.732727 35.143072 
" clip-path="url(#p9b16b1b5e6)" style="fill: none; stroke: #808080; stroke-width: 0.7"/>
    <path d="M 91.35833 41.775062 
L 91.35833 39.389682 
" clip-path="url(#p9b16b1b5e6)" style="fill: none; stroke: #808080; stroke-width: 0.7"/>
    <path d="M 97.983933 53.082672 
L 97.983933 51.446971 
" clip-path="url(#p9b16b1b5e6)" style="fill: none; stroke: #808080; stroke-width: 0.7"/>
    <path d="M 104.609536 62.480929 
L 104.609536 61.210452 
" clip-path="url(#p9b16b1b5e6)" style="fill: none; stroke: #808080; stroke-width: 0.7"/>
    <path d="M 111.235139 71.751821 
L 111.235139 70.68542 
" clip-path="url(#p9b16b1b5e6)" style="fill: none; stroke: #808080; stroke-width: 0.7"/>
    <path d="M 117.860742 82.613717 
L 117.860742 81.64893 
" clip-path="url(#p9b16b1b5e6)" style="fill: none; stroke: #808080; stroke-width: 0.7"/>
    <path d="M 124.486345 92.80794 
L 124.486345 91.915561 
" clip-path="url(#p9b16b1b5e6)" style="fill: none; stroke: #808080; stroke-width: 0.7"/>
    <path d="M 131.111948 102.36877 
L 131.111948 101.53027 
" clip-path="url(#p9b16b1b5e6)" style="fill: none; stroke: #808080; stroke-width: 0.7"/>
    <path d="M 137.737551 111.756579 
L 137.737551 110.952823 
" clip-path="url(#p9b16b1b5e6)" style="fill: none; stroke: #808080; stroke-width: 0.7"/>
    <path d="M 144.363154 119.335093 
L 144.363154 118.565903 
" clip-path="url(#p9b16b1b5e6)" style="fill: none; stroke: #808080; stroke-width: 0.7"/>
    <path d="M 150.988757 126.939121 
L 150.988757 126.19518 
" clip-path="url(#p9b16b1b5e6)" style="fill: none; stroke: #808080; stroke-width: 0.7"/>
    <path d="M 157.61436 135.204094 
L 157.61436 134.474814 
" clip-path="url(#p9b16b1b5e6)" style="fill: none; stroke: #808080; stroke-width: 0.7"/>
    <path d="M 164.239963 143.090505 
L 164.239963 142.371496 
" clip-path="url(#p9b16b1b5e6)" style="fill: none; stroke: #808080; stroke-width: 0.7"/>
    <path d="M 170.865566 149.894399 
L 170.865566 149.189388 
" clip-path="url(#p9b16b1b5e6)" style="fill: none; stroke: #808080; stroke-width: 0.7"/>
    <path d="M 177.491169 155.420161 
L 177.491169 154.730175 
" clip-path="url(#p9b16b1b5e6)" style="fill: none; stroke: #808080; stroke-width: 0.7"/>
    <path d="M 184.116772 161.775231 
L 184.116772 161.093251 
" clip-path="url(#p9b16b1b5e6)" style="fill: none; stroke: #808080; stroke-width: 0.7"/>
    <path d="M 190.742375 167.429954 
L 190.742375 166.757062 
" clip-path="url(#p9b16b1b5e6)" style="fill: none; stroke: #808080; stroke-width: 0.7"/>
    <path d="M 197.367978 172.960496 
L 197.367978 172.295265 
" clip-path="url(#p9b16b1b5e6)" style="fill: none; stroke: #808080; stroke-width: 0.7"/>
    <path d="M 203.993581 178.19829 
L 203.993581 177.5392 
" clip-path="url(#p9b16b1b5e6)" style="fill: none; stroke: #808080; stroke-width: 0.7"/>
    <path d="M 210.619184 183.236008 
L 210.619184 182.582112 
" clip-path="url(#p9b16b1b5e6)" style="fill: none; stroke: #808080; stroke-width: 0.7"/>
    <path d="M 217.244787 188.280531 
L 217.244787 187.631035 
" clip-path="url(#p9b16b1b5e6)" style="fill: none; stroke: #808080; stroke-width: 0.7"/>
    <path d="M 223.87039 192.524829 
L 223.87039 191.881802 
" clip-path="url(#p9b16b1b5e6)" style="fill: none; stroke: #808080; stroke-width: 0.7"/>
    <path d="M 230.495993 197.104759 
L 230.495993 196.466208 
" clip-path="url(#p9b16b1b5e6)" style="fill: none; stroke: #808080; stroke-width: 0.7"/>
    <path d="M 237.121596 201.333126 
L 237.121596 200.699401 
" clip-path="url(#p9b16b1b5e6)" style="fill: none; stroke: #808080; stroke-width: 0.7"/>
    <path d="M 243.747199 205.367393 
L 243.747199 204.736894 
" clip-path="url(#p9b16b1b5e6)" style="fill: none; stroke: #808080; stroke-width: 0.7"/>
    <path d="M 250.372801 208.649211 
L 250.372801 208.02676 
" clip-path="url(#p9b16b1b5e6)" style="fill: none; stroke: #808080; stroke-width: 0.7"/>
    <path d="M 256.998404 212.67433 
L 256.998404 212.052151 
" clip-path="url(#p9b16b1b5e6)" style="fill: none; stroke: #808080; stroke-width: 0.7"/>
    <path d="M 263.624007 216.631665 
L 263.624007 216.013308 
" clip-path="url(#p9b16b1b5e6)" style="fill: none; stroke: #808080; stroke-width: 0.7"/>
    <path d="M 270.24961 220.108885 
L 270.24961 219.492182 
" clip-path="url(#p9b16b1b5e6)" style="fill: none; stroke: #808080; stroke-width: 0.7"/>
    <path d="M 276.875213 223.112923 
L 276.875213 222.502473 
" clip-path="url(#p9b16b1b5e6)" style="fill: none; stroke: #808080; stroke-width: 0.7"/>
    <path d="M 283.500816 226.350337 
L 283.500816 225.741695 
" clip-path="url(#p9b16b1b5e6)" style="fill: none; stroke: #808080; stroke-width: 0.7"/>
    <path d="M 290.126419 229.824593 
L 290.126419 229.218625 
" clip-path="url(#p9b16b1b5e6)" style="fill: none; stroke: #808080; stroke-width: 0.7"/>
    <path d="M 296.752022 233.168147 
L 296.752022 232.562258 
" clip-path="url(#p9b16b1b5e6)" style="fill: none; stroke: #808080; stroke-width: 0.7"/>
    <path d="M 303.377625 236.244562 
L 303.377625 235.64274 
" clip-path="url(#p9b16b1b5e6)" style="fill: none; stroke: #808080; stroke-width: 0.7"/>
    <path d="M 310.003228 238.793334 
L 310.003228 238.192789 
" clip-path="url(#p9b16b1b5e6)" style="fill: none; stroke: #808080; stroke-width: 0.7"/>
    <path d="M 316.628831 242.141561 
L 316.628831 241.542958 
" clip-path="url(#p9b16b1b5e6)" style="fill: none; stroke: #808080; stroke-width: 0.7"/>
    <path d="M 323.254434 244.955985 
L 323.254434 244.358632 
" clip-path="url(#p9b16b1b5e6)" style="fill: none; stroke: #808080; stroke-width: 0.7"/>
    <path d="M 329.880037 247.759942 
L 329.880037 247.165055 
" clip-path="url(#p9b16b1b5e6)" style="fill: none; stroke: #808080; stroke-width: 0.7"/>
    <path d="M 336.50564 249.966823 
L 336.50564 249.374963 
" clip-path="url(#p9b16b1b5e6)" style="fill: none; stroke: #808080; stroke-width: 0.7"/>
    <path d="M 343.131243 252.4002 
L 343.131243 251.811286 
" clip-path="url(#p9b16b1b5e6)" style="fill: none; stroke: #808080; stroke-width: 0.7"/>
    <path d="M 349.756846 255.266885 
L 349.756846 254.6785 
" clip-path="url(#p9b16b1b5e6)" style="fill: none; stroke: #808080; stroke-width: 0.7"/>
    <path d="M 356.382449 257.827281 
L 356.382449 257.238977 
" clip-path="url(#p9b16b1b5e6)" style="fill: none; stroke: #808080; stroke-width: 0.7"/>
    <path d="M 363.008052 260.451846 
L 363.008052 259.86576 
" clip-path="url(#p9b16b1b5e6)" style="fill: none; stroke: #808080; stroke-width: 0.7"/>
    <path d="M 369.633655 262.449995 
L 369.633655 261.866387 
" clip-path="url(#p9b16b1b5e6)" style="fill: none; stroke: #808080; stroke-width: 0.7"/>
    <path d="M 376.259258 264.950093 
L 376.259258 264.367131 
" clip-path="url(#p9b16b1b5e6)" style="fill: none; stroke: #808080; stroke-width: 0.7"/>
    <path d="M 382.884861 267.278284 
L 382.884861 266.696491 
" clip-path="url(#p9b16b1b5e6)" style="fill: none; stroke: #808080; stroke-width: 0.7"/>
    <path d="M 389.510464 269.749355 
L 389.510464 269.16792 
" clip-path="url(#p9b16b1b5e6)" style="fill: none; stroke: #808080; stroke-width: 0.7"/>
    <path d="M 396.136067 272.090561 
L 396.136067 271.509603 
" clip-path="url(#p9b16b1b5e6)" style="fill: none; stroke: #808080; stroke-width: 0.7"/>
    <path d="M 402.76167 273.818693 
L 402.76167 273.241201 
" clip-path="url(#p9b16b1b5e6)" style="fill: none; stroke: #808080; stroke-width: 0.7"/>
    <path d="M 409.387273 276.334125 
L 409.387273 275.755193 
" clip-path="url(#p9b16b1b5e6)" style="fill: none; stroke: #808080; stroke-width: 0.7"/>
   </g>
   <g id="line2d_25">
    <path d="M 84.732727 34.414125 
L 91.35833 42.075289 
L 97.983933 51.275516 
L 104.609536 61.435628 
L 111.235139 71.916631 
L 117.860742 82.286167 
L 124.486345 92.300185 
L 131.111948 101.841597 
L 137.737551 110.86895 
L 144.363154 119.382494 
L 150.988757 127.403833 
L 157.61436 134.964318 
L 164.239963 142.098663 
L 170.865566 148.841572 
L 177.491169 155.226044 
L 184.116772 161.28262 
L 190.742375 167.039139 
L 197.367978 172.52076 
L 203.993581 177.75011 
L 210.619184 182.747503 
L 217.244787 187.53116 
L 223.87039 192.117438 
L 230.495993 196.521036 
L 237.121596 200.755186 
L 243.747199 204.831823 
L 250.372801 208.761732 
L 256.998404 212.554685 
L 263.624007 216.219551 
L 270.24961 219.764402 
L 276.875213 223.196597 
L 283.500816 226.522864 
L 290.126419 229.749363 
L 296.752022 232.88175 
L 303.377625 235.925224 
L 310.003228 238.884578 
L 316.628831 241.764236 
L 323.254434 244.568289 
L 329.880037 247.30053 
L 336.50564 249.964477 
L 343.131243 252.563401 
L 349.756846 255.100348 
L 356.382449 257.578159 
L 363.008052 259.999486 
L 369.633655 262.36681 
L 376.259258 264.682454 
L 382.884861 266.948597 
L 389.510464 269.167285 
L 396.136067 271.34044 
L 402.76167 273.469872 
L 409.387273 275.557286 
" clip-path="url(#p9b16b1b5e6)" style="fill: none; stroke: #1f77b4; stroke-width: 1.5; stroke-linecap: square"/>
   </g>
   <g id="line2d_26">
    <defs>
     <path id="m7d11c5897a" d="M 0 0.25 
C 0.066301 0.25 0.129895 0.223658 0.176777 0.176777 
C 0.223658 0.129895 0.25 0.066301 0.25 0 
C 0.25 -0.066301 0.223658 -0.129895 0.176777 -0.176777 
C 0.129895 -0.223658 0.066301 -0.25 0 -0.25 
C -0.066301 -0.25 -0.129895 -0.223658 -0.176777 -0.176777 
C -0.223658 -0.129895 -0.25 -0.066301 -0.25 0 
C -0.25 0.066301 -0.223658 0.129895 -0.176777 0.176777 
C -0.129895 0.223658 -0.066301 0.25 0 0.25 
z
" style="stroke: #0000ff"/>
    </defs>
    <g clip-path="url(#p9b16b1b5e6)">
     <use xlink:href="#m7d11c5897a" x="84.732727" y="38.206992" style="fill: #0000ff; stroke: #0000ff"/>
     <use xlink:href="#m7d11c5897a" x="91.35833" y="40.570003" style="fill: #0000ff; stroke: #0000ff"/>
     <use xlink:href="#m7d11c5897a" x="97.983933" y="52.259005" style="fill: #0000ff; stroke: #0000ff"/>
     <use xlink:href="#m7d11c5897a" x="104.609536" y="61.842182" style="fill: #0000ff; stroke: #0000ff"/>
     <use xlink:href="#m7d11c5897a" x="111.235139" y="71.216148" style="fill: #0000ff; stroke: #0000ff"/>
     <use xlink:href="#m7d11c5897a" x="117.860742" y="82.1293" style="fill: #0000ff; stroke: #0000ff"/>
     <use xlink:href="#m7d11c5897a" x="124.486345" y="92.36002" style="fill: #0000ff; stroke: #0000ff"/>
     <use xlink:href="#m7d11c5897a" x="131.111948" y="101.947992" style="fill: #0000ff; stroke: #0000ff"/>
     <use xlink:href="#m7d11c5897a" x="137.737551" y="111.353296" style="fill: #0000ff; stroke: #0000ff"/>
     <use xlink:href="#m7d11c5897a" x="144.363154" y="118.949211" style="fill: #0000ff; stroke: #0000ff"/>
     <use xlink:href="#m7d11c5897a" x="150.988757" y="126.565947" style="fill: #0000ff; stroke: #0000ff"/>
     <use xlink:href="#m7d11c5897a" x="157.61436" y="134.838298" style="fill: #0000ff; stroke: #0000ff"/>
     <use xlink:href="#m7d11c5897a" x="164.239963" y="142.729877" style="fill: #0000ff; stroke: #0000ff"/>
     <use xlink:href="#m7d11c5897a" x="170.865566" y="149.540813" style="fill: #0000ff; stroke: #0000ff"/>
     <use xlink:href="#m7d11c5897a" x="177.491169" y="155.074133" style="fill: #0000ff; stroke: #0000ff"/>
     <use xlink:href="#m7d11c5897a" x="184.116772" y="161.43323" style="fill: #0000ff; stroke: #0000ff"/>
     <use xlink:href="#m7d11c5897a" x="190.742375" y="167.092524" style="fill: #0000ff; stroke: #0000ff"/>
     <use xlink:href="#m7d11c5897a" x="197.367978" y="172.626919" style="fill: #0000ff; stroke: #0000ff"/>
     <use xlink:href="#m7d11c5897a" x="203.993581" y="177.8678" style="fill: #0000ff; stroke: #0000ff"/>
     <use xlink:href="#m7d11c5897a" x="210.619184" y="182.90813" style="fill: #0000ff; stroke: #0000ff"/>
     <use xlink:href="#m7d11c5897a" x="217.244787" y="187.954866" style="fill: #0000ff; stroke: #0000ff"/>
     <use xlink:href="#m7d11c5897a" x="223.87039" y="192.202417" style="fill: #0000ff; stroke: #0000ff"/>
     <use xlink:href="#m7d11c5897a" x="230.495993" y="196.784597" style="fill: #0000ff; stroke: #0000ff"/>
     <use xlink:href="#m7d11c5897a" x="237.121596" y="201.01539" style="fill: #0000ff; stroke: #0000ff"/>
     <use xlink:href="#m7d11c5897a" x="243.747199" y="205.051279" style="fill: #0000ff; stroke: #0000ff"/>
     <use xlink:href="#m7d11c5897a" x="250.372801" y="208.337143" style="fill: #0000ff; stroke: #0000ff"/>
     <use xlink:href="#m7d11c5897a" x="256.998404" y="212.362399" style="fill: #0000ff; stroke: #0000ff"/>
     <use xlink:href="#m7d11c5897a" x="263.624007" y="216.321655" style="fill: #0000ff; stroke: #0000ff"/>
     <use xlink:href="#m7d11c5897a" x="270.24961" y="219.799707" style="fill: #0000ff; stroke: #0000ff"/>
     <use xlink:href="#m7d11c5897a" x="276.875213" y="222.806888" style="fill: #0000ff; stroke: #0000ff"/>
     <use xlink:href="#m7d11c5897a" x="283.500816" y="226.045211" style="fill: #0000ff; stroke: #0000ff"/>
     <use xlink:href="#m7d11c5897a" x="290.126419" y="229.52081" style="fill: #0000ff; stroke: #0000ff"/>
     <use xlink:href="#m7d11c5897a" x="296.752022" y="232.864404" style="fill: #0000ff; stroke: #0000ff"/>
     <use xlink:href="#m7d11c5897a" x="303.377625" y="235.942863" style="fill: #0000ff; stroke: #0000ff"/>
     <use xlink:href="#m7d11c5897a" x="310.003228" y="238.492278" style="fill: #0000ff; stroke: #0000ff"/>
     <use xlink:href="#m7d11c5897a" x="316.628831" y="241.84148" style="fill: #0000ff; stroke: #0000ff"/>
     <use xlink:href="#m7d11c5897a" x="323.254434" y="244.656532" style="fill: #0000ff; stroke: #0000ff"/>
     <use xlink:href="#m7d11c5897a" x="329.880037" y="247.461729" style="fill: #0000ff; stroke: #0000ff"/>
     <use xlink:href="#m7d11c5897a" x="336.50564" y="249.670131" style="fill: #0000ff; stroke: #0000ff"/>
     <use xlink:href="#m7d11c5897a" x="343.131243" y="252.104989" style="fill: #0000ff; stroke: #0000ff"/>
     <use xlink:href="#m7d11c5897a" x="349.756846" y="254.97194" style="fill: #0000ff; stroke: #0000ff"/>
     <use xlink:href="#m7d11c5897a" x="356.382449" y="257.532377" style="fill: #0000ff; stroke: #0000ff"/>
     <use xlink:href="#m7d11c5897a" x="363.008052" y="260.158057" style="fill: #0000ff; stroke: #0000ff"/>
     <use xlink:href="#m7d11c5897a" x="369.633655" y="262.157451" style="fill: #0000ff; stroke: #0000ff"/>
     <use xlink:href="#m7d11c5897a" x="376.259258" y="264.657873" style="fill: #0000ff; stroke: #0000ff"/>
     <use xlink:href="#m7d11c5897a" x="382.884861" y="266.986652" style="fill: #0000ff; stroke: #0000ff"/>
     <use xlink:href="#m7d11c5897a" x="389.510464" y="269.457903" style="fill: #0000ff; stroke: #0000ff"/>
     <use xlink:href="#m7d11c5897a" x="396.136067" y="271.799348" style="fill: #0000ff; stroke: #0000ff"/>
     <use xlink:href="#m7d11c5897a" x="402.76167" y="273.529222" style="fill: #0000ff; stroke: #0000ff"/>
     <use xlink:href="#m7d11c5897a" x="409.387273" y="276.043931" style="fill: #0000ff; stroke: #0000ff"/>
    </g>
   </g>
   <g id="patch_3">
    <path d="M 68.5 288.430125 
L 68.5 22.318125 
" style="fill: none; stroke: #000000; stroke-width: 0.8; stroke-linejoin: miter; stroke-linecap: square"/>
   </g>
   <g id="patch_4">
    <path d="M 425.62 288.430125 
L 425.62 22.318125 
" style="fill: none; stroke: #000000; stroke-width: 0.8; stroke-linejoin: miter; stroke-linecap: square"/>
   </g>
   <g id="patch_5">
    <path d="M 68.5 288.430125 
L 425.62 288.430125 
" style="fill: none; stroke: #000000; stroke-width: 0.8; stroke-linejoin: miter; stroke-linecap: square"/>
   </g>
   <g id="patch_6">
    <path d="M 68.5 22.318125 
L 425.62 22.318125 
" style="fill: none; stroke: #000000; stroke-width: 0.8; stroke-linejoin: miter; stroke-linecap: square"/>
   </g>
   <g id="text_11">
    <!-- Density Distribution, gNFW -->
    <g transform="translate(165.845313 16.318125) scale(0.12 -0.12)">
     <defs>
      <path id="DejaVuSans-44" d="M 1259 4147 
L 1259 519 
L 2022 519 
Q 2988 519 3436 956 
Q 3884 1394 3884 2338 
Q 3884 3275 3436 3711 
Q 2988 4147 2022 4147 
L 1259 4147 
z
M 628 4666 
L 1925 4666 
Q 3281 4666 3915 4102 
Q 4550 3538 4550 2338 
Q 4550 1131 3912 565 
Q 3275 0 1925 0 
L 628 0 
L 628 4666 
z
" transform="scale(0.015625)"/>
      <path id="DejaVuSans-65" d="M 3597 1894 
L 3597 1613 
L 953 1613 
Q 991 1019 1311 708 
Q 1631 397 2203 397 
Q 2534 397 2845 478 
Q 3156 559 3463 722 
L 3463 178 
Q 3153 47 2828 -22 
Q 2503 -91 2169 -91 
Q 1331 -91 842 396 
Q 353 884 353 1716 
Q 353 2575 817 3079 
Q 1281 3584 2069 3584 
Q 2775 3584 3186 3129 
Q 3597 2675 3597 1894 
z
M 3022 2063 
Q 3016 2534 2758 2815 
Q 2500 3097 2075 3097 
Q 1594 3097 1305 2825 
Q 1016 2553 972 2059 
L 3022 2063 
z
" transform="scale(0.015625)"/>
      <path id="DejaVuSans-6e" d="M 3513 2113 
L 3513 0 
L 2938 0 
L 2938 2094 
Q 2938 2591 2744 2837 
Q 2550 3084 2163 3084 
Q 1697 3084 1428 2787 
Q 1159 2491 1159 1978 
L 1159 0 
L 581 0 
L 581 3500 
L 1159 3500 
L 1159 2956 
Q 1366 3272 1645 3428 
Q 1925 3584 2291 3584 
Q 2894 3584 3203 3211 
Q 3513 2838 3513 2113 
z
" transform="scale(0.015625)"/>
      <path id="DejaVuSans-73" d="M 2834 3397 
L 2834 2853 
Q 2591 2978 2328 3040 
Q 2066 3103 1784 3103 
Q 1356 3103 1142 2972 
Q 928 2841 928 2578 
Q 928 2378 1081 2264 
Q 1234 2150 1697 2047 
L 1894 2003 
Q 2506 1872 2764 1633 
Q 3022 1394 3022 966 
Q 3022 478 2636 193 
Q 2250 -91 1575 -91 
Q 1294 -91 989 -36 
Q 684 19 347 128 
L 347 722 
Q 666 556 975 473 
Q 1284 391 1588 391 
Q 1994 391 2212 530 
Q 2431 669 2431 922 
Q 2431 1156 2273 1281 
Q 2116 1406 1581 1522 
L 1381 1569 
Q 847 1681 609 1914 
Q 372 2147 372 2553 
Q 372 3047 722 3315 
Q 1072 3584 1716 3584 
Q 2034 3584 2315 3537 
Q 2597 3491 2834 3397 
z
" transform="scale(0.015625)"/>
      <path id="DejaVuSans-69" d="M 603 3500 
L 1178 3500 
L 1178 0 
L 603 0 
L 603 3500 
z
M 603 4863 
L 1178 4863 
L 1178 4134 
L 603 4134 
L 603 4863 
z
" transform="scale(0.015625)"/>
      <path id="DejaVuSans-74" d="M 1172 4494 
L 1172 3500 
L 2356 3500 
L 2356 3053 
L 1172 3053 
L 1172 1153 
Q 1172 725 1289 603 
Q 1406 481 1766 481 
L 2356 481 
L 2356 0 
L 1766 0 
Q 1100 0 847 248 
Q 594 497 594 1153 
L 594 3053 
L 172 3053 
L 172 3500 
L 594 3500 
L 594 4494 
L 1172 4494 
z
" transform="scale(0.015625)"/>
      <path id="DejaVuSans-79" d="M 2059 -325 
Q 1816 -950 1584 -1140 
Q 1353 -1331 966 -1331 
L 506 -1331 
L 506 -850 
L 844 -850 
Q 1081 -850 1212 -737 
Q 1344 -625 1503 -206 
L 1606 56 
L 191 3500 
L 800 3500 
L 1894 763 
L 2988 3500 
L 3597 3500 
L 2059 -325 
z
" transform="scale(0.015625)"/>
      <path id="DejaVuSans-72" d="M 2631 2963 
Q 2534 3019 2420 3045 
Q 2306 3072 2169 3072 
Q 1681 3072 1420 2755 
Q 1159 2438 1159 1844 
L 1159 0 
L 581 0 
L 581 3500 
L 1159 3500 
L 1159 2956 
Q 1341 3275 1631 3429 
Q 1922 3584 2338 3584 
Q 2397 3584 2469 3576 
Q 2541 3569 2628 3553 
L 2631 2963 
z
" transform="scale(0.015625)"/>
      <path id="DejaVuSans-62" d="M 3116 1747 
Q 3116 2381 2855 2742 
Q 2594 3103 2138 3103 
Q 1681 3103 1420 2742 
Q 1159 2381 1159 1747 
Q 1159 1113 1420 752 
Q 1681 391 2138 391 
Q 2594 391 2855 752 
Q 3116 1113 3116 1747 
z
M 1159 2969 
Q 1341 3281 1617 3432 
Q 1894 3584 2278 3584 
Q 2916 3584 3314 3078 
Q 3713 2572 3713 1747 
Q 3713 922 3314 415 
Q 2916 -91 2278 -91 
Q 1894 -91 1617 61 
Q 1341 213 1159 525 
L 1159 0 
L 581 0 
L 581 4863 
L 1159 4863 
L 1159 2969 
z
" transform="scale(0.015625)"/>
      <path id="DejaVuSans-75" d="M 544 1381 
L 544 3500 
L 1119 3500 
L 1119 1403 
Q 1119 906 1312 657 
Q 1506 409 1894 409 
Q 2359 409 2629 706 
Q 2900 1003 2900 1516 
L 2900 3500 
L 3475 3500 
L 3475 0 
L 2900 0 
L 2900 538 
Q 2691 219 2414 64 
Q 2138 -91 1772 -91 
Q 1169 -91 856 284 
Q 544 659 544 1381 
z
M 1991 3584 
L 1991 3584 
z
" transform="scale(0.015625)"/>
      <path id="DejaVuSans-6f" d="M 1959 3097 
Q 1497 3097 1228 2736 
Q 959 2375 959 1747 
Q 959 1119 1226 758 
Q 1494 397 1959 397 
Q 2419 397 2687 759 
Q 2956 1122 2956 1747 
Q 2956 2369 2687 2733 
Q 2419 3097 1959 3097 
z
M 1959 3584 
Q 2709 3584 3137 3096 
Q 3566 2609 3566 1747 
Q 3566 888 3137 398 
Q 2709 -91 1959 -91 
Q 1206 -91 779 398 
Q 353 888 353 1747 
Q 353 2609 779 3096 
Q 1206 3584 1959 3584 
z
" transform="scale(0.015625)"/>
      <path id="DejaVuSans-2c" d="M 750 794 
L 1409 794 
L 1409 256 
L 897 -744 
L 494 -744 
L 750 256 
L 750 794 
z
" transform="scale(0.015625)"/>
      <path id="DejaVuSans-4e" d="M 628 4666 
L 1478 4666 
L 3547 763 
L 3547 4666 
L 4159 4666 
L 4159 0 
L 3309 0 
L 1241 3903 
L 1241 0 
L 628 0 
L 628 4666 
z
" transform="scale(0.015625)"/>
      <path id="DejaVuSans-46" d="M 628 4666 
L 3309 4666 
L 3309 4134 
L 1259 4134 
L 1259 2759 
L 3109 2759 
L 3109 2228 
L 1259 2228 
L 1259 0 
L 628 0 
L 628 4666 
z
" transform="scale(0.015625)"/>
      <path id="DejaVuSans-57" d="M 213 4666 
L 850 4666 
L 1831 722 
L 2809 4666 
L 3519 4666 
L 4500 722 
L 5478 4666 
L 6119 4666 
L 4947 0 
L 4153 0 
L 3169 4050 
L 2175 0 
L 1381 0 
L 213 4666 
z
" transform="scale(0.015625)"/>
     </defs>
     <use xlink:href="#DejaVuSans-44"/>
     <use xlink:href="#DejaVuSans-65" x="77.001953"/>
     <use xlink:href="#DejaVuSans-6e" x="138.525391"/>
     <use xlink:href="#DejaVuSans-73" x="201.904297"/>
     <use xlink:href="#DejaVuSans-69" x="254.003906"/>
     <use xlink:href="#DejaVuSans-74" x="281.787109"/>
     <use xlink:href="#DejaVuSans-79" x="320.996094"/>
     <use xlink:href="#DejaVuSans-20" x="380.175781"/>
     <use xlink:href="#DejaVuSans-44" x="411.962891"/>
     <use xlink:href="#DejaVuSans-69" x="488.964844"/>
     <use xlink:href="#DejaVuSans-73" x="516.748047"/>
     <use xlink:href="#DejaVuSans-74" x="568.847656"/>
     <use xlink:href="#DejaVuSans-72" x="608.056641"/>
     <use xlink:href="#DejaVuSans-69" x="649.169922"/>
     <use xlink:href="#DejaVuSans-62" x="676.953125"/>
     <use xlink:href="#DejaVuSans-75" x="740.429688"/>
     <use xlink:href="#DejaVuSans-74" x="803.808594"/>
     <use xlink:href="#DejaVuSans-69" x="843.017578"/>
     <use xlink:href="#DejaVuSans-6f" x="870.800781"/>
     <use xlink:href="#DejaVuSans-6e" x="931.982422"/>
     <use xlink:href="#DejaVuSans-2c" x="995.361328"/>
     <use xlink:href="#DejaVuSans-20" x="1027.148438"/>
     <use xlink:href="#DejaVuSans-67" x="1058.935547"/>
     <use xlink:href="#DejaVuSans-4e" x="1122.412109"/>
     <use xlink:href="#DejaVuSans-46" x="1197.216797"/>
     <use xlink:href="#DejaVuSans-57" x="1254.736328"/>
    </g>
   </g>
  </g>
 </g>
 <defs>
  <clipPath id="p9b16b1b5e6">
   <rect x="68.5" y="22.318125" width="357.12" height="266.112"/>
  </clipPath>
 </defs>
</svg>
