<?xml version="1.0" encoding="utf-8" standalone="no"?>
<!DOCTYPE svg PUBLIC "-//W3C//DTD SVG 1.1//EN"
  "http://www.w3.org/Graphics/SVG/1.1/DTD/svg11.dtd">
<svg xmlns:xlink="http://www.w3.org/1999/xlink" width="432.82pt" height="335.6645pt" viewBox="0 0 432.82 335.6645" xmlns="http://www.w3.org/2000/svg" version="1.1">
 <metadata>
  <rdf:RDF xmlns:dc="http://purl.org/dc/elements/1.1/" xmlns:cc="http://creativecommons.org/ns#" xmlns:rdf="http://www.w3.org/1999/02/22-rdf-syntax-ns#">
   <cc:Work>
    <dc:type rdf:resource="http://purl.org/dc/dcmitype/StillImage"/>
    <dc:date>2024-02-29T10:04:22.931336</dc:date>
    <dc:format>image/svg+xml</dc:format>
    <dc:creator>
     <cc:Agent>
      <dc:title>Matplotlib v3.8.2, https://matplotlib.org/</dc:title>
     </cc:Agent>
    </dc:creator>
   </cc:Work>
  </rdf:RDF>
 </metadata>
 <defs>
  <style type="text/css">*{stroke-linejoin: round; stroke-linecap: butt}</style>
 </defs>
 <g id="figure_1">
  <g id="patch_1">
   <path d="M 0 335.6645 
L 432.82 335.6645 
L 432.82 0 
L 0 0 
z
" style="fill: #ffffff"/>
  </g>
  <g id="axes_1">
   <g id="patch_2">
    <path d="M 68.5 288.430125 
L 425.62 288.430125 
L 425.62 22.318125 
L 68.5 22.318125 
z
" style="fill: #ffffff"/>
   </g>
   <g id="matplotlib.axis_1">
    <g id="xtick_1">
     <g id="line2d_1">
      <defs>
       <path id="m7a3b5131ee" d="M 0 0 
L 0 3.5 
" style="stroke: #000000; stroke-width: 0.8"/>
      </defs>
      <g>
       <use xlink:href="#m7a3b5131ee" x="81.453388" y="288.430125" style="stroke: #000000; stroke-width: 0.8"/>
      </g>
     </g>
     <g id="text_1">
      <!-- 0 -->
      <g transform="translate(78.272138 303.028562) scale(0.1 -0.1)">
       <defs>
        <path id="DejaVuSans-30" d="M 2034 4250 
Q 1547 4250 1301 3770 
Q 1056 3291 1056 2328 
Q 1056 1369 1301 889 
Q 1547 409 2034 409 
Q 2525 409 2770 889 
Q 3016 1369 3016 2328 
Q 3016 3291 2770 3770 
Q 2525 4250 2034 4250 
z
M 2034 4750 
Q 2819 4750 3233 4129 
Q 3647 3509 3647 2328 
Q 3647 1150 3233 529 
Q 2819 -91 2034 -91 
Q 1250 -91 836 529 
Q 422 1150 422 2328 
Q 422 3509 836 4129 
Q 1250 4750 2034 4750 
z
" transform="scale(0.015625)"/>
       </defs>
       <use xlink:href="#DejaVuSans-30"/>
      </g>
     </g>
    </g>
    <g id="xtick_2">
     <g id="line2d_2">
      <g>
       <use xlink:href="#m7a3b5131ee" x="147.040165" y="288.430125" style="stroke: #000000; stroke-width: 0.8"/>
      </g>
     </g>
     <g id="text_2">
      <!-- 2 -->
      <g transform="translate(143.858915 303.028562) scale(0.1 -0.1)">
       <defs>
        <path id="DejaVuSans-32" d="M 1228 531 
L 3431 531 
L 3431 0 
L 469 0 
L 469 531 
Q 828 903 1448 1529 
Q 2069 2156 2228 2338 
Q 2531 2678 2651 2914 
Q 2772 3150 2772 3378 
Q 2772 3750 2511 3984 
Q 2250 4219 1831 4219 
Q 1534 4219 1204 4116 
Q 875 4013 500 3803 
L 500 4441 
Q 881 4594 1212 4672 
Q 1544 4750 1819 4750 
Q 2544 4750 2975 4387 
Q 3406 4025 3406 3419 
Q 3406 3131 3298 2873 
Q 3191 2616 2906 2266 
Q 2828 2175 2409 1742 
Q 1991 1309 1228 531 
z
" transform="scale(0.015625)"/>
       </defs>
       <use xlink:href="#DejaVuSans-32"/>
      </g>
     </g>
    </g>
    <g id="xtick_3">
     <g id="line2d_3">
      <g>
       <use xlink:href="#m7a3b5131ee" x="212.626942" y="288.430125" style="stroke: #000000; stroke-width: 0.8"/>
      </g>
     </g>
     <g id="text_3">
      <!-- 4 -->
      <g transform="translate(209.445692 303.028562) scale(0.1 -0.1)">
       <defs>
        <path id="DejaVuSans-34" d="M 2419 4116 
L 825 1625 
L 2419 1625 
L 2419 4116 
z
M 2253 4666 
L 3047 4666 
L 3047 1625 
L 3713 1625 
L 3713 1100 
L 3047 1100 
L 3047 0 
L 2419 0 
L 2419 1100 
L 313 1100 
L 313 1709 
L 2253 4666 
z
" transform="scale(0.015625)"/>
       </defs>
       <use xlink:href="#DejaVuSans-34"/>
      </g>
     </g>
    </g>
    <g id="xtick_4">
     <g id="line2d_4">
      <g>
       <use xlink:href="#m7a3b5131ee" x="278.213719" y="288.430125" style="stroke: #000000; stroke-width: 0.8"/>
      </g>
     </g>
     <g id="text_4">
      <!-- 6 -->
      <g transform="translate(275.032469 303.028562) scale(0.1 -0.1)">
       <defs>
        <path id="DejaVuSans-36" d="M 2113 2584 
Q 1688 2584 1439 2293 
Q 1191 2003 1191 1497 
Q 1191 994 1439 701 
Q 1688 409 2113 409 
Q 2538 409 2786 701 
Q 3034 994 3034 1497 
Q 3034 2003 2786 2293 
Q 2538 2584 2113 2584 
z
M 3366 4563 
L 3366 3988 
Q 3128 4100 2886 4159 
Q 2644 4219 2406 4219 
Q 1781 4219 1451 3797 
Q 1122 3375 1075 2522 
Q 1259 2794 1537 2939 
Q 1816 3084 2150 3084 
Q 2853 3084 3261 2657 
Q 3669 2231 3669 1497 
Q 3669 778 3244 343 
Q 2819 -91 2113 -91 
Q 1303 -91 875 529 
Q 447 1150 447 2328 
Q 447 3434 972 4092 
Q 1497 4750 2381 4750 
Q 2619 4750 2861 4703 
Q 3103 4656 3366 4563 
z
" transform="scale(0.015625)"/>
       </defs>
       <use xlink:href="#DejaVuSans-36"/>
      </g>
     </g>
    </g>
    <g id="xtick_5">
     <g id="line2d_5">
      <g>
       <use xlink:href="#m7a3b5131ee" x="343.800496" y="288.430125" style="stroke: #000000; stroke-width: 0.8"/>
      </g>
     </g>
     <g id="text_5">
      <!-- 8 -->
      <g transform="translate(340.619246 303.028562) scale(0.1 -0.1)">
       <defs>
        <path id="DejaVuSans-38" d="M 2034 2216 
Q 1584 2216 1326 1975 
Q 1069 1734 1069 1313 
Q 1069 891 1326 650 
Q 1584 409 2034 409 
Q 2484 409 2743 651 
Q 3003 894 3003 1313 
Q 3003 1734 2745 1975 
Q 2488 2216 2034 2216 
z
M 1403 2484 
Q 997 2584 770 2862 
Q 544 3141 544 3541 
Q 544 4100 942 4425 
Q 1341 4750 2034 4750 
Q 2731 4750 3128 4425 
Q 3525 4100 3525 3541 
Q 3525 3141 3298 2862 
Q 3072 2584 2669 2484 
Q 3125 2378 3379 2068 
Q 3634 1759 3634 1313 
Q 3634 634 3220 271 
Q 2806 -91 2034 -91 
Q 1263 -91 848 271 
Q 434 634 434 1313 
Q 434 1759 690 2068 
Q 947 2378 1403 2484 
z
M 1172 3481 
Q 1172 3119 1398 2916 
Q 1625 2713 2034 2713 
Q 2441 2713 2670 2916 
Q 2900 3119 2900 3481 
Q 2900 3844 2670 4047 
Q 2441 4250 2034 4250 
Q 1625 4250 1398 4047 
Q 1172 3844 1172 3481 
z
" transform="scale(0.015625)"/>
       </defs>
       <use xlink:href="#DejaVuSans-38"/>
      </g>
     </g>
    </g>
    <g id="xtick_6">
     <g id="line2d_6">
      <g>
       <use xlink:href="#m7a3b5131ee" x="409.387273" y="288.430125" style="stroke: #000000; stroke-width: 0.8"/>
      </g>
     </g>
     <g id="text_6">
      <!-- 10 -->
      <g transform="translate(403.024773 303.028562) scale(0.1 -0.1)">
       <defs>
        <path id="DejaVuSans-31" d="M 794 531 
L 1825 531 
L 1825 4091 
L 703 3866 
L 703 4441 
L 1819 4666 
L 2450 4666 
L 2450 531 
L 3481 531 
L 3481 0 
L 794 0 
L 794 531 
z
" transform="scale(0.015625)"/>
       </defs>
       <use xlink:href="#DejaVuSans-31"/>
       <use xlink:href="#DejaVuSans-30" x="63.623047"/>
      </g>
     </g>
    </g>
    <g id="text_7">
     <!-- R [kpc] -->
     <g transform="translate(211.492813 324.305125) scale(0.2 -0.2)">
      <defs>
       <path id="DejaVuSans-52" d="M 2841 2188 
Q 3044 2119 3236 1894 
Q 3428 1669 3622 1275 
L 4263 0 
L 3584 0 
L 2988 1197 
Q 2756 1666 2539 1819 
Q 2322 1972 1947 1972 
L 1259 1972 
L 1259 0 
L 628 0 
L 628 4666 
L 2053 4666 
Q 2853 4666 3247 4331 
Q 3641 3997 3641 3322 
Q 3641 2881 3436 2590 
Q 3231 2300 2841 2188 
z
M 1259 4147 
L 1259 2491 
L 2053 2491 
Q 2509 2491 2742 2702 
Q 2975 2913 2975 3322 
Q 2975 3731 2742 3939 
Q 2509 4147 2053 4147 
L 1259 4147 
z
" transform="scale(0.015625)"/>
       <path id="DejaVuSans-20" transform="scale(0.015625)"/>
       <path id="DejaVuSans-5b" d="M 550 4863 
L 1875 4863 
L 1875 4416 
L 1125 4416 
L 1125 -397 
L 1875 -397 
L 1875 -844 
L 550 -844 
L 550 4863 
z
" transform="scale(0.015625)"/>
       <path id="DejaVuSans-6b" d="M 581 4863 
L 1159 4863 
L 1159 1991 
L 2875 3500 
L 3609 3500 
L 1753 1863 
L 3688 0 
L 2938 0 
L 1159 1709 
L 1159 0 
L 581 0 
L 581 4863 
z
" transform="scale(0.015625)"/>
       <path id="DejaVuSans-70" d="M 1159 525 
L 1159 -1331 
L 581 -1331 
L 581 3500 
L 1159 3500 
L 1159 2969 
Q 1341 3281 1617 3432 
Q 1894 3584 2278 3584 
Q 2916 3584 3314 3078 
Q 3713 2572 3713 1747 
Q 3713 922 3314 415 
Q 2916 -91 2278 -91 
Q 1894 -91 1617 61 
Q 1341 213 1159 525 
z
M 3116 1747 
Q 3116 2381 2855 2742 
Q 2594 3103 2138 3103 
Q 1681 3103 1420 2742 
Q 1159 2381 1159 1747 
Q 1159 1113 1420 752 
Q 1681 391 2138 391 
Q 2594 391 2855 752 
Q 3116 1113 3116 1747 
z
" transform="scale(0.015625)"/>
       <path id="DejaVuSans-63" d="M 3122 3366 
L 3122 2828 
Q 2878 2963 2633 3030 
Q 2388 3097 2138 3097 
Q 1578 3097 1268 2742 
Q 959 2388 959 1747 
Q 959 1106 1268 751 
Q 1578 397 2138 397 
Q 2388 397 2633 464 
Q 2878 531 3122 666 
L 3122 134 
Q 2881 22 2623 -34 
Q 2366 -91 2075 -91 
Q 1284 -91 818 406 
Q 353 903 353 1747 
Q 353 2603 823 3093 
Q 1294 3584 2113 3584 
Q 2378 3584 2631 3529 
Q 2884 3475 3122 3366 
z
" transform="scale(0.015625)"/>
       <path id="DejaVuSans-5d" d="M 1947 4863 
L 1947 -844 
L 622 -844 
L 622 -397 
L 1369 -397 
L 1369 4416 
L 622 4416 
L 622 4863 
L 1947 4863 
z
" transform="scale(0.015625)"/>
      </defs>
      <use xlink:href="#DejaVuSans-52"/>
      <use xlink:href="#DejaVuSans-20" x="69.482422"/>
      <use xlink:href="#DejaVuSans-5b" x="101.269531"/>
      <use xlink:href="#DejaVuSans-6b" x="140.283203"/>
      <use xlink:href="#DejaVuSans-70" x="198.193359"/>
      <use xlink:href="#DejaVuSans-63" x="261.669922"/>
      <use xlink:href="#DejaVuSans-5d" x="316.650391"/>
     </g>
    </g>
   </g>
   <g id="matplotlib.axis_2">
    <g id="ytick_1">
     <g id="line2d_7">
      <defs>
       <path id="m43058f8bb9" d="M 0 0 
L -3.5 0 
" style="stroke: #000000; stroke-width: 0.8"/>
      </defs>
      <g>
       <use xlink:href="#m43058f8bb9" x="68.5" y="259.914455" style="stroke: #000000; stroke-width: 0.8"/>
      </g>
     </g>
     <g id="text_8">
      <!-- $\mathdefault{10^{-34}}$ -->
      <g transform="translate(33.6 263.713674) scale(0.1 -0.1)">
       <defs>
        <path id="DejaVuSans-2212" d="M 678 2272 
L 4684 2272 
L 4684 1741 
L 678 1741 
L 678 2272 
z
" transform="scale(0.015625)"/>
        <path id="DejaVuSans-33" d="M 2597 2516 
Q 3050 2419 3304 2112 
Q 3559 1806 3559 1356 
Q 3559 666 3084 287 
Q 2609 -91 1734 -91 
Q 1441 -91 1130 -33 
Q 819 25 488 141 
L 488 750 
Q 750 597 1062 519 
Q 1375 441 1716 441 
Q 2309 441 2620 675 
Q 2931 909 2931 1356 
Q 2931 1769 2642 2001 
Q 2353 2234 1838 2234 
L 1294 2234 
L 1294 2753 
L 1863 2753 
Q 2328 2753 2575 2939 
Q 2822 3125 2822 3475 
Q 2822 3834 2567 4026 
Q 2313 4219 1838 4219 
Q 1578 4219 1281 4162 
Q 984 4106 628 3988 
L 628 4550 
Q 988 4650 1302 4700 
Q 1616 4750 1894 4750 
Q 2613 4750 3031 4423 
Q 3450 4097 3450 3541 
Q 3450 3153 3228 2886 
Q 3006 2619 2597 2516 
z
" transform="scale(0.015625)"/>
       </defs>
       <use xlink:href="#DejaVuSans-31" transform="translate(0 0.765625)"/>
       <use xlink:href="#DejaVuSans-30" transform="translate(63.623047 0.765625)"/>
       <use xlink:href="#DejaVuSans-2212" transform="translate(128.203125 39.046875) scale(0.7)"/>
       <use xlink:href="#DejaVuSans-33" transform="translate(186.855469 39.046875) scale(0.7)"/>
       <use xlink:href="#DejaVuSans-34" transform="translate(231.391602 39.046875) scale(0.7)"/>
      </g>
     </g>
    </g>
    <g id="ytick_2">
     <g id="line2d_8">
      <g>
       <use xlink:href="#m43058f8bb9" x="68.5" y="229.855098" style="stroke: #000000; stroke-width: 0.8"/>
      </g>
     </g>
     <g id="text_9">
      <!-- $\mathdefault{10^{-24}}$ -->
      <g transform="translate(33.6 233.654317) scale(0.1 -0.1)">
       <use xlink:href="#DejaVuSans-31" transform="translate(0 0.765625)"/>
       <use xlink:href="#DejaVuSans-30" transform="translate(63.623047 0.765625)"/>
       <use xlink:href="#DejaVuSans-2212" transform="translate(128.203125 39.046875) scale(0.7)"/>
       <use xlink:href="#DejaVuSans-32" transform="translate(186.855469 39.046875) scale(0.7)"/>
       <use xlink:href="#DejaVuSans-34" transform="translate(231.391602 39.046875) scale(0.7)"/>
      </g>
     </g>
    </g>
    <g id="ytick_3">
     <g id="line2d_9">
      <g>
       <use xlink:href="#m43058f8bb9" x="68.5" y="199.79574" style="stroke: #000000; stroke-width: 0.8"/>
      </g>
     </g>
     <g id="text_10">
      <!-- $\mathdefault{10^{-14}}$ -->
      <g transform="translate(33.6 203.594959) scale(0.1 -0.1)">
       <use xlink:href="#DejaVuSans-31" transform="translate(0 0.684375)"/>
       <use xlink:href="#DejaVuSans-30" transform="translate(63.623047 0.684375)"/>
       <use xlink:href="#DejaVuSans-2212" transform="translate(128.203125 38.965625) scale(0.7)"/>
       <use xlink:href="#DejaVuSans-31" transform="translate(186.855469 38.965625) scale(0.7)"/>
       <use xlink:href="#DejaVuSans-34" transform="translate(231.391602 38.965625) scale(0.7)"/>
      </g>
     </g>
    </g>
    <g id="ytick_4">
     <g id="line2d_10">
      <g>
       <use xlink:href="#m43058f8bb9" x="68.5" y="169.736383" style="stroke: #000000; stroke-width: 0.8"/>
      </g>
     </g>
     <g id="text_11">
      <!-- $\mathdefault{10^{-4}}$ -->
      <g transform="translate(38 173.535601) scale(0.1 -0.1)">
       <use xlink:href="#DejaVuSans-31" transform="translate(0 0.684375)"/>
       <use xlink:href="#DejaVuSans-30" transform="translate(63.623047 0.684375)"/>
       <use xlink:href="#DejaVuSans-2212" transform="translate(128.203125 38.965625) scale(0.7)"/>
       <use xlink:href="#DejaVuSans-34" transform="translate(186.855469 38.965625) scale(0.7)"/>
      </g>
     </g>
    </g>
    <g id="ytick_5">
     <g id="line2d_11">
      <g>
       <use xlink:href="#m43058f8bb9" x="68.5" y="139.677025" style="stroke: #000000; stroke-width: 0.8"/>
      </g>
     </g>
     <g id="text_12">
      <!-- $\mathdefault{10^{6}}$ -->
      <g transform="translate(43.9 143.476244) scale(0.1 -0.1)">
       <use xlink:href="#DejaVuSans-31" transform="translate(0 0.765625)"/>
       <use xlink:href="#DejaVuSans-30" transform="translate(63.623047 0.765625)"/>
       <use xlink:href="#DejaVuSans-36" transform="translate(128.203125 39.046875) scale(0.7)"/>
      </g>
     </g>
    </g>
    <g id="ytick_6">
     <g id="line2d_12">
      <g>
       <use xlink:href="#m43058f8bb9" x="68.5" y="109.617668" style="stroke: #000000; stroke-width: 0.8"/>
      </g>
     </g>
     <g id="text_13">
      <!-- $\mathdefault{10^{16}}$ -->
      <g transform="translate(39.4 113.416886) scale(0.1 -0.1)">
       <use xlink:href="#DejaVuSans-31" transform="translate(0 0.765625)"/>
       <use xlink:href="#DejaVuSans-30" transform="translate(63.623047 0.765625)"/>
       <use xlink:href="#DejaVuSans-31" transform="translate(128.203125 39.046875) scale(0.7)"/>
       <use xlink:href="#DejaVuSans-36" transform="translate(172.739258 39.046875) scale(0.7)"/>
      </g>
     </g>
    </g>
    <g id="ytick_7">
     <g id="line2d_13">
      <g>
       <use xlink:href="#m43058f8bb9" x="68.5" y="79.55831" style="stroke: #000000; stroke-width: 0.8"/>
      </g>
     </g>
     <g id="text_14">
      <!-- $\mathdefault{10^{26}}$ -->
      <g transform="translate(39.4 83.357529) scale(0.1 -0.1)">
       <use xlink:href="#DejaVuSans-31" transform="translate(0 0.765625)"/>
       <use xlink:href="#DejaVuSans-30" transform="translate(63.623047 0.765625)"/>
       <use xlink:href="#DejaVuSans-32" transform="translate(128.203125 39.046875) scale(0.7)"/>
       <use xlink:href="#DejaVuSans-36" transform="translate(172.739258 39.046875) scale(0.7)"/>
      </g>
     </g>
    </g>
    <g id="ytick_8">
     <g id="line2d_14">
      <g>
       <use xlink:href="#m43058f8bb9" x="68.5" y="49.498953" style="stroke: #000000; stroke-width: 0.8"/>
      </g>
     </g>
     <g id="text_15">
      <!-- $\mathdefault{10^{36}}$ -->
      <g transform="translate(39.4 53.298171) scale(0.1 -0.1)">
       <use xlink:href="#DejaVuSans-31" transform="translate(0 0.765625)"/>
       <use xlink:href="#DejaVuSans-30" transform="translate(63.623047 0.765625)"/>
       <use xlink:href="#DejaVuSans-33" transform="translate(128.203125 39.046875) scale(0.7)"/>
       <use xlink:href="#DejaVuSans-36" transform="translate(172.739258 39.046875) scale(0.7)"/>
      </g>
     </g>
    </g>
    <g id="text_16">
     <!-- $\rho_{DM}$  [kg$\cdot$m$^{-3}$] -->
     <g transform="translate(25.4 223.374125) rotate(-90) scale(0.2 -0.2)">
      <defs>
       <path id="DejaVuSans-Oblique-3c1" d="M 1203 2875 
Q 1453 3194 1981 3475 
Q 2188 3584 2756 3584 
Q 3394 3584 3694 3078 
Q 3994 2572 3834 1747 
Q 3672 922 3175 415 
Q 2678 -91 2041 -91 
Q 1656 -91 1409 63 
Q 1163 213 1044 525 
L 681 -1331 
L 103 -1331 
L 697 1716 
Q 838 2438 1203 2875 
z
M 3238 1747 
Q 3359 2381 3169 2744 
Q 2978 3103 2522 3103 
Q 2066 3103 1734 2744 
Q 1403 2381 1281 1747 
Q 1156 1113 1347 750 
Q 1538 391 1994 391 
Q 2450 391 2781 750 
Q 3113 1113 3238 1747 
z
" transform="scale(0.015625)"/>
       <path id="DejaVuSans-Oblique-44" d="M 1081 4666 
L 2438 4666 
Q 3519 4666 4070 4208 
Q 4622 3750 4622 2847 
Q 4622 2250 4412 1698 
Q 4203 1147 3834 769 
Q 3463 381 2891 190 
Q 2319 0 1538 0 
L 172 0 
L 1081 4666 
z
M 1613 4147 
L 909 519 
L 1734 519 
Q 2794 519 3375 1128 
Q 3956 1738 3956 2847 
Q 3956 3519 3581 3833 
Q 3206 4147 2406 4147 
L 1613 4147 
z
" transform="scale(0.015625)"/>
       <path id="DejaVuSans-Oblique-4d" d="M 1081 4666 
L 2028 4666 
L 2572 1522 
L 4378 4666 
L 5350 4666 
L 4441 0 
L 3828 0 
L 4622 4091 
L 2791 897 
L 2175 897 
L 1581 4103 
L 788 0 
L 172 0 
L 1081 4666 
z
" transform="scale(0.015625)"/>
       <path id="DejaVuSans-67" d="M 2906 1791 
Q 2906 2416 2648 2759 
Q 2391 3103 1925 3103 
Q 1463 3103 1205 2759 
Q 947 2416 947 1791 
Q 947 1169 1205 825 
Q 1463 481 1925 481 
Q 2391 481 2648 825 
Q 2906 1169 2906 1791 
z
M 3481 434 
Q 3481 -459 3084 -895 
Q 2688 -1331 1869 -1331 
Q 1566 -1331 1297 -1286 
Q 1028 -1241 775 -1147 
L 775 -588 
Q 1028 -725 1275 -790 
Q 1522 -856 1778 -856 
Q 2344 -856 2625 -561 
Q 2906 -266 2906 331 
L 2906 616 
Q 2728 306 2450 153 
Q 2172 0 1784 0 
Q 1141 0 747 490 
Q 353 981 353 1791 
Q 353 2603 747 3093 
Q 1141 3584 1784 3584 
Q 2172 3584 2450 3431 
Q 2728 3278 2906 2969 
L 2906 3500 
L 3481 3500 
L 3481 434 
z
" transform="scale(0.015625)"/>
       <path id="DejaVuSans-22c5" d="M 684 2619 
L 1344 2619 
L 1344 1825 
L 684 1825 
L 684 2619 
z
" transform="scale(0.015625)"/>
       <path id="DejaVuSans-6d" d="M 3328 2828 
Q 3544 3216 3844 3400 
Q 4144 3584 4550 3584 
Q 5097 3584 5394 3201 
Q 5691 2819 5691 2113 
L 5691 0 
L 5113 0 
L 5113 2094 
Q 5113 2597 4934 2840 
Q 4756 3084 4391 3084 
Q 3944 3084 3684 2787 
Q 3425 2491 3425 1978 
L 3425 0 
L 2847 0 
L 2847 2094 
Q 2847 2600 2669 2842 
Q 2491 3084 2119 3084 
Q 1678 3084 1418 2786 
Q 1159 2488 1159 1978 
L 1159 0 
L 581 0 
L 581 3500 
L 1159 3500 
L 1159 2956 
Q 1356 3278 1631 3431 
Q 1906 3584 2284 3584 
Q 2666 3584 2933 3390 
Q 3200 3197 3328 2828 
z
" transform="scale(0.015625)"/>
      </defs>
      <use xlink:href="#DejaVuSans-Oblique-3c1" transform="translate(0 0.765625)"/>
      <use xlink:href="#DejaVuSans-Oblique-44" transform="translate(63.476562 -15.640625) scale(0.7)"/>
      <use xlink:href="#DejaVuSans-Oblique-4d" transform="translate(117.37793 -15.640625) scale(0.7)"/>
      <use xlink:href="#DejaVuSans-20" transform="translate(180.507812 0.765625)"/>
      <use xlink:href="#DejaVuSans-20" transform="translate(212.294922 0.765625)"/>
      <use xlink:href="#DejaVuSans-5b" transform="translate(244.082031 0.765625)"/>
      <use xlink:href="#DejaVuSans-6b" transform="translate(283.095703 0.765625)"/>
      <use xlink:href="#DejaVuSans-67" transform="translate(341.005859 0.765625)"/>
      <use xlink:href="#DejaVuSans-22c5" transform="translate(404.482422 0.765625)"/>
      <use xlink:href="#DejaVuSans-6d" transform="translate(436.269531 0.765625)"/>
      <use xlink:href="#DejaVuSans-2212" transform="translate(534.638672 39.046875) scale(0.7)"/>
      <use xlink:href="#DejaVuSans-33" transform="translate(593.291016 39.046875) scale(0.7)"/>
      <use xlink:href="#DejaVuSans-5d" transform="translate(640.561523 0.765625)"/>
     </g>
    </g>
   </g>
   <g id="LineCollection_1">
    <path d="M 84.732727 48.227283 
L 84.732727 47.779379 
" clip-path="url(#p37e2ef0903)" style="fill: none; stroke: #808080; stroke-width: 0.7"/>
    <path d="M 88.012066 45.447483 
L 88.012066 45.296528 
" clip-path="url(#p37e2ef0903)" style="fill: none; stroke: #808080; stroke-width: 0.7"/>
    <path d="M 91.291405 43.904856 
L 91.291405 43.817837 
" clip-path="url(#p37e2ef0903)" style="fill: none; stroke: #808080; stroke-width: 0.7"/>
    <path d="M 94.570744 42.775578 
L 94.570744 42.709125 
" clip-path="url(#p37e2ef0903)" style="fill: none; stroke: #808080; stroke-width: 0.7"/>
    <path d="M 97.850083 41.978227 
L 97.850083 41.929321 
" clip-path="url(#p37e2ef0903)" style="fill: none; stroke: #808080; stroke-width: 0.7"/>
    <path d="M 101.129421 41.32322 
L 101.129421 41.288383 
" clip-path="url(#p37e2ef0903)" style="fill: none; stroke: #808080; stroke-width: 0.7"/>
    <path d="M 104.40876 40.787384 
L 104.40876 40.759157 
" clip-path="url(#p37e2ef0903)" style="fill: none; stroke: #808080; stroke-width: 0.7"/>
    <path d="M 107.688099 40.353575 
L 107.688099 40.330201 
" clip-path="url(#p37e2ef0903)" style="fill: none; stroke: #808080; stroke-width: 0.7"/>
    <path d="M 110.967438 39.972655 
L 110.967438 39.9513 
" clip-path="url(#p37e2ef0903)" style="fill: none; stroke: #808080; stroke-width: 0.7"/>
    <path d="M 114.246777 39.639911 
L 114.246777 39.622825 
" clip-path="url(#p37e2ef0903)" style="fill: none; stroke: #808080; stroke-width: 0.7"/>
    <path d="M 117.526116 39.349821 
L 117.526116 39.33377 
" clip-path="url(#p37e2ef0903)" style="fill: none; stroke: #808080; stroke-width: 0.7"/>
    <path d="M 120.805455 39.09172 
L 120.805455 39.075579 
" clip-path="url(#p37e2ef0903)" style="fill: none; stroke: #808080; stroke-width: 0.7"/>
    <path d="M 124.084793 38.860283 
L 124.084793 38.846319 
" clip-path="url(#p37e2ef0903)" style="fill: none; stroke: #808080; stroke-width: 0.7"/>
    <path d="M 127.364132 38.650278 
L 127.364132 38.636905 
" clip-path="url(#p37e2ef0903)" style="fill: none; stroke: #808080; stroke-width: 0.7"/>
    <path d="M 130.643471 38.459917 
L 130.643471 38.448143 
" clip-path="url(#p37e2ef0903)" style="fill: none; stroke: #808080; stroke-width: 0.7"/>
    <path d="M 133.92281 38.286229 
L 133.92281 38.275431 
" clip-path="url(#p37e2ef0903)" style="fill: none; stroke: #808080; stroke-width: 0.7"/>
    <path d="M 137.202149 38.127127 
L 137.202149 38.117097 
" clip-path="url(#p37e2ef0903)" style="fill: none; stroke: #808080; stroke-width: 0.7"/>
    <path d="M 140.481488 37.978431 
L 140.481488 37.969391 
" clip-path="url(#p37e2ef0903)" style="fill: none; stroke: #808080; stroke-width: 0.7"/>
    <path d="M 143.760826 37.837309 
L 143.760826 37.829039 
" clip-path="url(#p37e2ef0903)" style="fill: none; stroke: #808080; stroke-width: 0.7"/>
    <path d="M 147.040165 37.707714 
L 147.040165 37.699619 
" clip-path="url(#p37e2ef0903)" style="fill: none; stroke: #808080; stroke-width: 0.7"/>
    <path d="M 150.319504 37.585192 
L 150.319504 37.577052 
" clip-path="url(#p37e2ef0903)" style="fill: none; stroke: #808080; stroke-width: 0.7"/>
    <path d="M 153.598843 37.469479 
L 153.598843 37.461796 
" clip-path="url(#p37e2ef0903)" style="fill: none; stroke: #808080; stroke-width: 0.7"/>
    <path d="M 156.878182 37.362133 
L 156.878182 37.354825 
" clip-path="url(#p37e2ef0903)" style="fill: none; stroke: #808080; stroke-width: 0.7"/>
    <path d="M 160.157521 37.261307 
L 160.157521 37.25433 
" clip-path="url(#p37e2ef0903)" style="fill: none; stroke: #808080; stroke-width: 0.7"/>
    <path d="M 163.43686 37.166722 
L 163.43686 37.160014 
" clip-path="url(#p37e2ef0903)" style="fill: none; stroke: #808080; stroke-width: 0.7"/>
    <path d="M 166.716198 37.076422 
L 166.716198 37.070014 
" clip-path="url(#p37e2ef0903)" style="fill: none; stroke: #808080; stroke-width: 0.7"/>
    <path d="M 169.995537 36.991163 
L 169.995537 36.985131 
" clip-path="url(#p37e2ef0903)" style="fill: none; stroke: #808080; stroke-width: 0.7"/>
    <path d="M 173.274876 36.909445 
L 173.274876 36.903711 
" clip-path="url(#p37e2ef0903)" style="fill: none; stroke: #808080; stroke-width: 0.7"/>
    <path d="M 176.554215 36.830369 
L 176.554215 36.824748 
" clip-path="url(#p37e2ef0903)" style="fill: none; stroke: #808080; stroke-width: 0.7"/>
    <path d="M 179.833554 36.754539 
L 179.833554 36.749003 
" clip-path="url(#p37e2ef0903)" style="fill: none; stroke: #808080; stroke-width: 0.7"/>
    <path d="M 183.112893 36.682436 
L 183.112893 36.677067 
" clip-path="url(#p37e2ef0903)" style="fill: none; stroke: #808080; stroke-width: 0.7"/>
    <path d="M 186.392231 36.613084 
L 186.392231 36.607617 
" clip-path="url(#p37e2ef0903)" style="fill: none; stroke: #808080; stroke-width: 0.7"/>
    <path d="M 189.67157 36.546703 
L 189.67157 36.541428 
" clip-path="url(#p37e2ef0903)" style="fill: none; stroke: #808080; stroke-width: 0.7"/>
    <path d="M 192.950909 36.482279 
L 192.950909 36.476997 
" clip-path="url(#p37e2ef0903)" style="fill: none; stroke: #808080; stroke-width: 0.7"/>
    <path d="M 196.230248 36.42049 
L 196.230248 36.415272 
" clip-path="url(#p37e2ef0903)" style="fill: none; stroke: #808080; stroke-width: 0.7"/>
    <path d="M 199.509587 36.360948 
L 199.509587 36.35598 
" clip-path="url(#p37e2ef0903)" style="fill: none; stroke: #808080; stroke-width: 0.7"/>
    <path d="M 202.788926 36.303311 
L 202.788926 36.298465 
" clip-path="url(#p37e2ef0903)" style="fill: none; stroke: #808080; stroke-width: 0.7"/>
    <path d="M 206.068264 36.247769 
L 206.068264 36.242923 
" clip-path="url(#p37e2ef0903)" style="fill: none; stroke: #808080; stroke-width: 0.7"/>
    <path d="M 209.347603 36.193801 
L 209.347603 36.189172 
" clip-path="url(#p37e2ef0903)" style="fill: none; stroke: #808080; stroke-width: 0.7"/>
    <path d="M 212.626942 36.141559 
L 212.626942 36.136964 
" clip-path="url(#p37e2ef0903)" style="fill: none; stroke: #808080; stroke-width: 0.7"/>
    <path d="M 215.906281 36.091227 
L 215.906281 36.086788 
" clip-path="url(#p37e2ef0903)" style="fill: none; stroke: #808080; stroke-width: 0.7"/>
    <path d="M 219.18562 36.042369 
L 219.18562 36.037918 
" clip-path="url(#p37e2ef0903)" style="fill: none; stroke: #808080; stroke-width: 0.7"/>
    <path d="M 222.464959 35.994919 
L 222.464959 35.990667 
" clip-path="url(#p37e2ef0903)" style="fill: none; stroke: #808080; stroke-width: 0.7"/>
    <path d="M 225.744298 35.948136 
L 225.744298 35.943856 
" clip-path="url(#p37e2ef0903)" style="fill: none; stroke: #808080; stroke-width: 0.7"/>
    <path d="M 229.023636 35.903523 
L 229.023636 35.899368 
" clip-path="url(#p37e2ef0903)" style="fill: none; stroke: #808080; stroke-width: 0.7"/>
    <path d="M 232.302975 35.859442 
L 232.302975 35.855467 
" clip-path="url(#p37e2ef0903)" style="fill: none; stroke: #808080; stroke-width: 0.7"/>
    <path d="M 235.582314 35.81725 
L 235.582314 35.813313 
" clip-path="url(#p37e2ef0903)" style="fill: none; stroke: #808080; stroke-width: 0.7"/>
    <path d="M 238.861653 35.775439 
L 238.861653 35.771625 
" clip-path="url(#p37e2ef0903)" style="fill: none; stroke: #808080; stroke-width: 0.7"/>
    <path d="M 242.140992 35.734972 
L 242.140992 35.731229 
" clip-path="url(#p37e2ef0903)" style="fill: none; stroke: #808080; stroke-width: 0.7"/>
    <path d="M 245.420331 35.695357 
L 245.420331 35.691656 
" clip-path="url(#p37e2ef0903)" style="fill: none; stroke: #808080; stroke-width: 0.7"/>
    <path d="M 248.699669 35.656703 
L 248.699669 35.653076 
" clip-path="url(#p37e2ef0903)" style="fill: none; stroke: #808080; stroke-width: 0.7"/>
    <path d="M 251.979008 35.618352 
L 251.979008 35.614858 
" clip-path="url(#p37e2ef0903)" style="fill: none; stroke: #808080; stroke-width: 0.7"/>
    <path d="M 255.258347 35.580889 
L 255.258347 35.577363 
" clip-path="url(#p37e2ef0903)" style="fill: none; stroke: #808080; stroke-width: 0.7"/>
    <path d="M 258.537686 35.544796 
L 258.537686 35.541355 
" clip-path="url(#p37e2ef0903)" style="fill: none; stroke: #808080; stroke-width: 0.7"/>
    <path d="M 261.817025 35.509583 
L 261.817025 35.506317 
" clip-path="url(#p37e2ef0903)" style="fill: none; stroke: #808080; stroke-width: 0.7"/>
    <path d="M 265.096364 35.47524 
L 265.096364 35.47197 
" clip-path="url(#p37e2ef0903)" style="fill: none; stroke: #808080; stroke-width: 0.7"/>
    <path d="M 268.375702 35.44117 
L 268.375702 35.437845 
" clip-path="url(#p37e2ef0903)" style="fill: none; stroke: #808080; stroke-width: 0.7"/>
    <path d="M 271.655041 35.408132 
L 271.655041 35.404979 
" clip-path="url(#p37e2ef0903)" style="fill: none; stroke: #808080; stroke-width: 0.7"/>
    <path d="M 274.93438 35.375498 
L 274.93438 35.372367 
" clip-path="url(#p37e2ef0903)" style="fill: none; stroke: #808080; stroke-width: 0.7"/>
    <path d="M 278.213719 35.343412 
L 278.213719 35.340408 
" clip-path="url(#p37e2ef0903)" style="fill: none; stroke: #808080; stroke-width: 0.7"/>
    <path d="M 281.493058 35.311573 
L 281.493058 35.308621 
" clip-path="url(#p37e2ef0903)" style="fill: none; stroke: #808080; stroke-width: 0.7"/>
    <path d="M 284.772397 35.280919 
L 284.772397 35.278035 
" clip-path="url(#p37e2ef0903)" style="fill: none; stroke: #808080; stroke-width: 0.7"/>
    <path d="M 288.051736 35.25066 
L 288.051736 35.247891 
" clip-path="url(#p37e2ef0903)" style="fill: none; stroke: #808080; stroke-width: 0.7"/>
    <path d="M 291.331074 35.221232 
L 291.331074 35.218496 
" clip-path="url(#p37e2ef0903)" style="fill: none; stroke: #808080; stroke-width: 0.7"/>
    <path d="M 294.610413 35.191977 
L 294.610413 35.189259 
" clip-path="url(#p37e2ef0903)" style="fill: none; stroke: #808080; stroke-width: 0.7"/>
    <path d="M 297.889752 35.163763 
L 297.889752 35.161135 
" clip-path="url(#p37e2ef0903)" style="fill: none; stroke: #808080; stroke-width: 0.7"/>
    <path d="M 301.169091 35.136045 
L 301.169091 35.133498 
" clip-path="url(#p37e2ef0903)" style="fill: none; stroke: #808080; stroke-width: 0.7"/>
    <path d="M 304.44843 35.108695 
L 304.44843 35.106124 
" clip-path="url(#p37e2ef0903)" style="fill: none; stroke: #808080; stroke-width: 0.7"/>
    <path d="M 307.727769 35.081179 
L 307.727769 35.078577 
" clip-path="url(#p37e2ef0903)" style="fill: none; stroke: #808080; stroke-width: 0.7"/>
    <path d="M 311.007107 35.054545 
L 311.007107 35.052051 
" clip-path="url(#p37e2ef0903)" style="fill: none; stroke: #808080; stroke-width: 0.7"/>
    <path d="M 314.286446 35.028657 
L 314.286446 35.026262 
" clip-path="url(#p37e2ef0903)" style="fill: none; stroke: #808080; stroke-width: 0.7"/>
    <path d="M 317.565785 35.002932 
L 317.565785 35.000606 
" clip-path="url(#p37e2ef0903)" style="fill: none; stroke: #808080; stroke-width: 0.7"/>
    <path d="M 320.845124 34.977554 
L 320.845124 34.975291 
" clip-path="url(#p37e2ef0903)" style="fill: none; stroke: #808080; stroke-width: 0.7"/>
    <path d="M 324.124463 34.952896 
L 324.124463 34.950644 
" clip-path="url(#p37e2ef0903)" style="fill: none; stroke: #808080; stroke-width: 0.7"/>
    <path d="M 327.403802 34.928605 
L 327.403802 34.926394 
" clip-path="url(#p37e2ef0903)" style="fill: none; stroke: #808080; stroke-width: 0.7"/>
    <path d="M 330.68314 34.904576 
L 330.68314 34.902429 
" clip-path="url(#p37e2ef0903)" style="fill: none; stroke: #808080; stroke-width: 0.7"/>
    <path d="M 333.962479 34.880783 
L 333.962479 34.878634 
" clip-path="url(#p37e2ef0903)" style="fill: none; stroke: #808080; stroke-width: 0.7"/>
    <path d="M 337.241818 34.85712 
L 337.241818 34.855013 
" clip-path="url(#p37e2ef0903)" style="fill: none; stroke: #808080; stroke-width: 0.7"/>
    <path d="M 340.521157 34.83381 
L 340.521157 34.831752 
" clip-path="url(#p37e2ef0903)" style="fill: none; stroke: #808080; stroke-width: 0.7"/>
    <path d="M 343.800496 34.810997 
L 343.800496 34.80902 
" clip-path="url(#p37e2ef0903)" style="fill: none; stroke: #808080; stroke-width: 0.7"/>
    <path d="M 347.079835 34.788559 
L 347.079835 34.786599 
" clip-path="url(#p37e2ef0903)" style="fill: none; stroke: #808080; stroke-width: 0.7"/>
    <path d="M 350.359174 34.766557 
L 350.359174 34.764602 
" clip-path="url(#p37e2ef0903)" style="fill: none; stroke: #808080; stroke-width: 0.7"/>
    <path d="M 353.638512 34.744704 
L 353.638512 34.742813 
" clip-path="url(#p37e2ef0903)" style="fill: none; stroke: #808080; stroke-width: 0.7"/>
    <path d="M 356.917851 34.723209 
L 356.917851 34.721338 
" clip-path="url(#p37e2ef0903)" style="fill: none; stroke: #808080; stroke-width: 0.7"/>
    <path d="M 360.19719 34.702333 
L 360.19719 34.70054 
" clip-path="url(#p37e2ef0903)" style="fill: none; stroke: #808080; stroke-width: 0.7"/>
    <path d="M 363.476529 34.681399 
L 363.476529 34.679626 
" clip-path="url(#p37e2ef0903)" style="fill: none; stroke: #808080; stroke-width: 0.7"/>
    <path d="M 366.755868 34.660791 
L 366.755868 34.659068 
" clip-path="url(#p37e2ef0903)" style="fill: none; stroke: #808080; stroke-width: 0.7"/>
    <path d="M 370.035207 34.640239 
L 370.035207 34.638557 
" clip-path="url(#p37e2ef0903)" style="fill: none; stroke: #808080; stroke-width: 0.7"/>
    <path d="M 373.314545 34.62017 
L 373.314545 34.61847 
" clip-path="url(#p37e2ef0903)" style="fill: none; stroke: #808080; stroke-width: 0.7"/>
    <path d="M 376.593884 34.600338 
L 376.593884 34.598637 
" clip-path="url(#p37e2ef0903)" style="fill: none; stroke: #808080; stroke-width: 0.7"/>
    <path d="M 379.873223 34.580727 
L 379.873223 34.579108 
" clip-path="url(#p37e2ef0903)" style="fill: none; stroke: #808080; stroke-width: 0.7"/>
    <path d="M 383.152562 34.561373 
L 383.152562 34.559823 
" clip-path="url(#p37e2ef0903)" style="fill: none; stroke: #808080; stroke-width: 0.7"/>
    <path d="M 386.431901 34.542387 
L 386.431901 34.540888 
" clip-path="url(#p37e2ef0903)" style="fill: none; stroke: #808080; stroke-width: 0.7"/>
    <path d="M 389.71124 34.523578 
L 389.71124 34.522095 
" clip-path="url(#p37e2ef0903)" style="fill: none; stroke: #808080; stroke-width: 0.7"/>
    <path d="M 392.990579 34.505066 
L 392.990579 34.503609 
" clip-path="url(#p37e2ef0903)" style="fill: none; stroke: #808080; stroke-width: 0.7"/>
    <path d="M 396.269917 34.486806 
L 396.269917 34.48538 
" clip-path="url(#p37e2ef0903)" style="fill: none; stroke: #808080; stroke-width: 0.7"/>
    <path d="M 399.549256 34.468692 
L 399.549256 34.4673 
" clip-path="url(#p37e2ef0903)" style="fill: none; stroke: #808080; stroke-width: 0.7"/>
    <path d="M 402.828595 34.45067 
L 402.828595 34.449214 
" clip-path="url(#p37e2ef0903)" style="fill: none; stroke: #808080; stroke-width: 0.7"/>
    <path d="M 406.107934 34.432828 
L 406.107934 34.431375 
" clip-path="url(#p37e2ef0903)" style="fill: none; stroke: #808080; stroke-width: 0.7"/>
    <path d="M 409.387273 34.415488 
L 409.387273 34.414125 
" clip-path="url(#p37e2ef0903)" style="fill: none; stroke: #808080; stroke-width: 0.7"/>
   </g>
   <g id="line2d_15">
    <path d="M 87.943544 336.6645 
L 88.012066 276.334125 
L 91.291405 275.429248 
L 94.570744 274.899929 
L 97.850083 274.524371 
L 101.129421 274.233066 
L 104.40876 273.995052 
L 107.688099 273.793815 
L 110.967438 273.619495 
L 114.246777 273.465733 
L 117.526116 273.328189 
L 120.805455 273.203765 
L 124.084793 273.090176 
L 127.364132 272.985683 
L 130.643471 272.888938 
L 133.92281 272.79887 
L 137.202149 272.714618 
L 140.481488 272.635475 
L 143.760826 272.560856 
L 147.040165 272.490274 
L 150.319504 272.423312 
L 153.598843 272.359619 
L 156.878182 272.298889 
L 160.157521 272.240859 
L 163.43686 272.185299 
L 166.716198 272.132007 
L 169.995537 272.080806 
L 173.274876 272.031537 
L 176.554215 271.984061 
L 179.833554 271.938251 
L 183.112893 271.893993 
L 186.392231 271.851188 
L 189.67157 271.809741 
L 192.950909 271.76957 
L 196.230248 271.730598 
L 199.509587 271.692756 
L 202.788926 271.65598 
L 206.068264 271.620211 
L 209.347603 271.585397 
L 212.626942 271.551487 
L 215.906281 271.518436 
L 219.18562 271.4862 
L 222.464959 271.454742 
L 225.744298 271.424024 
L 229.023636 271.394012 
L 232.302975 271.364674 
L 235.582314 271.335982 
L 238.861653 271.307906 
L 242.140992 271.280422 
L 245.420331 271.253504 
L 248.699669 271.22713 
L 251.979008 271.201279 
L 255.258347 271.175929 
L 258.537686 271.151063 
L 261.817025 271.126661 
L 265.096364 271.102707 
L 268.375702 271.079184 
L 271.655041 271.056078 
L 274.93438 271.033374 
L 278.213719 271.011058 
L 281.493058 270.989117 
L 284.772397 270.967538 
L 288.051736 270.946311 
L 291.331074 270.925423 
L 294.610413 270.904864 
L 297.889752 270.884624 
L 301.169091 270.864693 
L 304.44843 270.845061 
L 307.727769 270.825721 
L 311.007107 270.806663 
L 314.286446 270.787879 
L 317.565785 270.769361 
L 320.845124 270.751103 
L 324.124463 270.733096 
L 327.403802 270.715335 
L 330.68314 270.697811 
L 333.962479 270.68052 
L 337.241818 270.663455 
L 340.521157 270.64661 
L 343.800496 270.62998 
L 347.079835 270.613559 
L 350.359174 270.597342 
L 353.638512 270.581324 
L 356.917851 270.5655 
L 360.19719 270.549865 
L 363.476529 270.534416 
L 366.755868 270.519147 
L 370.035207 270.504055 
L 373.314545 270.489135 
L 376.593884 270.474384 
L 379.873223 270.459798 
L 383.152562 270.445372 
L 386.431901 270.431105 
L 389.71124 270.416992 
L 392.990579 270.403029 
L 396.269917 270.389215 
L 399.549256 270.375545 
L 402.828595 270.362017 
L 406.107934 270.348627 
L 409.387273 270.335374 
" clip-path="url(#p37e2ef0903)" style="fill: none; stroke: #1f77b4; stroke-width: 1.5; stroke-linecap: square"/>
   </g>
   <g id="line2d_16">
    <defs>
     <path id="meea09ed81c" d="M 0 0.25 
C 0.066301 0.25 0.129895 0.223658 0.176777 0.176777 
C 0.223658 0.129895 0.25 0.066301 0.25 0 
C 0.25 -0.066301 0.223658 -0.129895 0.176777 -0.176777 
C 0.129895 -0.223658 0.066301 -0.25 0 -0.25 
C -0.066301 -0.25 -0.129895 -0.223658 -0.176777 -0.176777 
C -0.223658 -0.129895 -0.25 -0.066301 -0.25 0 
C -0.25 0.066301 -0.223658 0.129895 -0.176777 0.176777 
C -0.129895 0.223658 -0.066301 0.25 0 0.25 
z
" style="stroke: #0000ff"/>
    </defs>
    <g clip-path="url(#p37e2ef0903)">
     <use xlink:href="#meea09ed81c" x="84.732727" y="47.984215" style="fill: #0000ff; stroke: #0000ff"/>
     <use xlink:href="#meea09ed81c" x="88.012066" y="45.369825" style="fill: #0000ff; stroke: #0000ff"/>
     <use xlink:href="#meea09ed81c" x="91.291405" y="43.860621" style="fill: #0000ff; stroke: #0000ff"/>
     <use xlink:href="#meea09ed81c" x="94.570744" y="42.741929" style="fill: #0000ff; stroke: #0000ff"/>
     <use xlink:href="#meea09ed81c" x="97.850083" y="41.953545" style="fill: #0000ff; stroke: #0000ff"/>
     <use xlink:href="#meea09ed81c" x="101.129421" y="41.305685" style="fill: #0000ff; stroke: #0000ff"/>
     <use xlink:href="#meea09ed81c" x="104.40876" y="40.773194" style="fill: #0000ff; stroke: #0000ff"/>
     <use xlink:href="#meea09ed81c" x="107.688099" y="40.341835" style="fill: #0000ff; stroke: #0000ff"/>
     <use xlink:href="#meea09ed81c" x="110.967438" y="39.961934" style="fill: #0000ff; stroke: #0000ff"/>
     <use xlink:href="#meea09ed81c" x="114.246777" y="39.63134" style="fill: #0000ff; stroke: #0000ff"/>
     <use xlink:href="#meea09ed81c" x="117.526116" y="39.34177" style="fill: #0000ff; stroke: #0000ff"/>
     <use xlink:href="#meea09ed81c" x="120.805455" y="39.083625" style="fill: #0000ff; stroke: #0000ff"/>
     <use xlink:href="#meea09ed81c" x="124.084793" y="38.853282" style="fill: #0000ff; stroke: #0000ff"/>
     <use xlink:href="#meea09ed81c" x="127.364132" y="38.643574" style="fill: #0000ff; stroke: #0000ff"/>
     <use xlink:href="#meea09ed81c" x="130.643471" y="38.454017" style="fill: #0000ff; stroke: #0000ff"/>
     <use xlink:href="#meea09ed81c" x="133.92281" y="38.280819" style="fill: #0000ff; stroke: #0000ff"/>
     <use xlink:href="#meea09ed81c" x="137.202149" y="38.122102" style="fill: #0000ff; stroke: #0000ff"/>
     <use xlink:href="#meea09ed81c" x="140.481488" y="37.973903" style="fill: #0000ff; stroke: #0000ff"/>
     <use xlink:href="#meea09ed81c" x="143.760826" y="37.833168" style="fill: #0000ff; stroke: #0000ff"/>
     <use xlink:href="#meea09ed81c" x="147.040165" y="37.70366" style="fill: #0000ff; stroke: #0000ff"/>
     <use xlink:href="#meea09ed81c" x="150.319504" y="37.581115" style="fill: #0000ff; stroke: #0000ff"/>
     <use xlink:href="#meea09ed81c" x="153.598843" y="37.465632" style="fill: #0000ff; stroke: #0000ff"/>
     <use xlink:href="#meea09ed81c" x="156.878182" y="37.358474" style="fill: #0000ff; stroke: #0000ff"/>
     <use xlink:href="#meea09ed81c" x="160.157521" y="37.257814" style="fill: #0000ff; stroke: #0000ff"/>
     <use xlink:href="#meea09ed81c" x="163.43686" y="37.163364" style="fill: #0000ff; stroke: #0000ff"/>
     <use xlink:href="#meea09ed81c" x="166.716198" y="37.073214" style="fill: #0000ff; stroke: #0000ff"/>
     <use xlink:href="#meea09ed81c" x="169.995537" y="36.988144" style="fill: #0000ff; stroke: #0000ff"/>
     <use xlink:href="#meea09ed81c" x="173.274876" y="36.906575" style="fill: #0000ff; stroke: #0000ff"/>
     <use xlink:href="#meea09ed81c" x="176.554215" y="36.827555" style="fill: #0000ff; stroke: #0000ff"/>
     <use xlink:href="#meea09ed81c" x="179.833554" y="36.751768" style="fill: #0000ff; stroke: #0000ff"/>
     <use xlink:href="#meea09ed81c" x="183.112893" y="36.679749" style="fill: #0000ff; stroke: #0000ff"/>
     <use xlink:href="#meea09ed81c" x="186.392231" y="36.610348" style="fill: #0000ff; stroke: #0000ff"/>
     <use xlink:href="#meea09ed81c" x="189.67157" y="36.544063" style="fill: #0000ff; stroke: #0000ff"/>
     <use xlink:href="#meea09ed81c" x="192.950909" y="36.479635" style="fill: #0000ff; stroke: #0000ff"/>
     <use xlink:href="#meea09ed81c" x="196.230248" y="36.417878" style="fill: #0000ff; stroke: #0000ff"/>
     <use xlink:href="#meea09ed81c" x="199.509587" y="36.358462" style="fill: #0000ff; stroke: #0000ff"/>
     <use xlink:href="#meea09ed81c" x="202.788926" y="36.300886" style="fill: #0000ff; stroke: #0000ff"/>
     <use xlink:href="#meea09ed81c" x="206.068264" y="36.245344" style="fill: #0000ff; stroke: #0000ff"/>
     <use xlink:href="#meea09ed81c" x="209.347603" y="36.191484" style="fill: #0000ff; stroke: #0000ff"/>
     <use xlink:href="#meea09ed81c" x="212.626942" y="36.139259" style="fill: #0000ff; stroke: #0000ff"/>
     <use xlink:href="#meea09ed81c" x="215.906281" y="36.089005" style="fill: #0000ff; stroke: #0000ff"/>
     <use xlink:href="#meea09ed81c" x="219.18562" y="36.040142" style="fill: #0000ff; stroke: #0000ff"/>
     <use xlink:href="#meea09ed81c" x="222.464959" y="35.992791" style="fill: #0000ff; stroke: #0000ff"/>
     <use xlink:href="#meea09ed81c" x="225.744298" y="35.945994" style="fill: #0000ff; stroke: #0000ff"/>
     <use xlink:href="#meea09ed81c" x="229.023636" y="35.901444" style="fill: #0000ff; stroke: #0000ff"/>
     <use xlink:href="#meea09ed81c" x="232.302975" y="35.857453" style="fill: #0000ff; stroke: #0000ff"/>
     <use xlink:href="#meea09ed81c" x="235.582314" y="35.81528" style="fill: #0000ff; stroke: #0000ff"/>
     <use xlink:href="#meea09ed81c" x="238.861653" y="35.773531" style="fill: #0000ff; stroke: #0000ff"/>
     <use xlink:href="#meea09ed81c" x="242.140992" y="35.733099" style="fill: #0000ff; stroke: #0000ff"/>
     <use xlink:href="#meea09ed81c" x="245.420331" y="35.693505" style="fill: #0000ff; stroke: #0000ff"/>
     <use xlink:href="#meea09ed81c" x="248.699669" y="35.654888" style="fill: #0000ff; stroke: #0000ff"/>
     <use xlink:href="#meea09ed81c" x="251.979008" y="35.616604" style="fill: #0000ff; stroke: #0000ff"/>
     <use xlink:href="#meea09ed81c" x="255.258347" y="35.579124" style="fill: #0000ff; stroke: #0000ff"/>
     <use xlink:href="#meea09ed81c" x="258.537686" y="35.543074" style="fill: #0000ff; stroke: #0000ff"/>
     <use xlink:href="#meea09ed81c" x="261.817025" y="35.507949" style="fill: #0000ff; stroke: #0000ff"/>
     <use xlink:href="#meea09ed81c" x="265.096364" y="35.473604" style="fill: #0000ff; stroke: #0000ff"/>
     <use xlink:href="#meea09ed81c" x="268.375702" y="35.439507" style="fill: #0000ff; stroke: #0000ff"/>
     <use xlink:href="#meea09ed81c" x="271.655041" y="35.406554" style="fill: #0000ff; stroke: #0000ff"/>
     <use xlink:href="#meea09ed81c" x="274.93438" y="35.373931" style="fill: #0000ff; stroke: #0000ff"/>
     <use xlink:href="#meea09ed81c" x="278.213719" y="35.341909" style="fill: #0000ff; stroke: #0000ff"/>
     <use xlink:href="#meea09ed81c" x="281.493058" y="35.310096" style="fill: #0000ff; stroke: #0000ff"/>
     <use xlink:href="#meea09ed81c" x="284.772397" y="35.279477" style="fill: #0000ff; stroke: #0000ff"/>
     <use xlink:href="#meea09ed81c" x="288.051736" y="35.249275" style="fill: #0000ff; stroke: #0000ff"/>
     <use xlink:href="#meea09ed81c" x="291.331074" y="35.219863" style="fill: #0000ff; stroke: #0000ff"/>
     <use xlink:href="#meea09ed81c" x="294.610413" y="35.190617" style="fill: #0000ff; stroke: #0000ff"/>
     <use xlink:href="#meea09ed81c" x="297.889752" y="35.162448" style="fill: #0000ff; stroke: #0000ff"/>
     <use xlink:href="#meea09ed81c" x="301.169091" y="35.134771" style="fill: #0000ff; stroke: #0000ff"/>
     <use xlink:href="#meea09ed81c" x="304.44843" y="35.107409" style="fill: #0000ff; stroke: #0000ff"/>
     <use xlink:href="#meea09ed81c" x="307.727769" y="35.079877" style="fill: #0000ff; stroke: #0000ff"/>
     <use xlink:href="#meea09ed81c" x="311.007107" y="35.053297" style="fill: #0000ff; stroke: #0000ff"/>
     <use xlink:href="#meea09ed81c" x="314.286446" y="35.027459" style="fill: #0000ff; stroke: #0000ff"/>
     <use xlink:href="#meea09ed81c" x="317.565785" y="35.001768" style="fill: #0000ff; stroke: #0000ff"/>
     <use xlink:href="#meea09ed81c" x="320.845124" y="34.976422" style="fill: #0000ff; stroke: #0000ff"/>
     <use xlink:href="#meea09ed81c" x="324.124463" y="34.951769" style="fill: #0000ff; stroke: #0000ff"/>
     <use xlink:href="#meea09ed81c" x="327.403802" y="34.927499" style="fill: #0000ff; stroke: #0000ff"/>
     <use xlink:href="#meea09ed81c" x="330.68314" y="34.903502" style="fill: #0000ff; stroke: #0000ff"/>
     <use xlink:href="#meea09ed81c" x="333.962479" y="34.879708" style="fill: #0000ff; stroke: #0000ff"/>
     <use xlink:href="#meea09ed81c" x="337.241818" y="34.856066" style="fill: #0000ff; stroke: #0000ff"/>
     <use xlink:href="#meea09ed81c" x="340.521157" y="34.832781" style="fill: #0000ff; stroke: #0000ff"/>
     <use xlink:href="#meea09ed81c" x="343.800496" y="34.810008" style="fill: #0000ff; stroke: #0000ff"/>
     <use xlink:href="#meea09ed81c" x="347.079835" y="34.787579" style="fill: #0000ff; stroke: #0000ff"/>
     <use xlink:href="#meea09ed81c" x="350.359174" y="34.765579" style="fill: #0000ff; stroke: #0000ff"/>
     <use xlink:href="#meea09ed81c" x="353.638512" y="34.743758" style="fill: #0000ff; stroke: #0000ff"/>
     <use xlink:href="#meea09ed81c" x="356.917851" y="34.722273" style="fill: #0000ff; stroke: #0000ff"/>
     <use xlink:href="#meea09ed81c" x="360.19719" y="34.701436" style="fill: #0000ff; stroke: #0000ff"/>
     <use xlink:href="#meea09ed81c" x="363.476529" y="34.680512" style="fill: #0000ff; stroke: #0000ff"/>
     <use xlink:href="#meea09ed81c" x="366.755868" y="34.659929" style="fill: #0000ff; stroke: #0000ff"/>
     <use xlink:href="#meea09ed81c" x="370.035207" y="34.639398" style="fill: #0000ff; stroke: #0000ff"/>
     <use xlink:href="#meea09ed81c" x="373.314545" y="34.61932" style="fill: #0000ff; stroke: #0000ff"/>
     <use xlink:href="#meea09ed81c" x="376.593884" y="34.599487" style="fill: #0000ff; stroke: #0000ff"/>
     <use xlink:href="#meea09ed81c" x="379.873223" y="34.579917" style="fill: #0000ff; stroke: #0000ff"/>
     <use xlink:href="#meea09ed81c" x="383.152562" y="34.560598" style="fill: #0000ff; stroke: #0000ff"/>
     <use xlink:href="#meea09ed81c" x="386.431901" y="34.541637" style="fill: #0000ff; stroke: #0000ff"/>
     <use xlink:href="#meea09ed81c" x="389.71124" y="34.522836" style="fill: #0000ff; stroke: #0000ff"/>
     <use xlink:href="#meea09ed81c" x="392.990579" y="34.504337" style="fill: #0000ff; stroke: #0000ff"/>
     <use xlink:href="#meea09ed81c" x="396.269917" y="34.486093" style="fill: #0000ff; stroke: #0000ff"/>
     <use xlink:href="#meea09ed81c" x="399.549256" y="34.467996" style="fill: #0000ff; stroke: #0000ff"/>
     <use xlink:href="#meea09ed81c" x="402.828595" y="34.449942" style="fill: #0000ff; stroke: #0000ff"/>
     <use xlink:href="#meea09ed81c" x="406.107934" y="34.432101" style="fill: #0000ff; stroke: #0000ff"/>
     <use xlink:href="#meea09ed81c" x="409.387273" y="34.414806" style="fill: #0000ff; stroke: #0000ff"/>
    </g>
   </g>
   <g id="patch_3">
    <path d="M 68.5 288.430125 
L 68.5 22.318125 
" style="fill: none; stroke: #000000; stroke-width: 0.8; stroke-linejoin: miter; stroke-linecap: square"/>
   </g>
   <g id="patch_4">
    <path d="M 425.62 288.430125 
L 425.62 22.318125 
" style="fill: none; stroke: #000000; stroke-width: 0.8; stroke-linejoin: miter; stroke-linecap: square"/>
   </g>
   <g id="patch_5">
    <path d="M 68.5 288.430125 
L 425.62 288.430125 
" style="fill: none; stroke: #000000; stroke-width: 0.8; stroke-linejoin: miter; stroke-linecap: square"/>
   </g>
   <g id="patch_6">
    <path d="M 68.5 22.318125 
L 425.62 22.318125 
" style="fill: none; stroke: #000000; stroke-width: 0.8; stroke-linejoin: miter; stroke-linecap: square"/>
   </g>
   <g id="text_17">
    <!-- Density Distribution, burkert -->
    <g transform="translate(161.680938 16.318125) scale(0.12 -0.12)">
     <defs>
      <path id="DejaVuSans-44" d="M 1259 4147 
L 1259 519 
L 2022 519 
Q 2988 519 3436 956 
Q 3884 1394 3884 2338 
Q 3884 3275 3436 3711 
Q 2988 4147 2022 4147 
L 1259 4147 
z
M 628 4666 
L 1925 4666 
Q 3281 4666 3915 4102 
Q 4550 3538 4550 2338 
Q 4550 1131 3912 565 
Q 3275 0 1925 0 
L 628 0 
L 628 4666 
z
" transform="scale(0.015625)"/>
      <path id="DejaVuSans-65" d="M 3597 1894 
L 3597 1613 
L 953 1613 
Q 991 1019 1311 708 
Q 1631 397 2203 397 
Q 2534 397 2845 478 
Q 3156 559 3463 722 
L 3463 178 
Q 3153 47 2828 -22 
Q 2503 -91 2169 -91 
Q 1331 -91 842 396 
Q 353 884 353 1716 
Q 353 2575 817 3079 
Q 1281 3584 2069 3584 
Q 2775 3584 3186 3129 
Q 3597 2675 3597 1894 
z
M 3022 2063 
Q 3016 2534 2758 2815 
Q 2500 3097 2075 3097 
Q 1594 3097 1305 2825 
Q 1016 2553 972 2059 
L 3022 2063 
z
" transform="scale(0.015625)"/>
      <path id="DejaVuSans-6e" d="M 3513 2113 
L 3513 0 
L 2938 0 
L 2938 2094 
Q 2938 2591 2744 2837 
Q 2550 3084 2163 3084 
Q 1697 3084 1428 2787 
Q 1159 2491 1159 1978 
L 1159 0 
L 581 0 
L 581 3500 
L 1159 3500 
L 1159 2956 
Q 1366 3272 1645 3428 
Q 1925 3584 2291 3584 
Q 2894 3584 3203 3211 
Q 3513 2838 3513 2113 
z
" transform="scale(0.015625)"/>
      <path id="DejaVuSans-73" d="M 2834 3397 
L 2834 2853 
Q 2591 2978 2328 3040 
Q 2066 3103 1784 3103 
Q 1356 3103 1142 2972 
Q 928 2841 928 2578 
Q 928 2378 1081 2264 
Q 1234 2150 1697 2047 
L 1894 2003 
Q 2506 1872 2764 1633 
Q 3022 1394 3022 966 
Q 3022 478 2636 193 
Q 2250 -91 1575 -91 
Q 1294 -91 989 -36 
Q 684 19 347 128 
L 347 722 
Q 666 556 975 473 
Q 1284 391 1588 391 
Q 1994 391 2212 530 
Q 2431 669 2431 922 
Q 2431 1156 2273 1281 
Q 2116 1406 1581 1522 
L 1381 1569 
Q 847 1681 609 1914 
Q 372 2147 372 2553 
Q 372 3047 722 3315 
Q 1072 3584 1716 3584 
Q 2034 3584 2315 3537 
Q 2597 3491 2834 3397 
z
" transform="scale(0.015625)"/>
      <path id="DejaVuSans-69" d="M 603 3500 
L 1178 3500 
L 1178 0 
L 603 0 
L 603 3500 
z
M 603 4863 
L 1178 4863 
L 1178 4134 
L 603 4134 
L 603 4863 
z
" transform="scale(0.015625)"/>
      <path id="DejaVuSans-74" d="M 1172 4494 
L 1172 3500 
L 2356 3500 
L 2356 3053 
L 1172 3053 
L 1172 1153 
Q 1172 725 1289 603 
Q 1406 481 1766 481 
L 2356 481 
L 2356 0 
L 1766 0 
Q 1100 0 847 248 
Q 594 497 594 1153 
L 594 3053 
L 172 3053 
L 172 3500 
L 594 3500 
L 594 4494 
L 1172 4494 
z
" transform="scale(0.015625)"/>
      <path id="DejaVuSans-79" d="M 2059 -325 
Q 1816 -950 1584 -1140 
Q 1353 -1331 966 -1331 
L 506 -1331 
L 506 -850 
L 844 -850 
Q 1081 -850 1212 -737 
Q 1344 -625 1503 -206 
L 1606 56 
L 191 3500 
L 800 3500 
L 1894 763 
L 2988 3500 
L 3597 3500 
L 2059 -325 
z
" transform="scale(0.015625)"/>
      <path id="DejaVuSans-72" d="M 2631 2963 
Q 2534 3019 2420 3045 
Q 2306 3072 2169 3072 
Q 1681 3072 1420 2755 
Q 1159 2438 1159 1844 
L 1159 0 
L 581 0 
L 581 3500 
L 1159 3500 
L 1159 2956 
Q 1341 3275 1631 3429 
Q 1922 3584 2338 3584 
Q 2397 3584 2469 3576 
Q 2541 3569 2628 3553 
L 2631 2963 
z
" transform="scale(0.015625)"/>
      <path id="DejaVuSans-62" d="M 3116 1747 
Q 3116 2381 2855 2742 
Q 2594 3103 2138 3103 
Q 1681 3103 1420 2742 
Q 1159 2381 1159 1747 
Q 1159 1113 1420 752 
Q 1681 391 2138 391 
Q 2594 391 2855 752 
Q 3116 1113 3116 1747 
z
M 1159 2969 
Q 1341 3281 1617 3432 
Q 1894 3584 2278 3584 
Q 2916 3584 3314 3078 
Q 3713 2572 3713 1747 
Q 3713 922 3314 415 
Q 2916 -91 2278 -91 
Q 1894 -91 1617 61 
Q 1341 213 1159 525 
L 1159 0 
L 581 0 
L 581 4863 
L 1159 4863 
L 1159 2969 
z
" transform="scale(0.015625)"/>
      <path id="DejaVuSans-75" d="M 544 1381 
L 544 3500 
L 1119 3500 
L 1119 1403 
Q 1119 906 1312 657 
Q 1506 409 1894 409 
Q 2359 409 2629 706 
Q 2900 1003 2900 1516 
L 2900 3500 
L 3475 3500 
L 3475 0 
L 2900 0 
L 2900 538 
Q 2691 219 2414 64 
Q 2138 -91 1772 -91 
Q 1169 -91 856 284 
Q 544 659 544 1381 
z
M 1991 3584 
L 1991 3584 
z
" transform="scale(0.015625)"/>
      <path id="DejaVuSans-6f" d="M 1959 3097 
Q 1497 3097 1228 2736 
Q 959 2375 959 1747 
Q 959 1119 1226 758 
Q 1494 397 1959 397 
Q 2419 397 2687 759 
Q 2956 1122 2956 1747 
Q 2956 2369 2687 2733 
Q 2419 3097 1959 3097 
z
M 1959 3584 
Q 2709 3584 3137 3096 
Q 3566 2609 3566 1747 
Q 3566 888 3137 398 
Q 2709 -91 1959 -91 
Q 1206 -91 779 398 
Q 353 888 353 1747 
Q 353 2609 779 3096 
Q 1206 3584 1959 3584 
z
" transform="scale(0.015625)"/>
      <path id="DejaVuSans-2c" d="M 750 794 
L 1409 794 
L 1409 256 
L 897 -744 
L 494 -744 
L 750 256 
L 750 794 
z
" transform="scale(0.015625)"/>
     </defs>
     <use xlink:href="#DejaVuSans-44"/>
     <use xlink:href="#DejaVuSans-65" x="77.001953"/>
     <use xlink:href="#DejaVuSans-6e" x="138.525391"/>
     <use xlink:href="#DejaVuSans-73" x="201.904297"/>
     <use xlink:href="#DejaVuSans-69" x="254.003906"/>
     <use xlink:href="#DejaVuSans-74" x="281.787109"/>
     <use xlink:href="#DejaVuSans-79" x="320.996094"/>
     <use xlink:href="#DejaVuSans-20" x="380.175781"/>
     <use xlink:href="#DejaVuSans-44" x="411.962891"/>
     <use xlink:href="#DejaVuSans-69" x="488.964844"/>
     <use xlink:href="#DejaVuSans-73" x="516.748047"/>
     <use xlink:href="#DejaVuSans-74" x="568.847656"/>
     <use xlink:href="#DejaVuSans-72" x="608.056641"/>
     <use xlink:href="#DejaVuSans-69" x="649.169922"/>
     <use xlink:href="#DejaVuSans-62" x="676.953125"/>
     <use xlink:href="#DejaVuSans-75" x="740.429688"/>
     <use xlink:href="#DejaVuSans-74" x="803.808594"/>
     <use xlink:href="#DejaVuSans-69" x="843.017578"/>
     <use xlink:href="#DejaVuSans-6f" x="870.800781"/>
     <use xlink:href="#DejaVuSans-6e" x="931.982422"/>
     <use xlink:href="#DejaVuSans-2c" x="995.361328"/>
     <use xlink:href="#DejaVuSans-20" x="1027.148438"/>
     <use xlink:href="#DejaVuSans-62" x="1058.935547"/>
     <use xlink:href="#DejaVuSans-75" x="1122.412109"/>
     <use xlink:href="#DejaVuSans-72" x="1185.791016"/>
     <use xlink:href="#DejaVuSans-6b" x="1226.904297"/>
     <use xlink:href="#DejaVuSans-65" x="1281.189453"/>
     <use xlink:href="#DejaVuSans-72" x="1342.712891"/>
     <use xlink:href="#DejaVuSans-74" x="1383.826172"/>
    </g>
   </g>
  </g>
 </g>
 <defs>
  <clipPath id="p37e2ef0903">
   <rect x="68.5" y="22.318125" width="357.12" height="266.112"/>
  </clipPath>
 </defs>
</svg>
