<?xml version="1.0" encoding="utf-8" standalone="no"?>
<!DOCTYPE svg PUBLIC "-//W3C//DTD SVG 1.1//EN"
  "http://www.w3.org/Graphics/SVG/1.1/DTD/svg11.dtd">
<svg xmlns:xlink="http://www.w3.org/1999/xlink" width="388.06375pt" height="331.144812pt" viewBox="0 0 388.06375 331.144812" xmlns="http://www.w3.org/2000/svg" version="1.1">
 <metadata>
  <rdf:RDF xmlns:dc="http://purl.org/dc/elements/1.1/" xmlns:cc="http://creativecommons.org/ns#" xmlns:rdf="http://www.w3.org/1999/02/22-rdf-syntax-ns#">
   <cc:Work>
    <dc:type rdf:resource="http://purl.org/dc/dcmitype/StillImage"/>
    <dc:date>2024-04-26T18:59:04.257650</dc:date>
    <dc:format>image/svg+xml</dc:format>
    <dc:creator>
     <cc:Agent>
      <dc:title>Matplotlib v3.8.3, https://matplotlib.org/</dc:title>
     </cc:Agent>
    </dc:creator>
   </cc:Work>
  </rdf:RDF>
 </metadata>
 <defs>
  <style type="text/css">*{stroke-linejoin: round; stroke-linecap: butt}</style>
 </defs>
 <g id="figure_1">
  <g id="patch_1">
   <path d="M 0 331.144812 
L 388.06375 331.144812 
L 388.06375 0 
L 0 0 
z
" style="fill: #ffffff"/>
  </g>
  <g id="axes_1">
   <g id="patch_2">
    <path d="M 23.74375 283.910437 
L 380.86375 283.910437 
L 380.86375 17.798437 
L 23.74375 17.798437 
z
" style="fill: #ffffff"/>
   </g>
   <g id="patch_3">
    <path d="M 39.976477 283.910437 
L 41.607907 283.910437 
L 41.607907 283.494621 
L 39.976477 283.494621 
z
" clip-path="url(#p23acb2fd69)" style="fill: #1f77b4"/>
   </g>
   <g id="patch_4">
    <path d="M 41.607907 283.910437 
L 43.239337 283.910437 
L 43.239337 283.461088 
L 41.607907 283.461088 
z
" clip-path="url(#p23acb2fd69)" style="fill: #1f77b4"/>
   </g>
   <g id="patch_5">
    <path d="M 43.239337 283.910437 
L 44.870767 283.910437 
L 44.870767 283.377254 
L 43.239337 283.377254 
z
" clip-path="url(#p23acb2fd69)" style="fill: #1f77b4"/>
   </g>
   <g id="patch_6">
    <path d="M 44.870767 283.910437 
L 46.502197 283.910437 
L 46.502197 283.430907 
L 44.870767 283.430907 
z
" clip-path="url(#p23acb2fd69)" style="fill: #1f77b4"/>
   </g>
   <g id="patch_7">
    <path d="M 46.502197 283.910437 
L 48.133627 283.910437 
L 48.133627 283.440968 
L 46.502197 283.440968 
z
" clip-path="url(#p23acb2fd69)" style="fill: #1f77b4"/>
   </g>
   <g id="patch_8">
    <path d="M 48.133627 283.910437 
L 49.765057 283.910437 
L 49.765057 283.528155 
L 48.133627 283.528155 
z
" clip-path="url(#p23acb2fd69)" style="fill: #1f77b4"/>
   </g>
   <g id="patch_9">
    <path d="M 49.765057 283.910437 
L 51.396486 283.910437 
L 51.396486 283.427554 
L 49.765057 283.427554 
z
" clip-path="url(#p23acb2fd69)" style="fill: #1f77b4"/>
   </g>
   <g id="patch_10">
    <path d="M 51.396486 283.910437 
L 53.027916 283.910437 
L 53.027916 283.407434 
L 51.396486 283.407434 
z
" clip-path="url(#p23acb2fd69)" style="fill: #1f77b4"/>
   </g>
   <g id="patch_11">
    <path d="M 53.027916 283.910437 
L 54.659346 283.910437 
L 54.659346 283.407434 
L 53.027916 283.407434 
z
" clip-path="url(#p23acb2fd69)" style="fill: #1f77b4"/>
   </g>
   <g id="patch_12">
    <path d="M 54.659346 283.910437 
L 56.290776 283.910437 
L 56.290776 283.440968 
L 54.659346 283.440968 
z
" clip-path="url(#p23acb2fd69)" style="fill: #1f77b4"/>
   </g>
   <g id="patch_13">
    <path d="M 56.290776 283.910437 
L 57.922206 283.910437 
L 57.922206 283.370547 
L 56.290776 283.370547 
z
" clip-path="url(#p23acb2fd69)" style="fill: #1f77b4"/>
   </g>
   <g id="patch_14">
    <path d="M 57.922206 283.910437 
L 59.553636 283.910437 
L 59.553636 283.407434 
L 57.922206 283.407434 
z
" clip-path="url(#p23acb2fd69)" style="fill: #1f77b4"/>
   </g>
   <g id="patch_15">
    <path d="M 59.553636 283.910437 
L 61.185066 283.910437 
L 61.185066 283.306833 
L 59.553636 283.306833 
z
" clip-path="url(#p23acb2fd69)" style="fill: #1f77b4"/>
   </g>
   <g id="patch_16">
    <path d="M 61.185066 283.910437 
L 62.816496 283.910437 
L 62.816496 283.266593 
L 61.185066 283.266593 
z
" clip-path="url(#p23acb2fd69)" style="fill: #1f77b4"/>
   </g>
   <g id="patch_17">
    <path d="M 62.816496 283.910437 
L 64.447925 283.910437 
L 64.447925 283.256533 
L 62.816496 283.256533 
z
" clip-path="url(#p23acb2fd69)" style="fill: #1f77b4"/>
   </g>
   <g id="patch_18">
    <path d="M 64.447925 283.910437 
L 66.079355 283.910437 
L 66.079355 283.226353 
L 64.447925 283.226353 
z
" clip-path="url(#p23acb2fd69)" style="fill: #1f77b4"/>
   </g>
   <g id="patch_19">
    <path d="M 66.079355 283.910437 
L 67.710785 283.910437 
L 67.710785 283.172699 
L 66.079355 283.172699 
z
" clip-path="url(#p23acb2fd69)" style="fill: #1f77b4"/>
   </g>
   <g id="patch_20">
    <path d="M 67.710785 283.910437 
L 69.342215 283.910437 
L 69.342215 283.102279 
L 67.710785 283.102279 
z
" clip-path="url(#p23acb2fd69)" style="fill: #1f77b4"/>
   </g>
   <g id="patch_21">
    <path d="M 69.342215 283.910437 
L 70.973645 283.910437 
L 70.973645 283.031858 
L 69.342215 283.031858 
z
" clip-path="url(#p23acb2fd69)" style="fill: #1f77b4"/>
   </g>
   <g id="patch_22">
    <path d="M 70.973645 283.910437 
L 72.605075 283.910437 
L 72.605075 283.105632 
L 70.973645 283.105632 
z
" clip-path="url(#p23acb2fd69)" style="fill: #1f77b4"/>
   </g>
   <g id="patch_23">
    <path d="M 72.605075 283.910437 
L 74.236505 283.910437 
L 74.236505 283.031858 
L 72.605075 283.031858 
z
" clip-path="url(#p23acb2fd69)" style="fill: #1f77b4"/>
   </g>
   <g id="patch_24">
    <path d="M 74.236505 283.910437 
L 75.867935 283.910437 
L 75.867935 283.051978 
L 74.236505 283.051978 
z
" clip-path="url(#p23acb2fd69)" style="fill: #1f77b4"/>
   </g>
   <g id="patch_25">
    <path d="M 75.867935 283.910437 
L 77.499364 283.910437 
L 77.499364 282.89437 
L 75.867935 282.89437 
z
" clip-path="url(#p23acb2fd69)" style="fill: #1f77b4"/>
   </g>
   <g id="patch_26">
    <path d="M 77.499364 283.910437 
L 79.130794 283.910437 
L 79.130794 282.978204 
L 77.499364 282.978204 
z
" clip-path="url(#p23acb2fd69)" style="fill: #1f77b4"/>
   </g>
   <g id="patch_27">
    <path d="M 79.130794 283.910437 
L 80.762224 283.910437 
L 80.762224 282.897724 
L 79.130794 282.897724 
z
" clip-path="url(#p23acb2fd69)" style="fill: #1f77b4"/>
   </g>
   <g id="patch_28">
    <path d="M 80.762224 283.910437 
L 82.393654 283.910437 
L 82.393654 282.810536 
L 80.762224 282.810536 
z
" clip-path="url(#p23acb2fd69)" style="fill: #1f77b4"/>
   </g>
   <g id="patch_29">
    <path d="M 82.393654 283.910437 
L 84.025084 283.910437 
L 84.025084 282.679756 
L 82.393654 282.679756 
z
" clip-path="url(#p23acb2fd69)" style="fill: #1f77b4"/>
   </g>
   <g id="patch_30">
    <path d="M 84.025084 283.910437 
L 85.656514 283.910437 
L 85.656514 282.696522 
L 84.025084 282.696522 
z
" clip-path="url(#p23acb2fd69)" style="fill: #1f77b4"/>
   </g>
   <g id="patch_31">
    <path d="M 85.656514 283.910437 
L 87.287944 283.910437 
L 87.287944 282.609335 
L 85.656514 282.609335 
z
" clip-path="url(#p23acb2fd69)" style="fill: #1f77b4"/>
   </g>
   <g id="patch_32">
    <path d="M 87.287944 283.910437 
L 88.919374 283.910437 
L 88.919374 282.310886 
L 87.287944 282.310886 
z
" clip-path="url(#p23acb2fd69)" style="fill: #1f77b4"/>
   </g>
   <g id="patch_33">
    <path d="M 88.919374 283.910437 
L 90.550803 283.910437 
L 90.550803 282.448374 
L 88.919374 282.448374 
z
" clip-path="url(#p23acb2fd69)" style="fill: #1f77b4"/>
   </g>
   <g id="patch_34">
    <path d="M 90.550803 283.910437 
L 92.182233 283.910437 
L 92.182233 282.233759 
L 90.550803 282.233759 
z
" clip-path="url(#p23acb2fd69)" style="fill: #1f77b4"/>
   </g>
   <g id="patch_35">
    <path d="M 92.182233 283.910437 
L 93.813663 283.910437 
L 93.813663 282.113038 
L 92.182233 282.113038 
z
" clip-path="url(#p23acb2fd69)" style="fill: #1f77b4"/>
   </g>
   <g id="patch_36">
    <path d="M 93.813663 283.910437 
L 95.445093 283.910437 
L 95.445093 282.30418 
L 93.813663 282.30418 
z
" clip-path="url(#p23acb2fd69)" style="fill: #1f77b4"/>
   </g>
   <g id="patch_37">
    <path d="M 95.445093 283.910437 
L 97.076523 283.910437 
L 97.076523 281.828003 
L 95.445093 281.828003 
z
" clip-path="url(#p23acb2fd69)" style="fill: #1f77b4"/>
   </g>
   <g id="patch_38">
    <path d="M 97.076523 283.910437 
L 98.707953 283.910437 
L 98.707953 282.082858 
L 97.076523 282.082858 
z
" clip-path="url(#p23acb2fd69)" style="fill: #1f77b4"/>
   </g>
   <g id="patch_39">
    <path d="M 98.707953 283.910437 
L 100.339383 283.910437 
L 100.339383 281.817943 
L 98.707953 281.817943 
z
" clip-path="url(#p23acb2fd69)" style="fill: #1f77b4"/>
   </g>
   <g id="patch_40">
    <path d="M 100.339383 283.910437 
L 101.970813 283.910437 
L 101.970813 281.750876 
L 100.339383 281.750876 
z
" clip-path="url(#p23acb2fd69)" style="fill: #1f77b4"/>
   </g>
   <g id="patch_41">
    <path d="M 101.970813 283.910437 
L 103.602242 283.910437 
L 103.602242 281.646922 
L 101.970813 281.646922 
z
" clip-path="url(#p23acb2fd69)" style="fill: #1f77b4"/>
   </g>
   <g id="patch_42">
    <path d="M 103.602242 283.910437 
L 105.233672 283.910437 
L 105.233672 281.44572 
L 103.602242 281.44572 
z
" clip-path="url(#p23acb2fd69)" style="fill: #1f77b4"/>
   </g>
   <g id="patch_43">
    <path d="M 105.233672 283.910437 
L 106.865102 283.910437 
L 106.865102 281.348473 
L 105.233672 281.348473 
z
" clip-path="url(#p23acb2fd69)" style="fill: #1f77b4"/>
   </g>
   <g id="patch_44">
    <path d="M 106.865102 283.910437 
L 108.496532 283.910437 
L 108.496532 281.200925 
L 106.865102 281.200925 
z
" clip-path="url(#p23acb2fd69)" style="fill: #1f77b4"/>
   </g>
   <g id="patch_45">
    <path d="M 108.496532 283.910437 
L 110.127962 283.910437 
L 110.127962 281.150625 
L 108.496532 281.150625 
z
" clip-path="url(#p23acb2fd69)" style="fill: #1f77b4"/>
   </g>
   <g id="patch_46">
    <path d="M 110.127962 283.910437 
L 111.759392 283.910437 
L 111.759392 280.91589 
L 110.127962 280.91589 
z
" clip-path="url(#p23acb2fd69)" style="fill: #1f77b4"/>
   </g>
   <g id="patch_47">
    <path d="M 111.759392 283.910437 
L 113.390822 283.910437 
L 113.390822 280.704628 
L 111.759392 280.704628 
z
" clip-path="url(#p23acb2fd69)" style="fill: #1f77b4"/>
   </g>
   <g id="patch_48">
    <path d="M 113.390822 283.910437 
L 115.022252 283.910437 
L 115.022252 280.714688 
L 113.390822 280.714688 
z
" clip-path="url(#p23acb2fd69)" style="fill: #1f77b4"/>
   </g>
   <g id="patch_49">
    <path d="M 115.022252 283.910437 
L 116.653681 283.910437 
L 116.653681 280.533607 
L 115.022252 280.533607 
z
" clip-path="url(#p23acb2fd69)" style="fill: #1f77b4"/>
   </g>
   <g id="patch_50">
    <path d="M 116.653681 283.910437 
L 118.285111 283.910437 
L 118.285111 280.137911 
L 116.653681 280.137911 
z
" clip-path="url(#p23acb2fd69)" style="fill: #1f77b4"/>
   </g>
   <g id="patch_51">
    <path d="M 118.285111 283.910437 
L 119.916541 283.910437 
L 119.916541 280.080904 
L 118.285111 280.080904 
z
" clip-path="url(#p23acb2fd69)" style="fill: #1f77b4"/>
   </g>
   <g id="patch_52">
    <path d="M 119.916541 283.910437 
L 121.547971 283.910437 
L 121.547971 280.074197 
L 119.916541 280.074197 
z
" clip-path="url(#p23acb2fd69)" style="fill: #1f77b4"/>
   </g>
   <g id="patch_53">
    <path d="M 121.547971 283.910437 
L 123.179401 283.910437 
L 123.179401 279.795869 
L 121.547971 279.795869 
z
" clip-path="url(#p23acb2fd69)" style="fill: #1f77b4"/>
   </g>
   <g id="patch_54">
    <path d="M 123.179401 283.910437 
L 124.810831 283.910437 
L 124.810831 279.500773 
L 123.179401 279.500773 
z
" clip-path="url(#p23acb2fd69)" style="fill: #1f77b4"/>
   </g>
   <g id="patch_55">
    <path d="M 124.810831 283.910437 
L 126.442261 283.910437 
L 126.442261 279.598021 
L 124.810831 279.598021 
z
" clip-path="url(#p23acb2fd69)" style="fill: #1f77b4"/>
   </g>
   <g id="patch_56">
    <path d="M 126.442261 283.910437 
L 128.073691 283.910437 
L 128.073691 279.235858 
L 126.442261 279.235858 
z
" clip-path="url(#p23acb2fd69)" style="fill: #1f77b4"/>
   </g>
   <g id="patch_57">
    <path d="M 128.073691 283.910437 
L 129.70512 283.910437 
L 129.70512 279.014537 
L 128.073691 279.014537 
z
" clip-path="url(#p23acb2fd69)" style="fill: #1f77b4"/>
   </g>
   <g id="patch_58">
    <path d="M 129.70512 283.910437 
L 131.33655 283.910437 
L 131.33655 278.481353 
L 129.70512 278.481353 
z
" clip-path="url(#p23acb2fd69)" style="fill: #1f77b4"/>
   </g>
   <g id="patch_59">
    <path d="M 131.33655 283.910437 
L 132.96798 283.910437 
L 132.96798 278.280151 
L 131.33655 278.280151 
z
" clip-path="url(#p23acb2fd69)" style="fill: #1f77b4"/>
   </g>
   <g id="patch_60">
    <path d="M 132.96798 283.910437 
L 134.59941 283.910437 
L 134.59941 278.219791 
L 132.96798 278.219791 
z
" clip-path="url(#p23acb2fd69)" style="fill: #1f77b4"/>
   </g>
   <g id="patch_61">
    <path d="M 134.59941 283.910437 
L 136.23084 283.910437 
L 136.23084 277.887809 
L 134.59941 277.887809 
z
" clip-path="url(#p23acb2fd69)" style="fill: #1f77b4"/>
   </g>
   <g id="patch_62">
    <path d="M 136.23084 283.910437 
L 137.86227 283.910437 
L 137.86227 277.817388 
L 136.23084 277.817388 
z
" clip-path="url(#p23acb2fd69)" style="fill: #1f77b4"/>
   </g>
   <g id="patch_63">
    <path d="M 137.86227 283.910437 
L 139.4937 283.910437 
L 139.4937 277.542413 
L 137.86227 277.542413 
z
" clip-path="url(#p23acb2fd69)" style="fill: #1f77b4"/>
   </g>
   <g id="patch_64">
    <path d="M 139.4937 283.910437 
L 141.12513 283.910437 
L 141.12513 277.482053 
L 139.4937 277.482053 
z
" clip-path="url(#p23acb2fd69)" style="fill: #1f77b4"/>
   </g>
   <g id="patch_65">
    <path d="M 141.12513 283.910437 
L 142.75656 283.910437 
L 142.75656 277.237257 
L 141.12513 277.237257 
z
" clip-path="url(#p23acb2fd69)" style="fill: #1f77b4"/>
   </g>
   <g id="patch_66">
    <path d="M 142.75656 283.910437 
L 144.387989 283.910437 
L 144.387989 276.854975 
L 142.75656 276.854975 
z
" clip-path="url(#p23acb2fd69)" style="fill: #1f77b4"/>
   </g>
   <g id="patch_67">
    <path d="M 144.387989 283.910437 
L 146.019419 283.910437 
L 146.019419 276.848268 
L 144.387989 276.848268 
z
" clip-path="url(#p23acb2fd69)" style="fill: #1f77b4"/>
   </g>
   <g id="patch_68">
    <path d="M 146.019419 283.910437 
L 147.650849 283.910437 
L 147.650849 276.435805 
L 146.019419 276.435805 
z
" clip-path="url(#p23acb2fd69)" style="fill: #1f77b4"/>
   </g>
   <g id="patch_69">
    <path d="M 147.650849 283.910437 
L 149.282279 283.910437 
L 149.282279 276.070289 
L 147.650849 276.070289 
z
" clip-path="url(#p23acb2fd69)" style="fill: #1f77b4"/>
   </g>
   <g id="patch_70">
    <path d="M 149.282279 283.910437 
L 150.913709 283.910437 
L 150.913709 275.369438 
L 149.282279 275.369438 
z
" clip-path="url(#p23acb2fd69)" style="fill: #1f77b4"/>
   </g>
   <g id="patch_71">
    <path d="M 150.913709 283.910437 
L 152.545139 283.910437 
L 152.545139 274.893261 
L 150.913709 274.893261 
z
" clip-path="url(#p23acb2fd69)" style="fill: #1f77b4"/>
   </g>
   <g id="patch_72">
    <path d="M 152.545139 283.910437 
L 154.176569 283.910437 
L 154.176569 274.695413 
L 152.545139 274.695413 
z
" clip-path="url(#p23acb2fd69)" style="fill: #1f77b4"/>
   </g>
   <g id="patch_73">
    <path d="M 154.176569 283.910437 
L 155.807999 283.910437 
L 155.807999 273.887254 
L 154.176569 273.887254 
z
" clip-path="url(#p23acb2fd69)" style="fill: #1f77b4"/>
   </g>
   <g id="patch_74">
    <path d="M 155.807999 283.910437 
L 157.439428 283.910437 
L 157.439428 273.474791 
L 155.807999 273.474791 
z
" clip-path="url(#p23acb2fd69)" style="fill: #1f77b4"/>
   </g>
   <g id="patch_75">
    <path d="M 157.439428 283.910437 
L 159.070858 283.910437 
L 159.070858 272.901367 
L 157.439428 272.901367 
z
" clip-path="url(#p23acb2fd69)" style="fill: #1f77b4"/>
   </g>
   <g id="patch_76">
    <path d="M 159.070858 283.910437 
L 160.702288 283.910437 
L 160.702288 272.408424 
L 159.070858 272.408424 
z
" clip-path="url(#p23acb2fd69)" style="fill: #1f77b4"/>
   </g>
   <g id="patch_77">
    <path d="M 160.702288 283.910437 
L 162.333718 283.910437 
L 162.333718 271.761226 
L 160.702288 271.761226 
z
" clip-path="url(#p23acb2fd69)" style="fill: #1f77b4"/>
   </g>
   <g id="patch_78">
    <path d="M 162.333718 283.910437 
L 163.965148 283.910437 
L 163.965148 271.308523 
L 162.333718 271.308523 
z
" clip-path="url(#p23acb2fd69)" style="fill: #1f77b4"/>
   </g>
   <g id="patch_79">
    <path d="M 163.965148 283.910437 
L 165.596578 283.910437 
L 165.596578 270.533897 
L 163.965148 270.533897 
z
" clip-path="url(#p23acb2fd69)" style="fill: #1f77b4"/>
   </g>
   <g id="patch_80">
    <path d="M 165.596578 283.910437 
L 167.228008 283.910437 
L 167.228008 269.182494 
L 165.596578 269.182494 
z
" clip-path="url(#p23acb2fd69)" style="fill: #1f77b4"/>
   </g>
   <g id="patch_81">
    <path d="M 167.228008 283.910437 
L 168.859438 283.910437 
L 168.859438 268.52859 
L 167.228008 268.52859 
z
" clip-path="url(#p23acb2fd69)" style="fill: #1f77b4"/>
   </g>
   <g id="patch_82">
    <path d="M 168.859438 283.910437 
L 170.490867 283.910437 
L 170.490867 267.63995 
L 168.859438 267.63995 
z
" clip-path="url(#p23acb2fd69)" style="fill: #1f77b4"/>
   </g>
   <g id="patch_83">
    <path d="M 170.490867 283.910437 
L 172.122297 283.910437 
L 172.122297 266.848558 
L 170.490867 266.848558 
z
" clip-path="url(#p23acb2fd69)" style="fill: #1f77b4"/>
   </g>
   <g id="patch_84">
    <path d="M 172.122297 283.910437 
L 173.753727 283.910437 
L 173.753727 265.399908 
L 172.122297 265.399908 
z
" clip-path="url(#p23acb2fd69)" style="fill: #1f77b4"/>
   </g>
   <g id="patch_85">
    <path d="M 173.753727 283.910437 
L 175.385157 283.910437 
L 175.385157 265.15176 
L 173.753727 265.15176 
z
" clip-path="url(#p23acb2fd69)" style="fill: #1f77b4"/>
   </g>
   <g id="patch_86">
    <path d="M 175.385157 283.910437 
L 177.016587 283.910437 
L 177.016587 262.76417 
L 175.385157 262.76417 
z
" clip-path="url(#p23acb2fd69)" style="fill: #1f77b4"/>
   </g>
   <g id="patch_87">
    <path d="M 177.016587 283.910437 
L 178.648017 283.910437 
L 178.648017 261.449654 
L 177.016587 261.449654 
z
" clip-path="url(#p23acb2fd69)" style="fill: #1f77b4"/>
   </g>
   <g id="patch_88">
    <path d="M 178.648017 283.910437 
L 180.279447 283.910437 
L 180.279447 259.786389 
L 178.648017 259.786389 
z
" clip-path="url(#p23acb2fd69)" style="fill: #1f77b4"/>
   </g>
   <g id="patch_89">
    <path d="M 180.279447 283.910437 
L 181.910877 283.910437 
L 181.910877 257.787788 
L 180.279447 257.787788 
z
" clip-path="url(#p23acb2fd69)" style="fill: #1f77b4"/>
   </g>
   <g id="patch_90">
    <path d="M 181.910877 283.910437 
L 183.542306 283.910437 
L 183.542306 256.023922 
L 181.910877 256.023922 
z
" clip-path="url(#p23acb2fd69)" style="fill: #1f77b4"/>
   </g>
   <g id="patch_91">
    <path d="M 183.542306 283.910437 
L 185.173736 283.910437 
L 185.173736 253.911308 
L 183.542306 253.911308 
z
" clip-path="url(#p23acb2fd69)" style="fill: #1f77b4"/>
   </g>
   <g id="patch_92">
    <path d="M 185.173736 283.910437 
L 186.805166 283.910437 
L 186.805166 251.309103 
L 185.173736 251.309103 
z
" clip-path="url(#p23acb2fd69)" style="fill: #1f77b4"/>
   </g>
   <g id="patch_93">
    <path d="M 186.805166 283.910437 
L 188.436596 283.910437 
L 188.436596 249.47817 
L 186.805166 249.47817 
z
" clip-path="url(#p23acb2fd69)" style="fill: #1f77b4"/>
   </g>
   <g id="patch_94">
    <path d="M 188.436596 283.910437 
L 190.068026 283.910437 
L 190.068026 246.225414 
L 188.436596 246.225414 
z
" clip-path="url(#p23acb2fd69)" style="fill: #1f77b4"/>
   </g>
   <g id="patch_95">
    <path d="M 190.068026 283.910437 
L 191.699456 283.910437 
L 191.699456 243.247633 
L 190.068026 243.247633 
z
" clip-path="url(#p23acb2fd69)" style="fill: #1f77b4"/>
   </g>
   <g id="patch_96">
    <path d="M 191.699456 283.910437 
L 193.330886 283.910437 
L 193.330886 239.90769 
L 191.699456 239.90769 
z
" clip-path="url(#p23acb2fd69)" style="fill: #1f77b4"/>
   </g>
   <g id="patch_97">
    <path d="M 193.330886 283.910437 
L 194.962316 283.910437 
L 194.962316 235.618746 
L 193.330886 235.618746 
z
" clip-path="url(#p23acb2fd69)" style="fill: #1f77b4"/>
   </g>
   <g id="patch_98">
    <path d="M 194.962316 283.910437 
L 196.593745 283.910437 
L 196.593745 230.0287 
L 194.962316 230.0287 
z
" clip-path="url(#p23acb2fd69)" style="fill: #1f77b4"/>
   </g>
   <g id="patch_99">
    <path d="M 196.593745 283.910437 
L 198.225175 283.910437 
L 198.225175 225.887305 
L 196.593745 225.887305 
z
" clip-path="url(#p23acb2fd69)" style="fill: #1f77b4"/>
   </g>
   <g id="patch_100">
    <path d="M 198.225175 283.910437 
L 199.856605 283.910437 
L 199.856605 219.817729 
L 198.225175 219.817729 
z
" clip-path="url(#p23acb2fd69)" style="fill: #1f77b4"/>
   </g>
   <g id="patch_101">
    <path d="M 199.856605 283.910437 
L 201.488035 283.910437 
L 201.488035 213.503358 
L 199.856605 213.503358 
z
" clip-path="url(#p23acb2fd69)" style="fill: #1f77b4"/>
   </g>
   <g id="patch_102">
    <path d="M 201.488035 283.910437 
L 203.119465 283.910437 
L 203.119465 206.914012 
L 201.488035 206.914012 
z
" clip-path="url(#p23acb2fd69)" style="fill: #1f77b4"/>
   </g>
   <g id="patch_103">
    <path d="M 203.119465 283.910437 
L 204.750895 283.910437 
L 204.750895 199.493033 
L 203.119465 199.493033 
z
" clip-path="url(#p23acb2fd69)" style="fill: #1f77b4"/>
   </g>
   <g id="patch_104">
    <path d="M 204.750895 283.910437 
L 206.382325 283.910437 
L 206.382325 192.313497 
L 204.750895 192.313497 
z
" clip-path="url(#p23acb2fd69)" style="fill: #1f77b4"/>
   </g>
   <g id="patch_105">
    <path d="M 206.382325 283.910437 
L 208.013755 283.910437 
L 208.013755 184.272147 
L 206.382325 184.272147 
z
" clip-path="url(#p23acb2fd69)" style="fill: #1f77b4"/>
   </g>
   <g id="patch_106">
    <path d="M 208.013755 283.910437 
L 209.645184 283.910437 
L 209.645184 175.566833 
L 208.013755 175.566833 
z
" clip-path="url(#p23acb2fd69)" style="fill: #1f77b4"/>
   </g>
   <g id="patch_107">
    <path d="M 209.645184 283.910437 
L 211.276614 283.910437 
L 211.276614 164.141946 
L 209.645184 164.141946 
z
" clip-path="url(#p23acb2fd69)" style="fill: #1f77b4"/>
   </g>
   <g id="patch_108">
    <path d="M 211.276614 283.910437 
L 212.908044 283.910437 
L 212.908044 154.692187 
L 211.276614 154.692187 
z
" clip-path="url(#p23acb2fd69)" style="fill: #1f77b4"/>
   </g>
   <g id="patch_109">
    <path d="M 212.908044 283.910437 
L 214.539474 283.910437 
L 214.539474 144.578463 
L 212.908044 144.578463 
z
" clip-path="url(#p23acb2fd69)" style="fill: #1f77b4"/>
   </g>
   <g id="patch_110">
    <path d="M 214.539474 283.910437 
L 216.170904 283.910437 
L 216.170904 133.549272 
L 214.539474 133.549272 
z
" clip-path="url(#p23acb2fd69)" style="fill: #1f77b4"/>
   </g>
   <g id="patch_111">
    <path d="M 216.170904 283.910437 
L 217.802334 283.910437 
L 217.802334 121.621382 
L 216.170904 121.621382 
z
" clip-path="url(#p23acb2fd69)" style="fill: #1f77b4"/>
   </g>
   <g id="patch_112">
    <path d="M 217.802334 283.910437 
L 219.433764 283.910437 
L 219.433764 110.749799 
L 217.802334 110.749799 
z
" clip-path="url(#p23acb2fd69)" style="fill: #1f77b4"/>
   </g>
   <g id="patch_113">
    <path d="M 219.433764 283.910437 
L 221.065194 283.910437 
L 221.065194 97.946683 
L 219.433764 97.946683 
z
" clip-path="url(#p23acb2fd69)" style="fill: #1f77b4"/>
   </g>
   <g id="patch_114">
    <path d="M 221.065194 283.910437 
L 222.696623 283.910437 
L 222.696623 87.561337 
L 221.065194 87.561337 
z
" clip-path="url(#p23acb2fd69)" style="fill: #1f77b4"/>
   </g>
   <g id="patch_115">
    <path d="M 222.696623 283.910437 
L 224.328053 283.910437 
L 224.328053 75.620033 
L 222.696623 75.620033 
z
" clip-path="url(#p23acb2fd69)" style="fill: #1f77b4"/>
   </g>
   <g id="patch_116">
    <path d="M 224.328053 283.910437 
L 225.959483 283.910437 
L 225.959483 66.08644 
L 224.328053 66.08644 
z
" clip-path="url(#p23acb2fd69)" style="fill: #1f77b4"/>
   </g>
   <g id="patch_117">
    <path d="M 225.959483 283.910437 
L 227.590913 283.910437 
L 227.590913 57.374419 
L 225.959483 57.374419 
z
" clip-path="url(#p23acb2fd69)" style="fill: #1f77b4"/>
   </g>
   <g id="patch_118">
    <path d="M 227.590913 283.910437 
L 229.222343 283.910437 
L 229.222343 49.39343 
L 227.590913 49.39343 
z
" clip-path="url(#p23acb2fd69)" style="fill: #1f77b4"/>
   </g>
   <g id="patch_119">
    <path d="M 229.222343 283.910437 
L 230.853773 283.910437 
L 230.853773 42.203833 
L 229.222343 42.203833 
z
" clip-path="url(#p23acb2fd69)" style="fill: #1f77b4"/>
   </g>
   <g id="patch_120">
    <path d="M 230.853773 283.910437 
L 232.485203 283.910437 
L 232.485203 36.647321 
L 230.853773 36.647321 
z
" clip-path="url(#p23acb2fd69)" style="fill: #1f77b4"/>
   </g>
   <g id="patch_121">
    <path d="M 232.485203 283.910437 
L 234.116633 283.910437 
L 234.116633 32.254423 
L 232.485203 32.254423 
z
" clip-path="url(#p23acb2fd69)" style="fill: #1f77b4"/>
   </g>
   <g id="patch_122">
    <path d="M 234.116633 283.910437 
L 235.748062 283.910437 
L 235.748062 30.574392 
L 234.116633 30.574392 
z
" clip-path="url(#p23acb2fd69)" style="fill: #1f77b4"/>
   </g>
   <g id="patch_123">
    <path d="M 235.748062 283.910437 
L 237.379492 283.910437 
L 237.379492 30.470437 
L 235.748062 30.470437 
z
" clip-path="url(#p23acb2fd69)" style="fill: #1f77b4"/>
   </g>
   <g id="patch_124">
    <path d="M 237.379492 283.910437 
L 239.010922 283.910437 
L 239.010922 31.147816 
L 237.379492 31.147816 
z
" clip-path="url(#p23acb2fd69)" style="fill: #1f77b4"/>
   </g>
   <g id="patch_125">
    <path d="M 239.010922 283.910437 
L 240.642352 283.910437 
L 240.642352 33.947868 
L 239.010922 33.947868 
z
" clip-path="url(#p23acb2fd69)" style="fill: #1f77b4"/>
   </g>
   <g id="patch_126">
    <path d="M 240.642352 283.910437 
L 242.273782 283.910437 
L 242.273782 36.11749 
L 240.642352 36.11749 
z
" clip-path="url(#p23acb2fd69)" style="fill: #1f77b4"/>
   </g>
   <g id="patch_127">
    <path d="M 242.273782 283.910437 
L 243.905212 283.910437 
L 243.905212 40.450027 
L 242.273782 40.450027 
z
" clip-path="url(#p23acb2fd69)" style="fill: #1f77b4"/>
   </g>
   <g id="patch_128">
    <path d="M 243.905212 283.910437 
L 245.536642 283.910437 
L 245.536642 48.461197 
L 243.905212 48.461197 
z
" clip-path="url(#p23acb2fd69)" style="fill: #1f77b4"/>
   </g>
   <g id="patch_129">
    <path d="M 245.536642 283.910437 
L 247.168072 283.910437 
L 247.168072 56.549493 
L 245.536642 56.549493 
z
" clip-path="url(#p23acb2fd69)" style="fill: #1f77b4"/>
   </g>
   <g id="patch_130">
    <path d="M 247.168072 283.910437 
L 248.799501 283.910437 
L 248.799501 65.902005 
L 247.168072 65.902005 
z
" clip-path="url(#p23acb2fd69)" style="fill: #1f77b4"/>
   </g>
   <g id="patch_131">
    <path d="M 248.799501 283.910437 
L 250.430931 283.910437 
L 250.430931 73.611373 
L 248.799501 73.611373 
z
" clip-path="url(#p23acb2fd69)" style="fill: #1f77b4"/>
   </g>
   <g id="patch_132">
    <path d="M 250.430931 283.910437 
L 252.062361 283.910437 
L 252.062361 86.367542 
L 250.430931 86.367542 
z
" clip-path="url(#p23acb2fd69)" style="fill: #1f77b4"/>
   </g>
   <g id="patch_133">
    <path d="M 252.062361 283.910437 
L 253.693791 283.910437 
L 253.693791 96.303538 
L 252.062361 96.303538 
z
" clip-path="url(#p23acb2fd69)" style="fill: #1f77b4"/>
   </g>
   <g id="patch_134">
    <path d="M 253.693791 283.910437 
L 255.325221 283.910437 
L 255.325221 107.946393 
L 253.693791 107.946393 
z
" clip-path="url(#p23acb2fd69)" style="fill: #1f77b4"/>
   </g>
   <g id="patch_135">
    <path d="M 255.325221 283.910437 
L 256.956651 283.910437 
L 256.956651 120.484594 
L 255.325221 120.484594 
z
" clip-path="url(#p23acb2fd69)" style="fill: #1f77b4"/>
   </g>
   <g id="patch_136">
    <path d="M 256.956651 283.910437 
L 258.588081 283.910437 
L 258.588081 132.606979 
L 256.956651 132.606979 
z
" clip-path="url(#p23acb2fd69)" style="fill: #1f77b4"/>
   </g>
   <g id="patch_137">
    <path d="M 258.588081 283.910437 
L 260.219511 283.910437 
L 260.219511 143.113046 
L 258.588081 143.113046 
z
" clip-path="url(#p23acb2fd69)" style="fill: #1f77b4"/>
   </g>
   <g id="patch_138">
    <path d="M 260.219511 283.910437 
L 261.85094 283.910437 
L 261.85094 155.691487 
L 260.219511 155.691487 
z
" clip-path="url(#p23acb2fd69)" style="fill: #1f77b4"/>
   </g>
   <g id="patch_139">
    <path d="M 261.85094 283.910437 
L 263.48237 283.910437 
L 263.48237 165.617423 
L 261.85094 165.617423 
z
" clip-path="url(#p23acb2fd69)" style="fill: #1f77b4"/>
   </g>
   <g id="patch_140">
    <path d="M 263.48237 283.910437 
L 265.1138 283.910437 
L 265.1138 176.794161 
L 263.48237 176.794161 
z
" clip-path="url(#p23acb2fd69)" style="fill: #1f77b4"/>
   </g>
   <g id="patch_141">
    <path d="M 265.1138 283.910437 
L 266.74523 283.910437 
L 266.74523 185.945472 
L 265.1138 185.945472 
z
" clip-path="url(#p23acb2fd69)" style="fill: #1f77b4"/>
   </g>
   <g id="patch_142">
    <path d="M 266.74523 283.910437 
L 268.37666 283.910437 
L 268.37666 196.07261 
L 266.74523 196.07261 
z
" clip-path="url(#p23acb2fd69)" style="fill: #1f77b4"/>
   </g>
   <g id="patch_143">
    <path d="M 268.37666 283.910437 
L 270.00809 283.910437 
L 270.00809 204.808104 
L 268.37666 204.808104 
z
" clip-path="url(#p23acb2fd69)" style="fill: #1f77b4"/>
   </g>
   <g id="patch_144">
    <path d="M 270.00809 283.910437 
L 271.63952 283.910437 
L 271.63952 212.732086 
L 270.00809 212.732086 
z
" clip-path="url(#p23acb2fd69)" style="fill: #1f77b4"/>
   </g>
   <g id="patch_145">
    <path d="M 271.63952 283.910437 
L 273.27095 283.910437 
L 273.27095 219.512574 
L 271.63952 219.512574 
z
" clip-path="url(#p23acb2fd69)" style="fill: #1f77b4"/>
   </g>
   <g id="patch_146">
    <path d="M 273.27095 283.910437 
L 274.90238 283.910437 
L 274.90238 226.158927 
L 273.27095 226.158927 
z
" clip-path="url(#p23acb2fd69)" style="fill: #1f77b4"/>
   </g>
   <g id="patch_147">
    <path d="M 274.90238 283.910437 
L 276.533809 283.910437 
L 276.533809 232.087662 
L 274.90238 232.087662 
z
" clip-path="url(#p23acb2fd69)" style="fill: #1f77b4"/>
   </g>
   <g id="patch_148">
    <path d="M 276.533809 283.910437 
L 278.165239 283.910437 
L 278.165239 237.127757 
L 276.533809 237.127757 
z
" clip-path="url(#p23acb2fd69)" style="fill: #1f77b4"/>
   </g>
   <g id="patch_149">
    <path d="M 278.165239 283.910437 
L 279.796669 283.910437 
L 279.796669 241.83587 
L 278.165239 241.83587 
z
" clip-path="url(#p23acb2fd69)" style="fill: #1f77b4"/>
   </g>
   <g id="patch_150">
    <path d="M 279.796669 283.910437 
L 281.428099 283.910437 
L 281.428099 246.144933 
L 279.796669 246.144933 
z
" clip-path="url(#p23acb2fd69)" style="fill: #1f77b4"/>
   </g>
   <g id="patch_151">
    <path d="M 281.428099 283.910437 
L 283.059529 283.910437 
L 283.059529 249.736378 
L 281.428099 249.736378 
z
" clip-path="url(#p23acb2fd69)" style="fill: #1f77b4"/>
   </g>
   <g id="patch_152">
    <path d="M 283.059529 283.910437 
L 284.690959 283.910437 
L 284.690959 252.351997 
L 283.059529 252.351997 
z
" clip-path="url(#p23acb2fd69)" style="fill: #1f77b4"/>
   </g>
   <g id="patch_153">
    <path d="M 284.690959 283.910437 
L 286.322389 283.910437 
L 286.322389 255.420318 
L 284.690959 255.420318 
z
" clip-path="url(#p23acb2fd69)" style="fill: #1f77b4"/>
   </g>
   <g id="patch_154">
    <path d="M 286.322389 283.910437 
L 287.953819 283.910437 
L 287.953819 257.459159 
L 286.322389 257.459159 
z
" clip-path="url(#p23acb2fd69)" style="fill: #1f77b4"/>
   </g>
   <g id="patch_155">
    <path d="M 287.953819 283.910437 
L 289.585248 283.910437 
L 289.585248 259.608661 
L 287.953819 259.608661 
z
" clip-path="url(#p23acb2fd69)" style="fill: #1f77b4"/>
   </g>
   <g id="patch_156">
    <path d="M 289.585248 283.910437 
L 291.216678 283.910437 
L 291.216678 262.180685 
L 289.585248 262.180685 
z
" clip-path="url(#p23acb2fd69)" style="fill: #1f77b4"/>
   </g>
   <g id="patch_157">
    <path d="M 291.216678 283.910437 
L 292.848108 283.910437 
L 292.848108 263.528735 
L 291.216678 263.528735 
z
" clip-path="url(#p23acb2fd69)" style="fill: #1f77b4"/>
   </g>
   <g id="patch_158">
    <path d="M 292.848108 283.910437 
L 294.479538 283.910437 
L 294.479538 264.709116 
L 292.848108 264.709116 
z
" clip-path="url(#p23acb2fd69)" style="fill: #1f77b4"/>
   </g>
   <g id="patch_159">
    <path d="M 294.479538 283.910437 
L 296.110968 283.910437 
L 296.110968 266.63059 
L 294.479538 266.63059 
z
" clip-path="url(#p23acb2fd69)" style="fill: #1f77b4"/>
   </g>
   <g id="patch_160">
    <path d="M 296.110968 283.910437 
L 297.742398 283.910437 
L 297.742398 268.045706 
L 296.110968 268.045706 
z
" clip-path="url(#p23acb2fd69)" style="fill: #1f77b4"/>
   </g>
   <g id="patch_161">
    <path d="M 297.742398 283.910437 
L 299.373828 283.910437 
L 299.373828 269.544657 
L 297.742398 269.544657 
z
" clip-path="url(#p23acb2fd69)" style="fill: #1f77b4"/>
   </g>
   <g id="patch_162">
    <path d="M 299.373828 283.910437 
L 301.005258 283.910437 
L 301.005258 270.503717 
L 299.373828 270.503717 
z
" clip-path="url(#p23acb2fd69)" style="fill: #1f77b4"/>
   </g>
   <g id="patch_163">
    <path d="M 301.005258 283.910437 
L 302.636687 283.910437 
L 302.636687 271.224689 
L 301.005258 271.224689 
z
" clip-path="url(#p23acb2fd69)" style="fill: #1f77b4"/>
   </g>
   <g id="patch_164">
    <path d="M 302.636687 283.910437 
L 304.268117 283.910437 
L 304.268117 272.140155 
L 302.636687 272.140155 
z
" clip-path="url(#p23acb2fd69)" style="fill: #1f77b4"/>
   </g>
   <g id="patch_165">
    <path d="M 304.268117 283.910437 
L 305.899547 283.910437 
L 305.899547 272.820887 
L 304.268117 272.820887 
z
" clip-path="url(#p23acb2fd69)" style="fill: #1f77b4"/>
   </g>
   <g id="patch_166">
    <path d="M 305.899547 283.910437 
L 307.530977 283.910437 
L 307.530977 273.689406 
L 305.899547 273.689406 
z
" clip-path="url(#p23acb2fd69)" style="fill: #1f77b4"/>
   </g>
   <g id="patch_167">
    <path d="M 307.530977 283.910437 
L 309.162407 283.910437 
L 309.162407 274.427144 
L 307.530977 274.427144 
z
" clip-path="url(#p23acb2fd69)" style="fill: #1f77b4"/>
   </g>
   <g id="patch_168">
    <path d="M 309.162407 283.910437 
L 310.793837 283.910437 
L 310.793837 274.970388 
L 309.162407 274.970388 
z
" clip-path="url(#p23acb2fd69)" style="fill: #1f77b4"/>
   </g>
   <g id="patch_169">
    <path d="M 310.793837 283.910437 
L 312.425267 283.910437 
L 312.425267 275.356024 
L 310.793837 275.356024 
z
" clip-path="url(#p23acb2fd69)" style="fill: #1f77b4"/>
   </g>
   <g id="patch_170">
    <path d="M 312.425267 283.910437 
L 314.056697 283.910437 
L 314.056697 275.775194 
L 312.425267 275.775194 
z
" clip-path="url(#p23acb2fd69)" style="fill: #1f77b4"/>
   </g>
   <g id="patch_171">
    <path d="M 314.056697 283.910437 
L 315.688126 283.910437 
L 315.688126 276.392212 
L 314.056697 276.392212 
z
" clip-path="url(#p23acb2fd69)" style="fill: #1f77b4"/>
   </g>
   <g id="patch_172">
    <path d="M 315.688126 283.910437 
L 317.319556 283.910437 
L 317.319556 276.771141 
L 315.688126 276.771141 
z
" clip-path="url(#p23acb2fd69)" style="fill: #1f77b4"/>
   </g>
   <g id="patch_173">
    <path d="M 317.319556 283.910437 
L 318.950986 283.910437 
L 318.950986 277.18025 
L 317.319556 277.18025 
z
" clip-path="url(#p23acb2fd69)" style="fill: #1f77b4"/>
   </g>
   <g id="patch_174">
    <path d="M 318.950986 283.910437 
L 320.582416 283.910437 
L 320.582416 277.575947 
L 318.950986 277.575947 
z
" clip-path="url(#p23acb2fd69)" style="fill: #1f77b4"/>
   </g>
   <g id="patch_175">
    <path d="M 320.582416 283.910437 
L 322.213846 283.910437 
L 322.213846 277.860982 
L 320.582416 277.860982 
z
" clip-path="url(#p23acb2fd69)" style="fill: #1f77b4"/>
   </g>
   <g id="patch_176">
    <path d="M 322.213846 283.910437 
L 323.845276 283.910437 
L 323.845276 278.447819 
L 322.213846 278.447819 
z
" clip-path="url(#p23acb2fd69)" style="fill: #1f77b4"/>
   </g>
   <g id="patch_177">
    <path d="M 323.845276 283.910437 
L 325.476706 283.910437 
L 325.476706 278.736208 
L 323.845276 278.736208 
z
" clip-path="url(#p23acb2fd69)" style="fill: #1f77b4"/>
   </g>
   <g id="patch_178">
    <path d="M 325.476706 283.910437 
L 327.108136 283.910437 
L 327.108136 278.960883 
L 325.476706 278.960883 
z
" clip-path="url(#p23acb2fd69)" style="fill: #1f77b4"/>
   </g>
   <g id="patch_179">
    <path d="M 327.108136 283.910437 
L 328.739565 283.910437 
L 328.739565 279.044717 
L 327.108136 279.044717 
z
" clip-path="url(#p23acb2fd69)" style="fill: #1f77b4"/>
   </g>
   <g id="patch_180">
    <path d="M 328.739565 283.910437 
L 330.370995 283.910437 
L 330.370995 279.064837 
L 328.739565 279.064837 
z
" clip-path="url(#p23acb2fd69)" style="fill: #1f77b4"/>
   </g>
   <g id="patch_181">
    <path d="M 330.370995 283.910437 
L 332.002425 283.910437 
L 332.002425 279.638261 
L 330.370995 279.638261 
z
" clip-path="url(#p23acb2fd69)" style="fill: #1f77b4"/>
   </g>
   <g id="patch_182">
    <path d="M 332.002425 283.910437 
L 333.633855 283.910437 
L 333.633855 279.480653 
L 332.002425 279.480653 
z
" clip-path="url(#p23acb2fd69)" style="fill: #1f77b4"/>
   </g>
   <g id="patch_183">
    <path d="M 333.633855 283.910437 
L 335.265285 283.910437 
L 335.265285 279.728802 
L 333.633855 279.728802 
z
" clip-path="url(#p23acb2fd69)" style="fill: #1f77b4"/>
   </g>
   <g id="patch_184">
    <path d="M 335.265285 283.910437 
L 336.896715 283.910437 
L 336.896715 279.822696 
L 335.265285 279.822696 
z
" clip-path="url(#p23acb2fd69)" style="fill: #1f77b4"/>
   </g>
   <g id="patch_185">
    <path d="M 336.896715 283.910437 
L 338.528145 283.910437 
L 338.528145 280.080904 
L 336.896715 280.080904 
z
" clip-path="url(#p23acb2fd69)" style="fill: #1f77b4"/>
   </g>
   <g id="patch_186">
    <path d="M 338.528145 283.910437 
L 340.159575 283.910437 
L 340.159575 280.050724 
L 338.528145 280.050724 
z
" clip-path="url(#p23acb2fd69)" style="fill: #1f77b4"/>
   </g>
   <g id="patch_187">
    <path d="M 340.159575 283.910437 
L 341.791004 283.910437 
L 341.791004 280.241865 
L 340.159575 280.241865 
z
" clip-path="url(#p23acb2fd69)" style="fill: #1f77b4"/>
   </g>
   <g id="patch_188">
    <path d="M 341.791004 283.910437 
L 343.422434 283.910437 
L 343.422434 280.305579 
L 341.791004 280.305579 
z
" clip-path="url(#p23acb2fd69)" style="fill: #1f77b4"/>
   </g>
   <g id="patch_189">
    <path d="M 343.422434 283.910437 
L 345.053864 283.910437 
L 345.053864 280.285459 
L 343.422434 280.285459 
z
" clip-path="url(#p23acb2fd69)" style="fill: #1f77b4"/>
   </g>
   <g id="patch_190">
    <path d="M 345.053864 283.910437 
L 346.685294 283.910437 
L 346.685294 280.624148 
L 345.053864 280.624148 
z
" clip-path="url(#p23acb2fd69)" style="fill: #1f77b4"/>
   </g>
   <g id="patch_191">
    <path d="M 346.685294 283.910437 
L 348.316724 283.910437 
L 348.316724 280.530254 
L 346.685294 280.530254 
z
" clip-path="url(#p23acb2fd69)" style="fill: #1f77b4"/>
   </g>
   <g id="patch_192">
    <path d="M 348.316724 283.910437 
L 349.948154 283.910437 
L 349.948154 280.97625 
L 348.316724 280.97625 
z
" clip-path="url(#p23acb2fd69)" style="fill: #1f77b4"/>
   </g>
   <g id="patch_193">
    <path d="M 349.948154 283.910437 
L 351.579584 283.910437 
L 351.579584 281.073498 
L 349.948154 281.073498 
z
" clip-path="url(#p23acb2fd69)" style="fill: #1f77b4"/>
   </g>
   <g id="patch_194">
    <path d="M 351.579584 283.910437 
L 353.211014 283.910437 
L 353.211014 280.882356 
L 351.579584 280.882356 
z
" clip-path="url(#p23acb2fd69)" style="fill: #1f77b4"/>
   </g>
   <g id="patch_195">
    <path d="M 353.211014 283.910437 
L 354.842443 283.910437 
L 354.842443 281.284759 
L 353.211014 281.284759 
z
" clip-path="url(#p23acb2fd69)" style="fill: #1f77b4"/>
   </g>
   <g id="patch_196">
    <path d="M 354.842443 283.910437 
L 356.473873 283.910437 
L 356.473873 281.291466 
L 354.842443 281.291466 
z
" clip-path="url(#p23acb2fd69)" style="fill: #1f77b4"/>
   </g>
   <g id="patch_197">
    <path d="M 356.473873 283.910437 
L 358.105303 283.910437 
L 358.105303 281.489314 
L 356.473873 281.489314 
z
" clip-path="url(#p23acb2fd69)" style="fill: #1f77b4"/>
   </g>
   <g id="patch_198">
    <path d="M 358.105303 283.910437 
L 359.736733 283.910437 
L 359.736733 281.579855 
L 358.105303 281.579855 
z
" clip-path="url(#p23acb2fd69)" style="fill: #1f77b4"/>
   </g>
   <g id="patch_199">
    <path d="M 359.736733 283.910437 
L 361.368163 283.910437 
L 361.368163 281.46584 
L 359.736733 281.46584 
z
" clip-path="url(#p23acb2fd69)" style="fill: #1f77b4"/>
   </g>
   <g id="patch_200">
    <path d="M 361.368163 283.910437 
L 362.999593 283.910437 
L 362.999593 281.650275 
L 361.368163 281.650275 
z
" clip-path="url(#p23acb2fd69)" style="fill: #1f77b4"/>
   </g>
   <g id="patch_201">
    <path d="M 362.999593 283.910437 
L 364.631023 283.910437 
L 364.631023 281.589915 
L 362.999593 281.589915 
z
" clip-path="url(#p23acb2fd69)" style="fill: #1f77b4"/>
   </g>
   <g id="matplotlib.axis_1">
    <g id="xtick_1">
     <g id="line2d_1">
      <defs>
       <path id="m8dafe380c2" d="M 0 0 
L 0 3.5 
" style="stroke: #000000; stroke-width: 0.8"/>
      </defs>
      <g>
       <use xlink:href="#m8dafe380c2" x="39.976477" y="283.910437" style="stroke: #000000; stroke-width: 0.8"/>
      </g>
     </g>
     <g id="text_1">
      <!-- −0.3 -->
      <g transform="translate(21.764368 302.308094) scale(0.15 -0.15)">
       <defs>
        <path id="DejaVuSans-2212" d="M 678 2272 
L 4684 2272 
L 4684 1741 
L 678 1741 
L 678 2272 
z
" transform="scale(0.015625)"/>
        <path id="DejaVuSans-30" d="M 2034 4250 
Q 1547 4250 1301 3770 
Q 1056 3291 1056 2328 
Q 1056 1369 1301 889 
Q 1547 409 2034 409 
Q 2525 409 2770 889 
Q 3016 1369 3016 2328 
Q 3016 3291 2770 3770 
Q 2525 4250 2034 4250 
z
M 2034 4750 
Q 2819 4750 3233 4129 
Q 3647 3509 3647 2328 
Q 3647 1150 3233 529 
Q 2819 -91 2034 -91 
Q 1250 -91 836 529 
Q 422 1150 422 2328 
Q 422 3509 836 4129 
Q 1250 4750 2034 4750 
z
" transform="scale(0.015625)"/>
        <path id="DejaVuSans-2e" d="M 684 794 
L 1344 794 
L 1344 0 
L 684 0 
L 684 794 
z
" transform="scale(0.015625)"/>
        <path id="DejaVuSans-33" d="M 2597 2516 
Q 3050 2419 3304 2112 
Q 3559 1806 3559 1356 
Q 3559 666 3084 287 
Q 2609 -91 1734 -91 
Q 1441 -91 1130 -33 
Q 819 25 488 141 
L 488 750 
Q 750 597 1062 519 
Q 1375 441 1716 441 
Q 2309 441 2620 675 
Q 2931 909 2931 1356 
Q 2931 1769 2642 2001 
Q 2353 2234 1838 2234 
L 1294 2234 
L 1294 2753 
L 1863 2753 
Q 2328 2753 2575 2939 
Q 2822 3125 2822 3475 
Q 2822 3834 2567 4026 
Q 2313 4219 1838 4219 
Q 1578 4219 1281 4162 
Q 984 4106 628 3988 
L 628 4550 
Q 988 4650 1302 4700 
Q 1616 4750 1894 4750 
Q 2613 4750 3031 4423 
Q 3450 4097 3450 3541 
Q 3450 3153 3228 2886 
Q 3006 2619 2597 2516 
z
" transform="scale(0.015625)"/>
       </defs>
       <use xlink:href="#DejaVuSans-2212"/>
       <use xlink:href="#DejaVuSans-30" x="83.789062"/>
       <use xlink:href="#DejaVuSans-2e" x="147.412109"/>
       <use xlink:href="#DejaVuSans-33" x="179.199219"/>
      </g>
     </g>
    </g>
    <g id="xtick_2">
     <g id="line2d_2">
      <g>
       <use xlink:href="#m8dafe380c2" x="94.085568" y="283.910437" style="stroke: #000000; stroke-width: 0.8"/>
      </g>
     </g>
     <g id="text_2">
      <!-- −0.2 -->
      <g transform="translate(75.873459 302.308094) scale(0.15 -0.15)">
       <defs>
        <path id="DejaVuSans-32" d="M 1228 531 
L 3431 531 
L 3431 0 
L 469 0 
L 469 531 
Q 828 903 1448 1529 
Q 2069 2156 2228 2338 
Q 2531 2678 2651 2914 
Q 2772 3150 2772 3378 
Q 2772 3750 2511 3984 
Q 2250 4219 1831 4219 
Q 1534 4219 1204 4116 
Q 875 4013 500 3803 
L 500 4441 
Q 881 4594 1212 4672 
Q 1544 4750 1819 4750 
Q 2544 4750 2975 4387 
Q 3406 4025 3406 3419 
Q 3406 3131 3298 2873 
Q 3191 2616 2906 2266 
Q 2828 2175 2409 1742 
Q 1991 1309 1228 531 
z
" transform="scale(0.015625)"/>
       </defs>
       <use xlink:href="#DejaVuSans-2212"/>
       <use xlink:href="#DejaVuSans-30" x="83.789062"/>
       <use xlink:href="#DejaVuSans-2e" x="147.412109"/>
       <use xlink:href="#DejaVuSans-32" x="179.199219"/>
      </g>
     </g>
    </g>
    <g id="xtick_3">
     <g id="line2d_3">
      <g>
       <use xlink:href="#m8dafe380c2" x="148.194659" y="283.910437" style="stroke: #000000; stroke-width: 0.8"/>
      </g>
     </g>
     <g id="text_3">
      <!-- −0.1 -->
      <g transform="translate(129.98255 302.308094) scale(0.15 -0.15)">
       <defs>
        <path id="DejaVuSans-31" d="M 794 531 
L 1825 531 
L 1825 4091 
L 703 3866 
L 703 4441 
L 1819 4666 
L 2450 4666 
L 2450 531 
L 3481 531 
L 3481 0 
L 794 0 
L 794 531 
z
" transform="scale(0.015625)"/>
       </defs>
       <use xlink:href="#DejaVuSans-2212"/>
       <use xlink:href="#DejaVuSans-30" x="83.789062"/>
       <use xlink:href="#DejaVuSans-2e" x="147.412109"/>
       <use xlink:href="#DejaVuSans-31" x="179.199219"/>
      </g>
     </g>
    </g>
    <g id="xtick_4">
     <g id="line2d_4">
      <g>
       <use xlink:href="#m8dafe380c2" x="202.30375" y="283.910437" style="stroke: #000000; stroke-width: 0.8"/>
      </g>
     </g>
     <g id="text_4">
      <!-- 0.0 -->
      <g transform="translate(190.376406 302.308094) scale(0.15 -0.15)">
       <use xlink:href="#DejaVuSans-30"/>
       <use xlink:href="#DejaVuSans-2e" x="63.623047"/>
       <use xlink:href="#DejaVuSans-30" x="95.410156"/>
      </g>
     </g>
    </g>
    <g id="xtick_5">
     <g id="line2d_5">
      <g>
       <use xlink:href="#m8dafe380c2" x="256.412841" y="283.910437" style="stroke: #000000; stroke-width: 0.8"/>
      </g>
     </g>
     <g id="text_5">
      <!-- 0.1 -->
      <g transform="translate(244.485497 302.308094) scale(0.15 -0.15)">
       <use xlink:href="#DejaVuSans-30"/>
       <use xlink:href="#DejaVuSans-2e" x="63.623047"/>
       <use xlink:href="#DejaVuSans-31" x="95.410156"/>
      </g>
     </g>
    </g>
    <g id="xtick_6">
     <g id="line2d_6">
      <g>
       <use xlink:href="#m8dafe380c2" x="310.521932" y="283.910437" style="stroke: #000000; stroke-width: 0.8"/>
      </g>
     </g>
     <g id="text_6">
      <!-- 0.2 -->
      <g transform="translate(298.594588 302.308094) scale(0.15 -0.15)">
       <use xlink:href="#DejaVuSans-30"/>
       <use xlink:href="#DejaVuSans-2e" x="63.623047"/>
       <use xlink:href="#DejaVuSans-32" x="95.410156"/>
      </g>
     </g>
    </g>
    <g id="xtick_7">
     <g id="line2d_7">
      <g>
       <use xlink:href="#m8dafe380c2" x="364.631023" y="283.910437" style="stroke: #000000; stroke-width: 0.8"/>
      </g>
     </g>
     <g id="text_7">
      <!-- 0.3 -->
      <g transform="translate(352.703679 302.308094) scale(0.15 -0.15)">
       <use xlink:href="#DejaVuSans-30"/>
       <use xlink:href="#DejaVuSans-2e" x="63.623047"/>
       <use xlink:href="#DejaVuSans-33" x="95.410156"/>
      </g>
     </g>
    </g>
    <g id="text_8">
     <!-- Flux [mK] -->
     <g transform="translate(166.254531 320.825281) scale(0.15 -0.15)">
      <defs>
       <path id="DejaVuSans-46" d="M 628 4666 
L 3309 4666 
L 3309 4134 
L 1259 4134 
L 1259 2759 
L 3109 2759 
L 3109 2228 
L 1259 2228 
L 1259 0 
L 628 0 
L 628 4666 
z
" transform="scale(0.015625)"/>
       <path id="DejaVuSans-6c" d="M 603 4863 
L 1178 4863 
L 1178 0 
L 603 0 
L 603 4863 
z
" transform="scale(0.015625)"/>
       <path id="DejaVuSans-75" d="M 544 1381 
L 544 3500 
L 1119 3500 
L 1119 1403 
Q 1119 906 1312 657 
Q 1506 409 1894 409 
Q 2359 409 2629 706 
Q 2900 1003 2900 1516 
L 2900 3500 
L 3475 3500 
L 3475 0 
L 2900 0 
L 2900 538 
Q 2691 219 2414 64 
Q 2138 -91 1772 -91 
Q 1169 -91 856 284 
Q 544 659 544 1381 
z
M 1991 3584 
L 1991 3584 
z
" transform="scale(0.015625)"/>
       <path id="DejaVuSans-78" d="M 3513 3500 
L 2247 1797 
L 3578 0 
L 2900 0 
L 1881 1375 
L 863 0 
L 184 0 
L 1544 1831 
L 300 3500 
L 978 3500 
L 1906 2253 
L 2834 3500 
L 3513 3500 
z
" transform="scale(0.015625)"/>
       <path id="DejaVuSans-20" transform="scale(0.015625)"/>
       <path id="DejaVuSans-5b" d="M 550 4863 
L 1875 4863 
L 1875 4416 
L 1125 4416 
L 1125 -397 
L 1875 -397 
L 1875 -844 
L 550 -844 
L 550 4863 
z
" transform="scale(0.015625)"/>
       <path id="DejaVuSans-6d" d="M 3328 2828 
Q 3544 3216 3844 3400 
Q 4144 3584 4550 3584 
Q 5097 3584 5394 3201 
Q 5691 2819 5691 2113 
L 5691 0 
L 5113 0 
L 5113 2094 
Q 5113 2597 4934 2840 
Q 4756 3084 4391 3084 
Q 3944 3084 3684 2787 
Q 3425 2491 3425 1978 
L 3425 0 
L 2847 0 
L 2847 2094 
Q 2847 2600 2669 2842 
Q 2491 3084 2119 3084 
Q 1678 3084 1418 2786 
Q 1159 2488 1159 1978 
L 1159 0 
L 581 0 
L 581 3500 
L 1159 3500 
L 1159 2956 
Q 1356 3278 1631 3431 
Q 1906 3584 2284 3584 
Q 2666 3584 2933 3390 
Q 3200 3197 3328 2828 
z
" transform="scale(0.015625)"/>
       <path id="DejaVuSans-4b" d="M 628 4666 
L 1259 4666 
L 1259 2694 
L 3353 4666 
L 4166 4666 
L 1850 2491 
L 4331 0 
L 3500 0 
L 1259 2247 
L 1259 0 
L 628 0 
L 628 4666 
z
" transform="scale(0.015625)"/>
       <path id="DejaVuSans-5d" d="M 1947 4863 
L 1947 -844 
L 622 -844 
L 622 -397 
L 1369 -397 
L 1369 4416 
L 622 4416 
L 622 4863 
L 1947 4863 
z
" transform="scale(0.015625)"/>
      </defs>
      <use xlink:href="#DejaVuSans-46"/>
      <use xlink:href="#DejaVuSans-6c" x="57.519531"/>
      <use xlink:href="#DejaVuSans-75" x="85.302734"/>
      <use xlink:href="#DejaVuSans-78" x="148.681641"/>
      <use xlink:href="#DejaVuSans-20" x="207.861328"/>
      <use xlink:href="#DejaVuSans-5b" x="239.648438"/>
      <use xlink:href="#DejaVuSans-6d" x="278.662109"/>
      <use xlink:href="#DejaVuSans-4b" x="376.074219"/>
      <use xlink:href="#DejaVuSans-5d" x="441.650391"/>
     </g>
    </g>
   </g>
   <g id="matplotlib.axis_2">
    <g id="ytick_1">
     <g id="line2d_8">
      <defs>
       <path id="me386bfb3e0" d="M 0 0 
L -3.5 0 
" style="stroke: #000000; stroke-width: 0.8"/>
      </defs>
      <g>
       <use xlink:href="#me386bfb3e0" x="23.74375" y="283.910437" style="stroke: #000000; stroke-width: 0.8"/>
      </g>
     </g>
     <g id="text_9">
      <!-- 0 -->
      <g transform="translate(7.2 289.609266) scale(0.15 -0.15)">
       <use xlink:href="#DejaVuSans-30"/>
      </g>
     </g>
    </g>
    <g id="ytick_2">
     <g id="line2d_9">
      <g>
       <use xlink:href="#me386bfb3e0" x="23.74375" y="250.37687" style="stroke: #000000; stroke-width: 0.8"/>
      </g>
     </g>
     <g id="text_10">
      <!-- 1 -->
      <g transform="translate(7.2 256.075698) scale(0.15 -0.15)">
       <use xlink:href="#DejaVuSans-31"/>
      </g>
     </g>
    </g>
    <g id="ytick_3">
     <g id="line2d_10">
      <g>
       <use xlink:href="#me386bfb3e0" x="23.74375" y="216.843302" style="stroke: #000000; stroke-width: 0.8"/>
      </g>
     </g>
     <g id="text_11">
      <!-- 2 -->
      <g transform="translate(7.2 222.54213) scale(0.15 -0.15)">
       <use xlink:href="#DejaVuSans-32"/>
      </g>
     </g>
    </g>
    <g id="ytick_4">
     <g id="line2d_11">
      <g>
       <use xlink:href="#me386bfb3e0" x="23.74375" y="183.309734" style="stroke: #000000; stroke-width: 0.8"/>
      </g>
     </g>
     <g id="text_12">
      <!-- 3 -->
      <g transform="translate(7.2 189.008562) scale(0.15 -0.15)">
       <use xlink:href="#DejaVuSans-33"/>
      </g>
     </g>
    </g>
    <g id="ytick_5">
     <g id="line2d_12">
      <g>
       <use xlink:href="#me386bfb3e0" x="23.74375" y="149.776166" style="stroke: #000000; stroke-width: 0.8"/>
      </g>
     </g>
     <g id="text_13">
      <!-- 4 -->
      <g transform="translate(7.2 155.474994) scale(0.15 -0.15)">
       <defs>
        <path id="DejaVuSans-34" d="M 2419 4116 
L 825 1625 
L 2419 1625 
L 2419 4116 
z
M 2253 4666 
L 3047 4666 
L 3047 1625 
L 3713 1625 
L 3713 1100 
L 3047 1100 
L 3047 0 
L 2419 0 
L 2419 1100 
L 313 1100 
L 313 1709 
L 2253 4666 
z
" transform="scale(0.015625)"/>
       </defs>
       <use xlink:href="#DejaVuSans-34"/>
      </g>
     </g>
    </g>
    <g id="ytick_6">
     <g id="line2d_13">
      <g>
       <use xlink:href="#me386bfb3e0" x="23.74375" y="116.242598" style="stroke: #000000; stroke-width: 0.8"/>
      </g>
     </g>
     <g id="text_14">
      <!-- 5 -->
      <g transform="translate(7.2 121.941426) scale(0.15 -0.15)">
       <defs>
        <path id="DejaVuSans-35" d="M 691 4666 
L 3169 4666 
L 3169 4134 
L 1269 4134 
L 1269 2991 
Q 1406 3038 1543 3061 
Q 1681 3084 1819 3084 
Q 2600 3084 3056 2656 
Q 3513 2228 3513 1497 
Q 3513 744 3044 326 
Q 2575 -91 1722 -91 
Q 1428 -91 1123 -41 
Q 819 9 494 109 
L 494 744 
Q 775 591 1075 516 
Q 1375 441 1709 441 
Q 2250 441 2565 725 
Q 2881 1009 2881 1497 
Q 2881 1984 2565 2268 
Q 2250 2553 1709 2553 
Q 1456 2553 1204 2497 
Q 953 2441 691 2322 
L 691 4666 
z
" transform="scale(0.015625)"/>
       </defs>
       <use xlink:href="#DejaVuSans-35"/>
      </g>
     </g>
    </g>
    <g id="ytick_7">
     <g id="line2d_14">
      <g>
       <use xlink:href="#me386bfb3e0" x="23.74375" y="82.70903" style="stroke: #000000; stroke-width: 0.8"/>
      </g>
     </g>
     <g id="text_15">
      <!-- 6 -->
      <g transform="translate(7.2 88.407858) scale(0.15 -0.15)">
       <defs>
        <path id="DejaVuSans-36" d="M 2113 2584 
Q 1688 2584 1439 2293 
Q 1191 2003 1191 1497 
Q 1191 994 1439 701 
Q 1688 409 2113 409 
Q 2538 409 2786 701 
Q 3034 994 3034 1497 
Q 3034 2003 2786 2293 
Q 2538 2584 2113 2584 
z
M 3366 4563 
L 3366 3988 
Q 3128 4100 2886 4159 
Q 2644 4219 2406 4219 
Q 1781 4219 1451 3797 
Q 1122 3375 1075 2522 
Q 1259 2794 1537 2939 
Q 1816 3084 2150 3084 
Q 2853 3084 3261 2657 
Q 3669 2231 3669 1497 
Q 3669 778 3244 343 
Q 2819 -91 2113 -91 
Q 1303 -91 875 529 
Q 447 1150 447 2328 
Q 447 3434 972 4092 
Q 1497 4750 2381 4750 
Q 2619 4750 2861 4703 
Q 3103 4656 3366 4563 
z
" transform="scale(0.015625)"/>
       </defs>
       <use xlink:href="#DejaVuSans-36"/>
      </g>
     </g>
    </g>
    <g id="ytick_8">
     <g id="line2d_15">
      <g>
       <use xlink:href="#me386bfb3e0" x="23.74375" y="49.175462" style="stroke: #000000; stroke-width: 0.8"/>
      </g>
     </g>
     <g id="text_16">
      <!-- 7 -->
      <g transform="translate(7.2 54.87429) scale(0.15 -0.15)">
       <defs>
        <path id="DejaVuSans-37" d="M 525 4666 
L 3525 4666 
L 3525 4397 
L 1831 0 
L 1172 0 
L 2766 4134 
L 525 4134 
L 525 4666 
z
" transform="scale(0.015625)"/>
       </defs>
       <use xlink:href="#DejaVuSans-37"/>
      </g>
     </g>
    </g>
    <g id="text_17">
     <!-- 1e4 -->
     <g transform="translate(23.74375 14.798437) scale(0.1 -0.1)">
      <defs>
       <path id="DejaVuSans-65" d="M 3597 1894 
L 3597 1613 
L 953 1613 
Q 991 1019 1311 708 
Q 1631 397 2203 397 
Q 2534 397 2845 478 
Q 3156 559 3463 722 
L 3463 178 
Q 3153 47 2828 -22 
Q 2503 -91 2169 -91 
Q 1331 -91 842 396 
Q 353 884 353 1716 
Q 353 2575 817 3079 
Q 1281 3584 2069 3584 
Q 2775 3584 3186 3129 
Q 3597 2675 3597 1894 
z
M 3022 2063 
Q 3016 2534 2758 2815 
Q 2500 3097 2075 3097 
Q 1594 3097 1305 2825 
Q 1016 2553 972 2059 
L 3022 2063 
z
" transform="scale(0.015625)"/>
      </defs>
      <use xlink:href="#DejaVuSans-31"/>
      <use xlink:href="#DejaVuSans-65" x="63.623047"/>
      <use xlink:href="#DejaVuSans-34" x="125.146484"/>
     </g>
    </g>
   </g>
   <g id="patch_202">
    <path d="M 23.74375 283.910437 
L 23.74375 17.798437 
" style="fill: none; stroke: #000000; stroke-width: 0.8; stroke-linejoin: miter; stroke-linecap: square"/>
   </g>
   <g id="patch_203">
    <path d="M 380.86375 283.910437 
L 380.86375 17.798437 
" style="fill: none; stroke: #000000; stroke-width: 0.8; stroke-linejoin: miter; stroke-linecap: square"/>
   </g>
   <g id="patch_204">
    <path d="M 23.74375 283.910437 
L 380.86375 283.910437 
" style="fill: none; stroke: #000000; stroke-width: 0.8; stroke-linejoin: miter; stroke-linecap: square"/>
   </g>
   <g id="patch_205">
    <path d="M 23.74375 17.798437 
L 380.86375 17.798437 
" style="fill: none; stroke: #000000; stroke-width: 0.8; stroke-linejoin: miter; stroke-linecap: square"/>
   </g>
  </g>
 </g>
 <defs>
  <clipPath id="p23acb2fd69">
   <rect x="23.74375" y="17.798437" width="357.12" height="266.112"/>
  </clipPath>
 </defs>
</svg>
