<?xml version="1.0" encoding="utf-8" standalone="no"?>
<!DOCTYPE svg PUBLIC "-//W3C//DTD SVG 1.1//EN"
  "http://www.w3.org/Graphics/SVG/1.1/DTD/svg11.dtd">
<svg xmlns:xlink="http://www.w3.org/1999/xlink" width="388.06375pt" height="341.782625pt" viewBox="0 0 388.06375 341.782625" xmlns="http://www.w3.org/2000/svg" version="1.1">
 <metadata>
  <rdf:RDF xmlns:dc="http://purl.org/dc/elements/1.1/" xmlns:cc="http://creativecommons.org/ns#" xmlns:rdf="http://www.w3.org/1999/02/22-rdf-syntax-ns#">
   <cc:Work>
    <dc:type rdf:resource="http://purl.org/dc/dcmitype/StillImage"/>
    <dc:date>2024-06-01T20:09:14.651513</dc:date>
    <dc:format>image/svg+xml</dc:format>
    <dc:creator>
     <cc:Agent>
      <dc:title>Matplotlib v3.8.3, https://matplotlib.org/</dc:title>
     </cc:Agent>
    </dc:creator>
   </cc:Work>
  </rdf:RDF>
 </metadata>
 <defs>
  <style type="text/css">*{stroke-linejoin: round; stroke-linecap: butt}</style>
 </defs>
 <g id="figure_1">
  <g id="patch_1">
   <path d="M 0 341.782625 
L 388.06375 341.782625 
L 388.06375 0 
L 0 0 
z
" style="fill: #ffffff"/>
  </g>
  <g id="axes_1">
   <g id="patch_2">
    <path d="M 23.74375 294.54825 
L 380.86375 294.54825 
L 380.86375 28.43625 
L 23.74375 28.43625 
z
" style="fill: #ffffff"/>
   </g>
   <g id="patch_3">
    <path d="M 39.976477 294.54825 
L 41.607907 294.54825 
L 41.607907 294.132434 
L 39.976477 294.132434 
z
" clip-path="url(#pc6784d0eb7)" style="fill: #1f77b4"/>
   </g>
   <g id="patch_4">
    <path d="M 41.607907 294.54825 
L 43.239337 294.54825 
L 43.239337 294.0989 
L 41.607907 294.0989 
z
" clip-path="url(#pc6784d0eb7)" style="fill: #1f77b4"/>
   </g>
   <g id="patch_5">
    <path d="M 43.239337 294.54825 
L 44.870767 294.54825 
L 44.870767 294.015066 
L 43.239337 294.015066 
z
" clip-path="url(#pc6784d0eb7)" style="fill: #1f77b4"/>
   </g>
   <g id="patch_6">
    <path d="M 44.870767 294.54825 
L 46.502197 294.54825 
L 46.502197 294.06872 
L 44.870767 294.06872 
z
" clip-path="url(#pc6784d0eb7)" style="fill: #1f77b4"/>
   </g>
   <g id="patch_7">
    <path d="M 46.502197 294.54825 
L 48.133627 294.54825 
L 48.133627 294.07878 
L 46.502197 294.07878 
z
" clip-path="url(#pc6784d0eb7)" style="fill: #1f77b4"/>
   </g>
   <g id="patch_8">
    <path d="M 48.133627 294.54825 
L 49.765057 294.54825 
L 49.765057 294.165967 
L 48.133627 294.165967 
z
" clip-path="url(#pc6784d0eb7)" style="fill: #1f77b4"/>
   </g>
   <g id="patch_9">
    <path d="M 49.765057 294.54825 
L 51.396486 294.54825 
L 51.396486 294.065367 
L 49.765057 294.065367 
z
" clip-path="url(#pc6784d0eb7)" style="fill: #1f77b4"/>
   </g>
   <g id="patch_10">
    <path d="M 51.396486 294.54825 
L 53.027916 294.54825 
L 53.027916 294.045246 
L 51.396486 294.045246 
z
" clip-path="url(#pc6784d0eb7)" style="fill: #1f77b4"/>
   </g>
   <g id="patch_11">
    <path d="M 53.027916 294.54825 
L 54.659346 294.54825 
L 54.659346 294.045246 
L 53.027916 294.045246 
z
" clip-path="url(#pc6784d0eb7)" style="fill: #1f77b4"/>
   </g>
   <g id="patch_12">
    <path d="M 54.659346 294.54825 
L 56.290776 294.54825 
L 56.290776 294.07878 
L 54.659346 294.07878 
z
" clip-path="url(#pc6784d0eb7)" style="fill: #1f77b4"/>
   </g>
   <g id="patch_13">
    <path d="M 56.290776 294.54825 
L 57.922206 294.54825 
L 57.922206 294.00836 
L 56.290776 294.00836 
z
" clip-path="url(#pc6784d0eb7)" style="fill: #1f77b4"/>
   </g>
   <g id="patch_14">
    <path d="M 57.922206 294.54825 
L 59.553636 294.54825 
L 59.553636 294.045246 
L 57.922206 294.045246 
z
" clip-path="url(#pc6784d0eb7)" style="fill: #1f77b4"/>
   </g>
   <g id="patch_15">
    <path d="M 59.553636 294.54825 
L 61.185066 294.54825 
L 61.185066 293.944646 
L 59.553636 293.944646 
z
" clip-path="url(#pc6784d0eb7)" style="fill: #1f77b4"/>
   </g>
   <g id="patch_16">
    <path d="M 61.185066 294.54825 
L 62.816496 294.54825 
L 62.816496 293.904405 
L 61.185066 293.904405 
z
" clip-path="url(#pc6784d0eb7)" style="fill: #1f77b4"/>
   </g>
   <g id="patch_17">
    <path d="M 62.816496 294.54825 
L 64.447925 294.54825 
L 64.447925 293.894345 
L 62.816496 293.894345 
z
" clip-path="url(#pc6784d0eb7)" style="fill: #1f77b4"/>
   </g>
   <g id="patch_18">
    <path d="M 64.447925 294.54825 
L 66.079355 294.54825 
L 66.079355 293.864165 
L 64.447925 293.864165 
z
" clip-path="url(#pc6784d0eb7)" style="fill: #1f77b4"/>
   </g>
   <g id="patch_19">
    <path d="M 66.079355 294.54825 
L 67.710785 294.54825 
L 67.710785 293.810512 
L 66.079355 293.810512 
z
" clip-path="url(#pc6784d0eb7)" style="fill: #1f77b4"/>
   </g>
   <g id="patch_20">
    <path d="M 67.710785 294.54825 
L 69.342215 294.54825 
L 69.342215 293.740091 
L 67.710785 293.740091 
z
" clip-path="url(#pc6784d0eb7)" style="fill: #1f77b4"/>
   </g>
   <g id="patch_21">
    <path d="M 69.342215 294.54825 
L 70.973645 294.54825 
L 70.973645 293.669671 
L 69.342215 293.669671 
z
" clip-path="url(#pc6784d0eb7)" style="fill: #1f77b4"/>
   </g>
   <g id="patch_22">
    <path d="M 70.973645 294.54825 
L 72.605075 294.54825 
L 72.605075 293.743444 
L 70.973645 293.743444 
z
" clip-path="url(#pc6784d0eb7)" style="fill: #1f77b4"/>
   </g>
   <g id="patch_23">
    <path d="M 72.605075 294.54825 
L 74.236505 294.54825 
L 74.236505 293.669671 
L 72.605075 293.669671 
z
" clip-path="url(#pc6784d0eb7)" style="fill: #1f77b4"/>
   </g>
   <g id="patch_24">
    <path d="M 74.236505 294.54825 
L 75.867935 294.54825 
L 75.867935 293.689791 
L 74.236505 293.689791 
z
" clip-path="url(#pc6784d0eb7)" style="fill: #1f77b4"/>
   </g>
   <g id="patch_25">
    <path d="M 75.867935 294.54825 
L 77.499364 294.54825 
L 77.499364 293.532183 
L 75.867935 293.532183 
z
" clip-path="url(#pc6784d0eb7)" style="fill: #1f77b4"/>
   </g>
   <g id="patch_26">
    <path d="M 77.499364 294.54825 
L 79.130794 294.54825 
L 79.130794 293.616017 
L 77.499364 293.616017 
z
" clip-path="url(#pc6784d0eb7)" style="fill: #1f77b4"/>
   </g>
   <g id="patch_27">
    <path d="M 79.130794 294.54825 
L 80.762224 294.54825 
L 80.762224 293.535536 
L 79.130794 293.535536 
z
" clip-path="url(#pc6784d0eb7)" style="fill: #1f77b4"/>
   </g>
   <g id="patch_28">
    <path d="M 80.762224 294.54825 
L 82.393654 294.54825 
L 82.393654 293.448349 
L 80.762224 293.448349 
z
" clip-path="url(#pc6784d0eb7)" style="fill: #1f77b4"/>
   </g>
   <g id="patch_29">
    <path d="M 82.393654 294.54825 
L 84.025084 294.54825 
L 84.025084 293.317568 
L 82.393654 293.317568 
z
" clip-path="url(#pc6784d0eb7)" style="fill: #1f77b4"/>
   </g>
   <g id="patch_30">
    <path d="M 84.025084 294.54825 
L 85.656514 294.54825 
L 85.656514 293.334335 
L 84.025084 293.334335 
z
" clip-path="url(#pc6784d0eb7)" style="fill: #1f77b4"/>
   </g>
   <g id="patch_31">
    <path d="M 85.656514 294.54825 
L 87.287944 294.54825 
L 87.287944 293.247148 
L 85.656514 293.247148 
z
" clip-path="url(#pc6784d0eb7)" style="fill: #1f77b4"/>
   </g>
   <g id="patch_32">
    <path d="M 87.287944 294.54825 
L 88.919374 294.54825 
L 88.919374 292.948699 
L 87.287944 292.948699 
z
" clip-path="url(#pc6784d0eb7)" style="fill: #1f77b4"/>
   </g>
   <g id="patch_33">
    <path d="M 88.919374 294.54825 
L 90.550803 294.54825 
L 90.550803 293.086186 
L 88.919374 293.086186 
z
" clip-path="url(#pc6784d0eb7)" style="fill: #1f77b4"/>
   </g>
   <g id="patch_34">
    <path d="M 90.550803 294.54825 
L 92.182233 294.54825 
L 92.182233 292.871572 
L 90.550803 292.871572 
z
" clip-path="url(#pc6784d0eb7)" style="fill: #1f77b4"/>
   </g>
   <g id="patch_35">
    <path d="M 92.182233 294.54825 
L 93.813663 294.54825 
L 93.813663 292.750851 
L 92.182233 292.750851 
z
" clip-path="url(#pc6784d0eb7)" style="fill: #1f77b4"/>
   </g>
   <g id="patch_36">
    <path d="M 93.813663 294.54825 
L 95.445093 294.54825 
L 95.445093 292.941992 
L 93.813663 292.941992 
z
" clip-path="url(#pc6784d0eb7)" style="fill: #1f77b4"/>
   </g>
   <g id="patch_37">
    <path d="M 95.445093 294.54825 
L 97.076523 294.54825 
L 97.076523 292.465815 
L 95.445093 292.465815 
z
" clip-path="url(#pc6784d0eb7)" style="fill: #1f77b4"/>
   </g>
   <g id="patch_38">
    <path d="M 97.076523 294.54825 
L 98.707953 294.54825 
L 98.707953 292.720671 
L 97.076523 292.720671 
z
" clip-path="url(#pc6784d0eb7)" style="fill: #1f77b4"/>
   </g>
   <g id="patch_39">
    <path d="M 98.707953 294.54825 
L 100.339383 294.54825 
L 100.339383 292.455755 
L 98.707953 292.455755 
z
" clip-path="url(#pc6784d0eb7)" style="fill: #1f77b4"/>
   </g>
   <g id="patch_40">
    <path d="M 100.339383 294.54825 
L 101.970813 294.54825 
L 101.970813 292.388688 
L 100.339383 292.388688 
z
" clip-path="url(#pc6784d0eb7)" style="fill: #1f77b4"/>
   </g>
   <g id="patch_41">
    <path d="M 101.970813 294.54825 
L 103.602242 294.54825 
L 103.602242 292.284734 
L 101.970813 292.284734 
z
" clip-path="url(#pc6784d0eb7)" style="fill: #1f77b4"/>
   </g>
   <g id="patch_42">
    <path d="M 103.602242 294.54825 
L 105.233672 294.54825 
L 105.233672 292.083533 
L 103.602242 292.083533 
z
" clip-path="url(#pc6784d0eb7)" style="fill: #1f77b4"/>
   </g>
   <g id="patch_43">
    <path d="M 105.233672 294.54825 
L 106.865102 294.54825 
L 106.865102 291.986285 
L 105.233672 291.986285 
z
" clip-path="url(#pc6784d0eb7)" style="fill: #1f77b4"/>
   </g>
   <g id="patch_44">
    <path d="M 106.865102 294.54825 
L 108.496532 294.54825 
L 108.496532 291.838738 
L 106.865102 291.838738 
z
" clip-path="url(#pc6784d0eb7)" style="fill: #1f77b4"/>
   </g>
   <g id="patch_45">
    <path d="M 108.496532 294.54825 
L 110.127962 294.54825 
L 110.127962 291.788437 
L 108.496532 291.788437 
z
" clip-path="url(#pc6784d0eb7)" style="fill: #1f77b4"/>
   </g>
   <g id="patch_46">
    <path d="M 110.127962 294.54825 
L 111.759392 294.54825 
L 111.759392 291.553702 
L 110.127962 291.553702 
z
" clip-path="url(#pc6784d0eb7)" style="fill: #1f77b4"/>
   </g>
   <g id="patch_47">
    <path d="M 111.759392 294.54825 
L 113.390822 294.54825 
L 113.390822 291.342441 
L 111.759392 291.342441 
z
" clip-path="url(#pc6784d0eb7)" style="fill: #1f77b4"/>
   </g>
   <g id="patch_48">
    <path d="M 113.390822 294.54825 
L 115.022252 294.54825 
L 115.022252 291.352501 
L 113.390822 291.352501 
z
" clip-path="url(#pc6784d0eb7)" style="fill: #1f77b4"/>
   </g>
   <g id="patch_49">
    <path d="M 115.022252 294.54825 
L 116.653681 294.54825 
L 116.653681 291.17142 
L 115.022252 291.17142 
z
" clip-path="url(#pc6784d0eb7)" style="fill: #1f77b4"/>
   </g>
   <g id="patch_50">
    <path d="M 116.653681 294.54825 
L 118.285111 294.54825 
L 118.285111 290.775724 
L 116.653681 290.775724 
z
" clip-path="url(#pc6784d0eb7)" style="fill: #1f77b4"/>
   </g>
   <g id="patch_51">
    <path d="M 118.285111 294.54825 
L 119.916541 294.54825 
L 119.916541 290.718717 
L 118.285111 290.718717 
z
" clip-path="url(#pc6784d0eb7)" style="fill: #1f77b4"/>
   </g>
   <g id="patch_52">
    <path d="M 119.916541 294.54825 
L 121.547971 294.54825 
L 121.547971 290.71201 
L 119.916541 290.71201 
z
" clip-path="url(#pc6784d0eb7)" style="fill: #1f77b4"/>
   </g>
   <g id="patch_53">
    <path d="M 121.547971 294.54825 
L 123.179401 294.54825 
L 123.179401 290.433681 
L 121.547971 290.433681 
z
" clip-path="url(#pc6784d0eb7)" style="fill: #1f77b4"/>
   </g>
   <g id="patch_54">
    <path d="M 123.179401 294.54825 
L 124.810831 294.54825 
L 124.810831 290.138586 
L 123.179401 290.138586 
z
" clip-path="url(#pc6784d0eb7)" style="fill: #1f77b4"/>
   </g>
   <g id="patch_55">
    <path d="M 124.810831 294.54825 
L 126.442261 294.54825 
L 126.442261 290.235833 
L 124.810831 290.235833 
z
" clip-path="url(#pc6784d0eb7)" style="fill: #1f77b4"/>
   </g>
   <g id="patch_56">
    <path d="M 126.442261 294.54825 
L 128.073691 294.54825 
L 128.073691 289.873671 
L 126.442261 289.873671 
z
" clip-path="url(#pc6784d0eb7)" style="fill: #1f77b4"/>
   </g>
   <g id="patch_57">
    <path d="M 128.073691 294.54825 
L 129.70512 294.54825 
L 129.70512 289.652349 
L 128.073691 289.652349 
z
" clip-path="url(#pc6784d0eb7)" style="fill: #1f77b4"/>
   </g>
   <g id="patch_58">
    <path d="M 129.70512 294.54825 
L 131.33655 294.54825 
L 131.33655 289.119165 
L 129.70512 289.119165 
z
" clip-path="url(#pc6784d0eb7)" style="fill: #1f77b4"/>
   </g>
   <g id="patch_59">
    <path d="M 131.33655 294.54825 
L 132.96798 294.54825 
L 132.96798 288.917964 
L 131.33655 288.917964 
z
" clip-path="url(#pc6784d0eb7)" style="fill: #1f77b4"/>
   </g>
   <g id="patch_60">
    <path d="M 132.96798 294.54825 
L 134.59941 294.54825 
L 134.59941 288.857604 
L 132.96798 288.857604 
z
" clip-path="url(#pc6784d0eb7)" style="fill: #1f77b4"/>
   </g>
   <g id="patch_61">
    <path d="M 134.59941 294.54825 
L 136.23084 294.54825 
L 136.23084 288.525621 
L 134.59941 288.525621 
z
" clip-path="url(#pc6784d0eb7)" style="fill: #1f77b4"/>
   </g>
   <g id="patch_62">
    <path d="M 136.23084 294.54825 
L 137.86227 294.54825 
L 137.86227 288.455201 
L 136.23084 288.455201 
z
" clip-path="url(#pc6784d0eb7)" style="fill: #1f77b4"/>
   </g>
   <g id="patch_63">
    <path d="M 137.86227 294.54825 
L 139.4937 294.54825 
L 139.4937 288.180225 
L 137.86227 288.180225 
z
" clip-path="url(#pc6784d0eb7)" style="fill: #1f77b4"/>
   </g>
   <g id="patch_64">
    <path d="M 139.4937 294.54825 
L 141.12513 294.54825 
L 141.12513 288.119865 
L 139.4937 288.119865 
z
" clip-path="url(#pc6784d0eb7)" style="fill: #1f77b4"/>
   </g>
   <g id="patch_65">
    <path d="M 141.12513 294.54825 
L 142.75656 294.54825 
L 142.75656 287.87507 
L 141.12513 287.87507 
z
" clip-path="url(#pc6784d0eb7)" style="fill: #1f77b4"/>
   </g>
   <g id="patch_66">
    <path d="M 142.75656 294.54825 
L 144.387989 294.54825 
L 144.387989 287.492787 
L 142.75656 287.492787 
z
" clip-path="url(#pc6784d0eb7)" style="fill: #1f77b4"/>
   </g>
   <g id="patch_67">
    <path d="M 144.387989 294.54825 
L 146.019419 294.54825 
L 146.019419 287.486081 
L 144.387989 287.486081 
z
" clip-path="url(#pc6784d0eb7)" style="fill: #1f77b4"/>
   </g>
   <g id="patch_68">
    <path d="M 146.019419 294.54825 
L 147.650849 294.54825 
L 147.650849 287.073618 
L 146.019419 287.073618 
z
" clip-path="url(#pc6784d0eb7)" style="fill: #1f77b4"/>
   </g>
   <g id="patch_69">
    <path d="M 147.650849 294.54825 
L 149.282279 294.54825 
L 149.282279 286.708102 
L 147.650849 286.708102 
z
" clip-path="url(#pc6784d0eb7)" style="fill: #1f77b4"/>
   </g>
   <g id="patch_70">
    <path d="M 149.282279 294.54825 
L 150.913709 294.54825 
L 150.913709 286.00725 
L 149.282279 286.00725 
z
" clip-path="url(#pc6784d0eb7)" style="fill: #1f77b4"/>
   </g>
   <g id="patch_71">
    <path d="M 150.913709 294.54825 
L 152.545139 294.54825 
L 152.545139 285.531074 
L 150.913709 285.531074 
z
" clip-path="url(#pc6784d0eb7)" style="fill: #1f77b4"/>
   </g>
   <g id="patch_72">
    <path d="M 152.545139 294.54825 
L 154.176569 294.54825 
L 154.176569 285.333226 
L 152.545139 285.333226 
z
" clip-path="url(#pc6784d0eb7)" style="fill: #1f77b4"/>
   </g>
   <g id="patch_73">
    <path d="M 154.176569 294.54825 
L 155.807999 294.54825 
L 155.807999 284.525067 
L 154.176569 284.525067 
z
" clip-path="url(#pc6784d0eb7)" style="fill: #1f77b4"/>
   </g>
   <g id="patch_74">
    <path d="M 155.807999 294.54825 
L 157.439428 294.54825 
L 157.439428 284.112604 
L 155.807999 284.112604 
z
" clip-path="url(#pc6784d0eb7)" style="fill: #1f77b4"/>
   </g>
   <g id="patch_75">
    <path d="M 157.439428 294.54825 
L 159.070858 294.54825 
L 159.070858 283.53918 
L 157.439428 283.53918 
z
" clip-path="url(#pc6784d0eb7)" style="fill: #1f77b4"/>
   </g>
   <g id="patch_76">
    <path d="M 159.070858 294.54825 
L 160.702288 294.54825 
L 160.702288 283.046236 
L 159.070858 283.046236 
z
" clip-path="url(#pc6784d0eb7)" style="fill: #1f77b4"/>
   </g>
   <g id="patch_77">
    <path d="M 160.702288 294.54825 
L 162.333718 294.54825 
L 162.333718 282.399038 
L 160.702288 282.399038 
z
" clip-path="url(#pc6784d0eb7)" style="fill: #1f77b4"/>
   </g>
   <g id="patch_78">
    <path d="M 162.333718 294.54825 
L 163.965148 294.54825 
L 163.965148 281.946335 
L 162.333718 281.946335 
z
" clip-path="url(#pc6784d0eb7)" style="fill: #1f77b4"/>
   </g>
   <g id="patch_79">
    <path d="M 163.965148 294.54825 
L 165.596578 294.54825 
L 165.596578 281.17171 
L 163.965148 281.17171 
z
" clip-path="url(#pc6784d0eb7)" style="fill: #1f77b4"/>
   </g>
   <g id="patch_80">
    <path d="M 165.596578 294.54825 
L 167.228008 294.54825 
L 167.228008 279.820307 
L 165.596578 279.820307 
z
" clip-path="url(#pc6784d0eb7)" style="fill: #1f77b4"/>
   </g>
   <g id="patch_81">
    <path d="M 167.228008 294.54825 
L 168.859438 294.54825 
L 168.859438 279.166402 
L 167.228008 279.166402 
z
" clip-path="url(#pc6784d0eb7)" style="fill: #1f77b4"/>
   </g>
   <g id="patch_82">
    <path d="M 168.859438 294.54825 
L 170.490867 294.54825 
L 170.490867 278.277763 
L 168.859438 278.277763 
z
" clip-path="url(#pc6784d0eb7)" style="fill: #1f77b4"/>
   </g>
   <g id="patch_83">
    <path d="M 170.490867 294.54825 
L 172.122297 294.54825 
L 172.122297 277.486371 
L 170.490867 277.486371 
z
" clip-path="url(#pc6784d0eb7)" style="fill: #1f77b4"/>
   </g>
   <g id="patch_84">
    <path d="M 172.122297 294.54825 
L 173.753727 294.54825 
L 173.753727 276.03772 
L 172.122297 276.03772 
z
" clip-path="url(#pc6784d0eb7)" style="fill: #1f77b4"/>
   </g>
   <g id="patch_85">
    <path d="M 173.753727 294.54825 
L 175.385157 294.54825 
L 175.385157 275.789572 
L 173.753727 275.789572 
z
" clip-path="url(#pc6784d0eb7)" style="fill: #1f77b4"/>
   </g>
   <g id="patch_86">
    <path d="M 175.385157 294.54825 
L 177.016587 294.54825 
L 177.016587 273.401982 
L 175.385157 273.401982 
z
" clip-path="url(#pc6784d0eb7)" style="fill: #1f77b4"/>
   </g>
   <g id="patch_87">
    <path d="M 177.016587 294.54825 
L 178.648017 294.54825 
L 178.648017 272.087466 
L 177.016587 272.087466 
z
" clip-path="url(#pc6784d0eb7)" style="fill: #1f77b4"/>
   </g>
   <g id="patch_88">
    <path d="M 178.648017 294.54825 
L 180.279447 294.54825 
L 180.279447 270.424201 
L 178.648017 270.424201 
z
" clip-path="url(#pc6784d0eb7)" style="fill: #1f77b4"/>
   </g>
   <g id="patch_89">
    <path d="M 180.279447 294.54825 
L 181.910877 294.54825 
L 181.910877 268.425601 
L 180.279447 268.425601 
z
" clip-path="url(#pc6784d0eb7)" style="fill: #1f77b4"/>
   </g>
   <g id="patch_90">
    <path d="M 181.910877 294.54825 
L 183.542306 294.54825 
L 183.542306 266.661735 
L 181.910877 266.661735 
z
" clip-path="url(#pc6784d0eb7)" style="fill: #1f77b4"/>
   </g>
   <g id="patch_91">
    <path d="M 183.542306 294.54825 
L 185.173736 294.54825 
L 185.173736 264.54912 
L 183.542306 264.54912 
z
" clip-path="url(#pc6784d0eb7)" style="fill: #1f77b4"/>
   </g>
   <g id="patch_92">
    <path d="M 185.173736 294.54825 
L 186.805166 294.54825 
L 186.805166 261.946915 
L 185.173736 261.946915 
z
" clip-path="url(#pc6784d0eb7)" style="fill: #1f77b4"/>
   </g>
   <g id="patch_93">
    <path d="M 186.805166 294.54825 
L 188.436596 294.54825 
L 188.436596 260.115982 
L 186.805166 260.115982 
z
" clip-path="url(#pc6784d0eb7)" style="fill: #1f77b4"/>
   </g>
   <g id="patch_94">
    <path d="M 188.436596 294.54825 
L 190.068026 294.54825 
L 190.068026 256.863226 
L 188.436596 256.863226 
z
" clip-path="url(#pc6784d0eb7)" style="fill: #1f77b4"/>
   </g>
   <g id="patch_95">
    <path d="M 190.068026 294.54825 
L 191.699456 294.54825 
L 191.699456 253.885445 
L 190.068026 253.885445 
z
" clip-path="url(#pc6784d0eb7)" style="fill: #1f77b4"/>
   </g>
   <g id="patch_96">
    <path d="M 191.699456 294.54825 
L 193.330886 294.54825 
L 193.330886 250.545502 
L 191.699456 250.545502 
z
" clip-path="url(#pc6784d0eb7)" style="fill: #1f77b4"/>
   </g>
   <g id="patch_97">
    <path d="M 193.330886 294.54825 
L 194.962316 294.54825 
L 194.962316 246.256559 
L 193.330886 246.256559 
z
" clip-path="url(#pc6784d0eb7)" style="fill: #1f77b4"/>
   </g>
   <g id="patch_98">
    <path d="M 194.962316 294.54825 
L 196.593745 294.54825 
L 196.593745 240.666513 
L 194.962316 240.666513 
z
" clip-path="url(#pc6784d0eb7)" style="fill: #1f77b4"/>
   </g>
   <g id="patch_99">
    <path d="M 196.593745 294.54825 
L 198.225175 294.54825 
L 198.225175 236.525117 
L 196.593745 236.525117 
z
" clip-path="url(#pc6784d0eb7)" style="fill: #1f77b4"/>
   </g>
   <g id="patch_100">
    <path d="M 198.225175 294.54825 
L 199.856605 294.54825 
L 199.856605 230.455542 
L 198.225175 230.455542 
z
" clip-path="url(#pc6784d0eb7)" style="fill: #1f77b4"/>
   </g>
   <g id="patch_101">
    <path d="M 199.856605 294.54825 
L 201.488035 294.54825 
L 201.488035 224.141171 
L 199.856605 224.141171 
z
" clip-path="url(#pc6784d0eb7)" style="fill: #1f77b4"/>
   </g>
   <g id="patch_102">
    <path d="M 201.488035 294.54825 
L 203.119465 294.54825 
L 203.119465 217.551825 
L 201.488035 217.551825 
z
" clip-path="url(#pc6784d0eb7)" style="fill: #1f77b4"/>
   </g>
   <g id="patch_103">
    <path d="M 203.119465 294.54825 
L 204.750895 294.54825 
L 204.750895 210.130846 
L 203.119465 210.130846 
z
" clip-path="url(#pc6784d0eb7)" style="fill: #1f77b4"/>
   </g>
   <g id="patch_104">
    <path d="M 204.750895 294.54825 
L 206.382325 294.54825 
L 206.382325 202.951309 
L 204.750895 202.951309 
z
" clip-path="url(#pc6784d0eb7)" style="fill: #1f77b4"/>
   </g>
   <g id="patch_105">
    <path d="M 206.382325 294.54825 
L 208.013755 294.54825 
L 208.013755 194.909959 
L 206.382325 194.909959 
z
" clip-path="url(#pc6784d0eb7)" style="fill: #1f77b4"/>
   </g>
   <g id="patch_106">
    <path d="M 208.013755 294.54825 
L 209.645184 294.54825 
L 209.645184 186.204645 
L 208.013755 186.204645 
z
" clip-path="url(#pc6784d0eb7)" style="fill: #1f77b4"/>
   </g>
   <g id="patch_107">
    <path d="M 209.645184 294.54825 
L 211.276614 294.54825 
L 211.276614 174.779759 
L 209.645184 174.779759 
z
" clip-path="url(#pc6784d0eb7)" style="fill: #1f77b4"/>
   </g>
   <g id="patch_108">
    <path d="M 211.276614 294.54825 
L 212.908044 294.54825 
L 212.908044 165.329999 
L 211.276614 165.329999 
z
" clip-path="url(#pc6784d0eb7)" style="fill: #1f77b4"/>
   </g>
   <g id="patch_109">
    <path d="M 212.908044 294.54825 
L 214.539474 294.54825 
L 214.539474 155.216275 
L 212.908044 155.216275 
z
" clip-path="url(#pc6784d0eb7)" style="fill: #1f77b4"/>
   </g>
   <g id="patch_110">
    <path d="M 214.539474 294.54825 
L 216.170904 294.54825 
L 216.170904 144.187085 
L 214.539474 144.187085 
z
" clip-path="url(#pc6784d0eb7)" style="fill: #1f77b4"/>
   </g>
   <g id="patch_111">
    <path d="M 216.170904 294.54825 
L 217.802334 294.54825 
L 217.802334 132.259194 
L 216.170904 132.259194 
z
" clip-path="url(#pc6784d0eb7)" style="fill: #1f77b4"/>
   </g>
   <g id="patch_112">
    <path d="M 217.802334 294.54825 
L 219.433764 294.54825 
L 219.433764 121.387612 
L 217.802334 121.387612 
z
" clip-path="url(#pc6784d0eb7)" style="fill: #1f77b4"/>
   </g>
   <g id="patch_113">
    <path d="M 219.433764 294.54825 
L 221.065194 294.54825 
L 221.065194 108.584495 
L 219.433764 108.584495 
z
" clip-path="url(#pc6784d0eb7)" style="fill: #1f77b4"/>
   </g>
   <g id="patch_114">
    <path d="M 221.065194 294.54825 
L 222.696623 294.54825 
L 222.696623 98.199149 
L 221.065194 98.199149 
z
" clip-path="url(#pc6784d0eb7)" style="fill: #1f77b4"/>
   </g>
   <g id="patch_115">
    <path d="M 222.696623 294.54825 
L 224.328053 294.54825 
L 224.328053 86.257846 
L 222.696623 86.257846 
z
" clip-path="url(#pc6784d0eb7)" style="fill: #1f77b4"/>
   </g>
   <g id="patch_116">
    <path d="M 224.328053 294.54825 
L 225.959483 294.54825 
L 225.959483 76.724253 
L 224.328053 76.724253 
z
" clip-path="url(#pc6784d0eb7)" style="fill: #1f77b4"/>
   </g>
   <g id="patch_117">
    <path d="M 225.959483 294.54825 
L 227.590913 294.54825 
L 227.590913 68.012232 
L 225.959483 68.012232 
z
" clip-path="url(#pc6784d0eb7)" style="fill: #1f77b4"/>
   </g>
   <g id="patch_118">
    <path d="M 227.590913 294.54825 
L 229.222343 294.54825 
L 229.222343 60.031242 
L 227.590913 60.031242 
z
" clip-path="url(#pc6784d0eb7)" style="fill: #1f77b4"/>
   </g>
   <g id="patch_119">
    <path d="M 229.222343 294.54825 
L 230.853773 294.54825 
L 230.853773 52.841645 
L 229.222343 52.841645 
z
" clip-path="url(#pc6784d0eb7)" style="fill: #1f77b4"/>
   </g>
   <g id="patch_120">
    <path d="M 230.853773 294.54825 
L 232.485203 294.54825 
L 232.485203 47.285133 
L 230.853773 47.285133 
z
" clip-path="url(#pc6784d0eb7)" style="fill: #1f77b4"/>
   </g>
   <g id="patch_121">
    <path d="M 232.485203 294.54825 
L 234.116633 294.54825 
L 234.116633 42.892236 
L 232.485203 42.892236 
z
" clip-path="url(#pc6784d0eb7)" style="fill: #1f77b4"/>
   </g>
   <g id="patch_122">
    <path d="M 234.116633 294.54825 
L 235.748062 294.54825 
L 235.748062 41.212204 
L 234.116633 41.212204 
z
" clip-path="url(#pc6784d0eb7)" style="fill: #1f77b4"/>
   </g>
   <g id="patch_123">
    <path d="M 235.748062 294.54825 
L 237.379492 294.54825 
L 237.379492 41.10825 
L 235.748062 41.10825 
z
" clip-path="url(#pc6784d0eb7)" style="fill: #1f77b4"/>
   </g>
   <g id="patch_124">
    <path d="M 237.379492 294.54825 
L 239.010922 294.54825 
L 239.010922 41.785628 
L 237.379492 41.785628 
z
" clip-path="url(#pc6784d0eb7)" style="fill: #1f77b4"/>
   </g>
   <g id="patch_125">
    <path d="M 239.010922 294.54825 
L 240.642352 294.54825 
L 240.642352 44.585681 
L 239.010922 44.585681 
z
" clip-path="url(#pc6784d0eb7)" style="fill: #1f77b4"/>
   </g>
   <g id="patch_126">
    <path d="M 240.642352 294.54825 
L 242.273782 294.54825 
L 242.273782 46.755303 
L 240.642352 46.755303 
z
" clip-path="url(#pc6784d0eb7)" style="fill: #1f77b4"/>
   </g>
   <g id="patch_127">
    <path d="M 242.273782 294.54825 
L 243.905212 294.54825 
L 243.905212 51.08784 
L 242.273782 51.08784 
z
" clip-path="url(#pc6784d0eb7)" style="fill: #1f77b4"/>
   </g>
   <g id="patch_128">
    <path d="M 243.905212 294.54825 
L 245.536642 294.54825 
L 245.536642 59.099009 
L 243.905212 59.099009 
z
" clip-path="url(#pc6784d0eb7)" style="fill: #1f77b4"/>
   </g>
   <g id="patch_129">
    <path d="M 245.536642 294.54825 
L 247.168072 294.54825 
L 247.168072 67.187306 
L 245.536642 67.187306 
z
" clip-path="url(#pc6784d0eb7)" style="fill: #1f77b4"/>
   </g>
   <g id="patch_130">
    <path d="M 247.168072 294.54825 
L 248.799501 294.54825 
L 248.799501 76.539818 
L 247.168072 76.539818 
z
" clip-path="url(#pc6784d0eb7)" style="fill: #1f77b4"/>
   </g>
   <g id="patch_131">
    <path d="M 248.799501 294.54825 
L 250.430931 294.54825 
L 250.430931 84.249185 
L 248.799501 84.249185 
z
" clip-path="url(#pc6784d0eb7)" style="fill: #1f77b4"/>
   </g>
   <g id="patch_132">
    <path d="M 250.430931 294.54825 
L 252.062361 294.54825 
L 252.062361 97.005354 
L 250.430931 97.005354 
z
" clip-path="url(#pc6784d0eb7)" style="fill: #1f77b4"/>
   </g>
   <g id="patch_133">
    <path d="M 252.062361 294.54825 
L 253.693791 294.54825 
L 253.693791 106.941351 
L 252.062361 106.941351 
z
" clip-path="url(#pc6784d0eb7)" style="fill: #1f77b4"/>
   </g>
   <g id="patch_134">
    <path d="M 253.693791 294.54825 
L 255.325221 294.54825 
L 255.325221 118.584205 
L 253.693791 118.584205 
z
" clip-path="url(#pc6784d0eb7)" style="fill: #1f77b4"/>
   </g>
   <g id="patch_135">
    <path d="M 255.325221 294.54825 
L 256.956651 294.54825 
L 256.956651 131.122407 
L 255.325221 131.122407 
z
" clip-path="url(#pc6784d0eb7)" style="fill: #1f77b4"/>
   </g>
   <g id="patch_136">
    <path d="M 256.956651 294.54825 
L 258.588081 294.54825 
L 258.588081 143.244791 
L 256.956651 143.244791 
z
" clip-path="url(#pc6784d0eb7)" style="fill: #1f77b4"/>
   </g>
   <g id="patch_137">
    <path d="M 258.588081 294.54825 
L 260.219511 294.54825 
L 260.219511 153.750858 
L 258.588081 153.750858 
z
" clip-path="url(#pc6784d0eb7)" style="fill: #1f77b4"/>
   </g>
   <g id="patch_138">
    <path d="M 260.219511 294.54825 
L 261.85094 294.54825 
L 261.85094 166.3293 
L 260.219511 166.3293 
z
" clip-path="url(#pc6784d0eb7)" style="fill: #1f77b4"/>
   </g>
   <g id="patch_139">
    <path d="M 261.85094 294.54825 
L 263.48237 294.54825 
L 263.48237 176.255236 
L 261.85094 176.255236 
z
" clip-path="url(#pc6784d0eb7)" style="fill: #1f77b4"/>
   </g>
   <g id="patch_140">
    <path d="M 263.48237 294.54825 
L 265.1138 294.54825 
L 265.1138 187.431974 
L 263.48237 187.431974 
z
" clip-path="url(#pc6784d0eb7)" style="fill: #1f77b4"/>
   </g>
   <g id="patch_141">
    <path d="M 265.1138 294.54825 
L 266.74523 294.54825 
L 266.74523 196.583285 
L 265.1138 196.583285 
z
" clip-path="url(#pc6784d0eb7)" style="fill: #1f77b4"/>
   </g>
   <g id="patch_142">
    <path d="M 266.74523 294.54825 
L 268.37666 294.54825 
L 268.37666 206.710422 
L 266.74523 206.710422 
z
" clip-path="url(#pc6784d0eb7)" style="fill: #1f77b4"/>
   </g>
   <g id="patch_143">
    <path d="M 268.37666 294.54825 
L 270.00809 294.54825 
L 270.00809 215.445917 
L 268.37666 215.445917 
z
" clip-path="url(#pc6784d0eb7)" style="fill: #1f77b4"/>
   </g>
   <g id="patch_144">
    <path d="M 270.00809 294.54825 
L 271.63952 294.54825 
L 271.63952 223.369899 
L 270.00809 223.369899 
z
" clip-path="url(#pc6784d0eb7)" style="fill: #1f77b4"/>
   </g>
   <g id="patch_145">
    <path d="M 271.63952 294.54825 
L 273.27095 294.54825 
L 273.27095 230.150386 
L 271.63952 230.150386 
z
" clip-path="url(#pc6784d0eb7)" style="fill: #1f77b4"/>
   </g>
   <g id="patch_146">
    <path d="M 273.27095 294.54825 
L 274.90238 294.54825 
L 274.90238 236.796739 
L 273.27095 236.796739 
z
" clip-path="url(#pc6784d0eb7)" style="fill: #1f77b4"/>
   </g>
   <g id="patch_147">
    <path d="M 274.90238 294.54825 
L 276.533809 294.54825 
L 276.533809 242.725474 
L 274.90238 242.725474 
z
" clip-path="url(#pc6784d0eb7)" style="fill: #1f77b4"/>
   </g>
   <g id="patch_148">
    <path d="M 276.533809 294.54825 
L 278.165239 294.54825 
L 278.165239 247.765569 
L 276.533809 247.765569 
z
" clip-path="url(#pc6784d0eb7)" style="fill: #1f77b4"/>
   </g>
   <g id="patch_149">
    <path d="M 278.165239 294.54825 
L 279.796669 294.54825 
L 279.796669 252.473682 
L 278.165239 252.473682 
z
" clip-path="url(#pc6784d0eb7)" style="fill: #1f77b4"/>
   </g>
   <g id="patch_150">
    <path d="M 279.796669 294.54825 
L 281.428099 294.54825 
L 281.428099 256.782746 
L 279.796669 256.782746 
z
" clip-path="url(#pc6784d0eb7)" style="fill: #1f77b4"/>
   </g>
   <g id="patch_151">
    <path d="M 281.428099 294.54825 
L 283.059529 294.54825 
L 283.059529 260.374191 
L 281.428099 260.374191 
z
" clip-path="url(#pc6784d0eb7)" style="fill: #1f77b4"/>
   </g>
   <g id="patch_152">
    <path d="M 283.059529 294.54825 
L 284.690959 294.54825 
L 284.690959 262.989809 
L 283.059529 262.989809 
z
" clip-path="url(#pc6784d0eb7)" style="fill: #1f77b4"/>
   </g>
   <g id="patch_153">
    <path d="M 284.690959 294.54825 
L 286.322389 294.54825 
L 286.322389 266.058131 
L 284.690959 266.058131 
z
" clip-path="url(#pc6784d0eb7)" style="fill: #1f77b4"/>
   </g>
   <g id="patch_154">
    <path d="M 286.322389 294.54825 
L 287.953819 294.54825 
L 287.953819 268.096972 
L 286.322389 268.096972 
z
" clip-path="url(#pc6784d0eb7)" style="fill: #1f77b4"/>
   </g>
   <g id="patch_155">
    <path d="M 287.953819 294.54825 
L 289.585248 294.54825 
L 289.585248 270.246473 
L 287.953819 270.246473 
z
" clip-path="url(#pc6784d0eb7)" style="fill: #1f77b4"/>
   </g>
   <g id="patch_156">
    <path d="M 289.585248 294.54825 
L 291.216678 294.54825 
L 291.216678 272.818498 
L 289.585248 272.818498 
z
" clip-path="url(#pc6784d0eb7)" style="fill: #1f77b4"/>
   </g>
   <g id="patch_157">
    <path d="M 291.216678 294.54825 
L 292.848108 294.54825 
L 292.848108 274.166547 
L 291.216678 274.166547 
z
" clip-path="url(#pc6784d0eb7)" style="fill: #1f77b4"/>
   </g>
   <g id="patch_158">
    <path d="M 292.848108 294.54825 
L 294.479538 294.54825 
L 294.479538 275.346929 
L 292.848108 275.346929 
z
" clip-path="url(#pc6784d0eb7)" style="fill: #1f77b4"/>
   </g>
   <g id="patch_159">
    <path d="M 294.479538 294.54825 
L 296.110968 294.54825 
L 296.110968 277.268402 
L 294.479538 277.268402 
z
" clip-path="url(#pc6784d0eb7)" style="fill: #1f77b4"/>
   </g>
   <g id="patch_160">
    <path d="M 296.110968 294.54825 
L 297.742398 294.54825 
L 297.742398 278.683519 
L 296.110968 278.683519 
z
" clip-path="url(#pc6784d0eb7)" style="fill: #1f77b4"/>
   </g>
   <g id="patch_161">
    <path d="M 297.742398 294.54825 
L 299.373828 294.54825 
L 299.373828 280.182469 
L 297.742398 280.182469 
z
" clip-path="url(#pc6784d0eb7)" style="fill: #1f77b4"/>
   </g>
   <g id="patch_162">
    <path d="M 299.373828 294.54825 
L 301.005258 294.54825 
L 301.005258 281.14153 
L 299.373828 281.14153 
z
" clip-path="url(#pc6784d0eb7)" style="fill: #1f77b4"/>
   </g>
   <g id="patch_163">
    <path d="M 301.005258 294.54825 
L 302.636687 294.54825 
L 302.636687 281.862501 
L 301.005258 281.862501 
z
" clip-path="url(#pc6784d0eb7)" style="fill: #1f77b4"/>
   </g>
   <g id="patch_164">
    <path d="M 302.636687 294.54825 
L 304.268117 294.54825 
L 304.268117 282.777968 
L 302.636687 282.777968 
z
" clip-path="url(#pc6784d0eb7)" style="fill: #1f77b4"/>
   </g>
   <g id="patch_165">
    <path d="M 304.268117 294.54825 
L 305.899547 294.54825 
L 305.899547 283.458699 
L 304.268117 283.458699 
z
" clip-path="url(#pc6784d0eb7)" style="fill: #1f77b4"/>
   </g>
   <g id="patch_166">
    <path d="M 305.899547 294.54825 
L 307.530977 294.54825 
L 307.530977 284.327218 
L 305.899547 284.327218 
z
" clip-path="url(#pc6784d0eb7)" style="fill: #1f77b4"/>
   </g>
   <g id="patch_167">
    <path d="M 307.530977 294.54825 
L 309.162407 294.54825 
L 309.162407 285.064957 
L 307.530977 285.064957 
z
" clip-path="url(#pc6784d0eb7)" style="fill: #1f77b4"/>
   </g>
   <g id="patch_168">
    <path d="M 309.162407 294.54825 
L 310.793837 294.54825 
L 310.793837 285.608201 
L 309.162407 285.608201 
z
" clip-path="url(#pc6784d0eb7)" style="fill: #1f77b4"/>
   </g>
   <g id="patch_169">
    <path d="M 310.793837 294.54825 
L 312.425267 294.54825 
L 312.425267 285.993837 
L 310.793837 285.993837 
z
" clip-path="url(#pc6784d0eb7)" style="fill: #1f77b4"/>
   </g>
   <g id="patch_170">
    <path d="M 312.425267 294.54825 
L 314.056697 294.54825 
L 314.056697 286.413006 
L 312.425267 286.413006 
z
" clip-path="url(#pc6784d0eb7)" style="fill: #1f77b4"/>
   </g>
   <g id="patch_171">
    <path d="M 314.056697 294.54825 
L 315.688126 294.54825 
L 315.688126 287.030024 
L 314.056697 287.030024 
z
" clip-path="url(#pc6784d0eb7)" style="fill: #1f77b4"/>
   </g>
   <g id="patch_172">
    <path d="M 315.688126 294.54825 
L 317.319556 294.54825 
L 317.319556 287.408953 
L 315.688126 287.408953 
z
" clip-path="url(#pc6784d0eb7)" style="fill: #1f77b4"/>
   </g>
   <g id="patch_173">
    <path d="M 317.319556 294.54825 
L 318.950986 294.54825 
L 318.950986 287.818063 
L 317.319556 287.818063 
z
" clip-path="url(#pc6784d0eb7)" style="fill: #1f77b4"/>
   </g>
   <g id="patch_174">
    <path d="M 318.950986 294.54825 
L 320.582416 294.54825 
L 320.582416 288.213759 
L 318.950986 288.213759 
z
" clip-path="url(#pc6784d0eb7)" style="fill: #1f77b4"/>
   </g>
   <g id="patch_175">
    <path d="M 320.582416 294.54825 
L 322.213846 294.54825 
L 322.213846 288.498794 
L 320.582416 288.498794 
z
" clip-path="url(#pc6784d0eb7)" style="fill: #1f77b4"/>
   </g>
   <g id="patch_176">
    <path d="M 322.213846 294.54825 
L 323.845276 294.54825 
L 323.845276 289.085632 
L 322.213846 289.085632 
z
" clip-path="url(#pc6784d0eb7)" style="fill: #1f77b4"/>
   </g>
   <g id="patch_177">
    <path d="M 323.845276 294.54825 
L 325.476706 294.54825 
L 325.476706 289.37402 
L 323.845276 289.37402 
z
" clip-path="url(#pc6784d0eb7)" style="fill: #1f77b4"/>
   </g>
   <g id="patch_178">
    <path d="M 325.476706 294.54825 
L 327.108136 294.54825 
L 327.108136 289.598695 
L 325.476706 289.598695 
z
" clip-path="url(#pc6784d0eb7)" style="fill: #1f77b4"/>
   </g>
   <g id="patch_179">
    <path d="M 327.108136 294.54825 
L 328.739565 294.54825 
L 328.739565 289.682529 
L 327.108136 289.682529 
z
" clip-path="url(#pc6784d0eb7)" style="fill: #1f77b4"/>
   </g>
   <g id="patch_180">
    <path d="M 328.739565 294.54825 
L 330.370995 294.54825 
L 330.370995 289.702649 
L 328.739565 289.702649 
z
" clip-path="url(#pc6784d0eb7)" style="fill: #1f77b4"/>
   </g>
   <g id="patch_181">
    <path d="M 330.370995 294.54825 
L 332.002425 294.54825 
L 332.002425 290.276073 
L 330.370995 290.276073 
z
" clip-path="url(#pc6784d0eb7)" style="fill: #1f77b4"/>
   </g>
   <g id="patch_182">
    <path d="M 332.002425 294.54825 
L 333.633855 294.54825 
L 333.633855 290.118466 
L 332.002425 290.118466 
z
" clip-path="url(#pc6784d0eb7)" style="fill: #1f77b4"/>
   </g>
   <g id="patch_183">
    <path d="M 333.633855 294.54825 
L 335.265285 294.54825 
L 335.265285 290.366614 
L 333.633855 290.366614 
z
" clip-path="url(#pc6784d0eb7)" style="fill: #1f77b4"/>
   </g>
   <g id="patch_184">
    <path d="M 335.265285 294.54825 
L 336.896715 294.54825 
L 336.896715 290.460508 
L 335.265285 290.460508 
z
" clip-path="url(#pc6784d0eb7)" style="fill: #1f77b4"/>
   </g>
   <g id="patch_185">
    <path d="M 336.896715 294.54825 
L 338.528145 294.54825 
L 338.528145 290.718717 
L 336.896715 290.718717 
z
" clip-path="url(#pc6784d0eb7)" style="fill: #1f77b4"/>
   </g>
   <g id="patch_186">
    <path d="M 338.528145 294.54825 
L 340.159575 294.54825 
L 340.159575 290.688536 
L 338.528145 290.688536 
z
" clip-path="url(#pc6784d0eb7)" style="fill: #1f77b4"/>
   </g>
   <g id="patch_187">
    <path d="M 340.159575 294.54825 
L 341.791004 294.54825 
L 341.791004 290.879678 
L 340.159575 290.879678 
z
" clip-path="url(#pc6784d0eb7)" style="fill: #1f77b4"/>
   </g>
   <g id="patch_188">
    <path d="M 341.791004 294.54825 
L 343.422434 294.54825 
L 343.422434 290.943391 
L 341.791004 290.943391 
z
" clip-path="url(#pc6784d0eb7)" style="fill: #1f77b4"/>
   </g>
   <g id="patch_189">
    <path d="M 343.422434 294.54825 
L 345.053864 294.54825 
L 345.053864 290.923271 
L 343.422434 290.923271 
z
" clip-path="url(#pc6784d0eb7)" style="fill: #1f77b4"/>
   </g>
   <g id="patch_190">
    <path d="M 345.053864 294.54825 
L 346.685294 294.54825 
L 346.685294 291.26196 
L 345.053864 291.26196 
z
" clip-path="url(#pc6784d0eb7)" style="fill: #1f77b4"/>
   </g>
   <g id="patch_191">
    <path d="M 346.685294 294.54825 
L 348.316724 294.54825 
L 348.316724 291.168066 
L 346.685294 291.168066 
z
" clip-path="url(#pc6784d0eb7)" style="fill: #1f77b4"/>
   </g>
   <g id="patch_192">
    <path d="M 348.316724 294.54825 
L 349.948154 294.54825 
L 349.948154 291.614063 
L 348.316724 291.614063 
z
" clip-path="url(#pc6784d0eb7)" style="fill: #1f77b4"/>
   </g>
   <g id="patch_193">
    <path d="M 349.948154 294.54825 
L 351.579584 294.54825 
L 351.579584 291.71131 
L 349.948154 291.71131 
z
" clip-path="url(#pc6784d0eb7)" style="fill: #1f77b4"/>
   </g>
   <g id="patch_194">
    <path d="M 351.579584 294.54825 
L 353.211014 294.54825 
L 353.211014 291.520169 
L 351.579584 291.520169 
z
" clip-path="url(#pc6784d0eb7)" style="fill: #1f77b4"/>
   </g>
   <g id="patch_195">
    <path d="M 353.211014 294.54825 
L 354.842443 294.54825 
L 354.842443 291.922572 
L 353.211014 291.922572 
z
" clip-path="url(#pc6784d0eb7)" style="fill: #1f77b4"/>
   </g>
   <g id="patch_196">
    <path d="M 354.842443 294.54825 
L 356.473873 294.54825 
L 356.473873 291.929278 
L 354.842443 291.929278 
z
" clip-path="url(#pc6784d0eb7)" style="fill: #1f77b4"/>
   </g>
   <g id="patch_197">
    <path d="M 356.473873 294.54825 
L 358.105303 294.54825 
L 358.105303 292.127126 
L 356.473873 292.127126 
z
" clip-path="url(#pc6784d0eb7)" style="fill: #1f77b4"/>
   </g>
   <g id="patch_198">
    <path d="M 358.105303 294.54825 
L 359.736733 294.54825 
L 359.736733 292.217667 
L 358.105303 292.217667 
z
" clip-path="url(#pc6784d0eb7)" style="fill: #1f77b4"/>
   </g>
   <g id="patch_199">
    <path d="M 359.736733 294.54825 
L 361.368163 294.54825 
L 361.368163 292.103653 
L 359.736733 292.103653 
z
" clip-path="url(#pc6784d0eb7)" style="fill: #1f77b4"/>
   </g>
   <g id="patch_200">
    <path d="M 361.368163 294.54825 
L 362.999593 294.54825 
L 362.999593 292.288088 
L 361.368163 292.288088 
z
" clip-path="url(#pc6784d0eb7)" style="fill: #1f77b4"/>
   </g>
   <g id="patch_201">
    <path d="M 362.999593 294.54825 
L 364.631023 294.54825 
L 364.631023 292.227727 
L 362.999593 292.227727 
z
" clip-path="url(#pc6784d0eb7)" style="fill: #1f77b4"/>
   </g>
   <g id="matplotlib.axis_1">
    <g id="xtick_1">
     <g id="line2d_1">
      <defs>
       <path id="mc5c61db180" d="M 0 0 
L 0 3.5 
" style="stroke: #000000; stroke-width: 0.8"/>
      </defs>
      <g>
       <use xlink:href="#mc5c61db180" x="94.085568" y="294.54825" style="stroke: #000000; stroke-width: 0.8"/>
      </g>
     </g>
     <g id="text_1">
      <!-- −0.2 -->
      <g transform="translate(75.873459 312.945906) scale(0.15 -0.15)">
       <defs>
        <path id="DejaVuSans-2212" d="M 678 2272 
L 4684 2272 
L 4684 1741 
L 678 1741 
L 678 2272 
z
" transform="scale(0.015625)"/>
        <path id="DejaVuSans-30" d="M 2034 4250 
Q 1547 4250 1301 3770 
Q 1056 3291 1056 2328 
Q 1056 1369 1301 889 
Q 1547 409 2034 409 
Q 2525 409 2770 889 
Q 3016 1369 3016 2328 
Q 3016 3291 2770 3770 
Q 2525 4250 2034 4250 
z
M 2034 4750 
Q 2819 4750 3233 4129 
Q 3647 3509 3647 2328 
Q 3647 1150 3233 529 
Q 2819 -91 2034 -91 
Q 1250 -91 836 529 
Q 422 1150 422 2328 
Q 422 3509 836 4129 
Q 1250 4750 2034 4750 
z
" transform="scale(0.015625)"/>
        <path id="DejaVuSans-2e" d="M 684 794 
L 1344 794 
L 1344 0 
L 684 0 
L 684 794 
z
" transform="scale(0.015625)"/>
        <path id="DejaVuSans-32" d="M 1228 531 
L 3431 531 
L 3431 0 
L 469 0 
L 469 531 
Q 828 903 1448 1529 
Q 2069 2156 2228 2338 
Q 2531 2678 2651 2914 
Q 2772 3150 2772 3378 
Q 2772 3750 2511 3984 
Q 2250 4219 1831 4219 
Q 1534 4219 1204 4116 
Q 875 4013 500 3803 
L 500 4441 
Q 881 4594 1212 4672 
Q 1544 4750 1819 4750 
Q 2544 4750 2975 4387 
Q 3406 4025 3406 3419 
Q 3406 3131 3298 2873 
Q 3191 2616 2906 2266 
Q 2828 2175 2409 1742 
Q 1991 1309 1228 531 
z
" transform="scale(0.015625)"/>
       </defs>
       <use xlink:href="#DejaVuSans-2212"/>
       <use xlink:href="#DejaVuSans-30" x="83.789062"/>
       <use xlink:href="#DejaVuSans-2e" x="147.412109"/>
       <use xlink:href="#DejaVuSans-32" x="179.199219"/>
      </g>
     </g>
    </g>
    <g id="xtick_2">
     <g id="line2d_2">
      <g>
       <use xlink:href="#mc5c61db180" x="202.30375" y="294.54825" style="stroke: #000000; stroke-width: 0.8"/>
      </g>
     </g>
     <g id="text_2">
      <!-- 0.0 -->
      <g transform="translate(190.376406 312.945906) scale(0.15 -0.15)">
       <use xlink:href="#DejaVuSans-30"/>
       <use xlink:href="#DejaVuSans-2e" x="63.623047"/>
       <use xlink:href="#DejaVuSans-30" x="95.410156"/>
      </g>
     </g>
    </g>
    <g id="xtick_3">
     <g id="line2d_3">
      <g>
       <use xlink:href="#mc5c61db180" x="310.521932" y="294.54825" style="stroke: #000000; stroke-width: 0.8"/>
      </g>
     </g>
     <g id="text_3">
      <!-- 0.2 -->
      <g transform="translate(298.594588 312.945906) scale(0.15 -0.15)">
       <use xlink:href="#DejaVuSans-30"/>
       <use xlink:href="#DejaVuSans-2e" x="63.623047"/>
       <use xlink:href="#DejaVuSans-32" x="95.410156"/>
      </g>
     </g>
    </g>
    <g id="text_4">
     <!-- Flux [mK] -->
     <g transform="translate(166.254531 331.463094) scale(0.15 -0.15)">
      <defs>
       <path id="DejaVuSans-46" d="M 628 4666 
L 3309 4666 
L 3309 4134 
L 1259 4134 
L 1259 2759 
L 3109 2759 
L 3109 2228 
L 1259 2228 
L 1259 0 
L 628 0 
L 628 4666 
z
" transform="scale(0.015625)"/>
       <path id="DejaVuSans-6c" d="M 603 4863 
L 1178 4863 
L 1178 0 
L 603 0 
L 603 4863 
z
" transform="scale(0.015625)"/>
       <path id="DejaVuSans-75" d="M 544 1381 
L 544 3500 
L 1119 3500 
L 1119 1403 
Q 1119 906 1312 657 
Q 1506 409 1894 409 
Q 2359 409 2629 706 
Q 2900 1003 2900 1516 
L 2900 3500 
L 3475 3500 
L 3475 0 
L 2900 0 
L 2900 538 
Q 2691 219 2414 64 
Q 2138 -91 1772 -91 
Q 1169 -91 856 284 
Q 544 659 544 1381 
z
M 1991 3584 
L 1991 3584 
z
" transform="scale(0.015625)"/>
       <path id="DejaVuSans-78" d="M 3513 3500 
L 2247 1797 
L 3578 0 
L 2900 0 
L 1881 1375 
L 863 0 
L 184 0 
L 1544 1831 
L 300 3500 
L 978 3500 
L 1906 2253 
L 2834 3500 
L 3513 3500 
z
" transform="scale(0.015625)"/>
       <path id="DejaVuSans-20" transform="scale(0.015625)"/>
       <path id="DejaVuSans-5b" d="M 550 4863 
L 1875 4863 
L 1875 4416 
L 1125 4416 
L 1125 -397 
L 1875 -397 
L 1875 -844 
L 550 -844 
L 550 4863 
z
" transform="scale(0.015625)"/>
       <path id="DejaVuSans-6d" d="M 3328 2828 
Q 3544 3216 3844 3400 
Q 4144 3584 4550 3584 
Q 5097 3584 5394 3201 
Q 5691 2819 5691 2113 
L 5691 0 
L 5113 0 
L 5113 2094 
Q 5113 2597 4934 2840 
Q 4756 3084 4391 3084 
Q 3944 3084 3684 2787 
Q 3425 2491 3425 1978 
L 3425 0 
L 2847 0 
L 2847 2094 
Q 2847 2600 2669 2842 
Q 2491 3084 2119 3084 
Q 1678 3084 1418 2786 
Q 1159 2488 1159 1978 
L 1159 0 
L 581 0 
L 581 3500 
L 1159 3500 
L 1159 2956 
Q 1356 3278 1631 3431 
Q 1906 3584 2284 3584 
Q 2666 3584 2933 3390 
Q 3200 3197 3328 2828 
z
" transform="scale(0.015625)"/>
       <path id="DejaVuSans-4b" d="M 628 4666 
L 1259 4666 
L 1259 2694 
L 3353 4666 
L 4166 4666 
L 1850 2491 
L 4331 0 
L 3500 0 
L 1259 2247 
L 1259 0 
L 628 0 
L 628 4666 
z
" transform="scale(0.015625)"/>
       <path id="DejaVuSans-5d" d="M 1947 4863 
L 1947 -844 
L 622 -844 
L 622 -397 
L 1369 -397 
L 1369 4416 
L 622 4416 
L 622 4863 
L 1947 4863 
z
" transform="scale(0.015625)"/>
      </defs>
      <use xlink:href="#DejaVuSans-46"/>
      <use xlink:href="#DejaVuSans-6c" x="57.519531"/>
      <use xlink:href="#DejaVuSans-75" x="85.302734"/>
      <use xlink:href="#DejaVuSans-78" x="148.681641"/>
      <use xlink:href="#DejaVuSans-20" x="207.861328"/>
      <use xlink:href="#DejaVuSans-5b" x="239.648438"/>
      <use xlink:href="#DejaVuSans-6d" x="278.662109"/>
      <use xlink:href="#DejaVuSans-4b" x="376.074219"/>
      <use xlink:href="#DejaVuSans-5d" x="441.650391"/>
     </g>
    </g>
   </g>
   <g id="matplotlib.axis_2">
    <g id="ytick_1">
     <g id="line2d_4">
      <defs>
       <path id="mf4d3b80964" d="M 0 0 
L -3.5 0 
" style="stroke: #000000; stroke-width: 0.8"/>
      </defs>
      <g>
       <use xlink:href="#mf4d3b80964" x="23.74375" y="294.54825" style="stroke: #000000; stroke-width: 0.8"/>
      </g>
     </g>
     <g id="text_5">
      <!-- 0 -->
      <g transform="translate(7.2 300.247078) scale(0.15 -0.15)">
       <use xlink:href="#DejaVuSans-30"/>
      </g>
     </g>
    </g>
    <g id="ytick_2">
     <g id="line2d_5">
      <g>
       <use xlink:href="#mf4d3b80964" x="23.74375" y="227.481114" style="stroke: #000000; stroke-width: 0.8"/>
      </g>
     </g>
     <g id="text_6">
      <!-- 2 -->
      <g transform="translate(7.2 233.179942) scale(0.15 -0.15)">
       <use xlink:href="#DejaVuSans-32"/>
      </g>
     </g>
    </g>
    <g id="ytick_3">
     <g id="line2d_6">
      <g>
       <use xlink:href="#mf4d3b80964" x="23.74375" y="160.413978" style="stroke: #000000; stroke-width: 0.8"/>
      </g>
     </g>
     <g id="text_7">
      <!-- 4 -->
      <g transform="translate(7.2 166.112806) scale(0.15 -0.15)">
       <defs>
        <path id="DejaVuSans-34" d="M 2419 4116 
L 825 1625 
L 2419 1625 
L 2419 4116 
z
M 2253 4666 
L 3047 4666 
L 3047 1625 
L 3713 1625 
L 3713 1100 
L 3047 1100 
L 3047 0 
L 2419 0 
L 2419 1100 
L 313 1100 
L 313 1709 
L 2253 4666 
z
" transform="scale(0.015625)"/>
       </defs>
       <use xlink:href="#DejaVuSans-34"/>
      </g>
     </g>
    </g>
    <g id="ytick_4">
     <g id="line2d_7">
      <g>
       <use xlink:href="#mf4d3b80964" x="23.74375" y="93.346842" style="stroke: #000000; stroke-width: 0.8"/>
      </g>
     </g>
     <g id="text_8">
      <!-- 6 -->
      <g transform="translate(7.2 99.04567) scale(0.15 -0.15)">
       <defs>
        <path id="DejaVuSans-36" d="M 2113 2584 
Q 1688 2584 1439 2293 
Q 1191 2003 1191 1497 
Q 1191 994 1439 701 
Q 1688 409 2113 409 
Q 2538 409 2786 701 
Q 3034 994 3034 1497 
Q 3034 2003 2786 2293 
Q 2538 2584 2113 2584 
z
M 3366 4563 
L 3366 3988 
Q 3128 4100 2886 4159 
Q 2644 4219 2406 4219 
Q 1781 4219 1451 3797 
Q 1122 3375 1075 2522 
Q 1259 2794 1537 2939 
Q 1816 3084 2150 3084 
Q 2853 3084 3261 2657 
Q 3669 2231 3669 1497 
Q 3669 778 3244 343 
Q 2819 -91 2113 -91 
Q 1303 -91 875 529 
Q 447 1150 447 2328 
Q 447 3434 972 4092 
Q 1497 4750 2381 4750 
Q 2619 4750 2861 4703 
Q 3103 4656 3366 4563 
z
" transform="scale(0.015625)"/>
       </defs>
       <use xlink:href="#DejaVuSans-36"/>
      </g>
     </g>
    </g>
    <g id="text_9">
     <!-- 1e4 -->
     <g transform="translate(23.74375 25.43625) scale(0.24 -0.24)">
      <defs>
       <path id="DejaVuSans-31" d="M 794 531 
L 1825 531 
L 1825 4091 
L 703 3866 
L 703 4441 
L 1819 4666 
L 2450 4666 
L 2450 531 
L 3481 531 
L 3481 0 
L 794 0 
L 794 531 
z
" transform="scale(0.015625)"/>
       <path id="DejaVuSans-65" d="M 3597 1894 
L 3597 1613 
L 953 1613 
Q 991 1019 1311 708 
Q 1631 397 2203 397 
Q 2534 397 2845 478 
Q 3156 559 3463 722 
L 3463 178 
Q 3153 47 2828 -22 
Q 2503 -91 2169 -91 
Q 1331 -91 842 396 
Q 353 884 353 1716 
Q 353 2575 817 3079 
Q 1281 3584 2069 3584 
Q 2775 3584 3186 3129 
Q 3597 2675 3597 1894 
z
M 3022 2063 
Q 3016 2534 2758 2815 
Q 2500 3097 2075 3097 
Q 1594 3097 1305 2825 
Q 1016 2553 972 2059 
L 3022 2063 
z
" transform="scale(0.015625)"/>
      </defs>
      <use xlink:href="#DejaVuSans-31"/>
      <use xlink:href="#DejaVuSans-65" x="63.623047"/>
      <use xlink:href="#DejaVuSans-34" x="125.146484"/>
     </g>
    </g>
   </g>
   <g id="patch_202">
    <path d="M 23.74375 294.54825 
L 23.74375 28.43625 
" style="fill: none; stroke: #000000; stroke-width: 0.8; stroke-linejoin: miter; stroke-linecap: square"/>
   </g>
   <g id="patch_203">
    <path d="M 380.86375 294.54825 
L 380.86375 28.43625 
" style="fill: none; stroke: #000000; stroke-width: 0.8; stroke-linejoin: miter; stroke-linecap: square"/>
   </g>
   <g id="patch_204">
    <path d="M 23.74375 294.54825 
L 380.86375 294.54825 
" style="fill: none; stroke: #000000; stroke-width: 0.8; stroke-linejoin: miter; stroke-linecap: square"/>
   </g>
   <g id="patch_205">
    <path d="M 23.74375 28.43625 
L 380.86375 28.43625 
" style="fill: none; stroke: #000000; stroke-width: 0.8; stroke-linejoin: miter; stroke-linecap: square"/>
   </g>
  </g>
 </g>
 <defs>
  <clipPath id="pc6784d0eb7">
   <rect x="23.74375" y="28.43625" width="357.12" height="266.112"/>
  </clipPath>
 </defs>
</svg>
